<?xml version="1.0" encoding="UTF-8" standalone="no"?>
<!DOCTYPE svg PUBLIC "-//W3C//DTD SVG 1.1//EN"
 "http://www.w3.org/Graphics/SVG/1.1/DTD/svg11.dtd">
<!-- Generated by graphviz version 2.38.0 (20140413.2041)
 -->
<!-- Title: workflow Pages: 1 -->
<svg width="2834pt" height="1000pt"
 viewBox="0.00 0.00 2833.50 999.80" xmlns="http://www.w3.org/2000/svg" xmlns:xlink="http://www.w3.org/1999/xlink">
<g id="graph0" class="graph" transform="scale(1 1) rotate(0) translate(4 995.797)">
<title>workflow</title>
<polygon fill="white" stroke="none" points="-4,4 -4,-995.797 2829.5,-995.797 2829.5,4 -4,4"/>
<!-- place_c72633f673ef54769f56bbaf78d2baf4858bf7c3 -->
<g id="node1" class="node"><title>place_c72633f673ef54769f56bbaf78d2baf4858bf7c3</title>
<ellipse fill="lightblue" stroke="#333333" cx="36" cy="-430.797" rx="36" ry="36"/>
<text text-anchor="middle" x="36" y="-428.597" font-family="Arial" font-size="9.00">ACTIVE</text>
</g>
<!-- transition_ac3478d69a3c81fa62e60f5c3696165a4e5e6ac4 -->
<g id="node26" class="node"><title>transition_ac3478d69a3c81fa62e60f5c3696165a4e5e6ac4</title>
<polygon fill="none" stroke="#333333" points="250.5,-771.297 137.5,-771.297 137.5,-658.297 250.5,-658.297 250.5,-771.297"/>
<text text-anchor="middle" x="194" y="-712.597" font-family="Arial" font-size="9.00">INITIATE_REVOCATION</text>
</g>
<!-- place_c72633f673ef54769f56bbaf78d2baf4858bf7c3&#45;&gt;transition_ac3478d69a3c81fa62e60f5c3696165a4e5e6ac4 -->
<g id="edge11" class="edge"><title>place_c72633f673ef54769f56bbaf78d2baf4858bf7c3&#45;&gt;transition_ac3478d69a3c81fa62e60f5c3696165a4e5e6ac4</title>
<path fill="none" stroke="#333333" d="M60.8469,-457.645C65.0398,-463.35 69.0111,-469.547 72,-475.797 102.138,-538.818 74.1831,-567.671 108,-628.797 114.879,-641.23 124.062,-653.101 133.851,-663.837"/>
<polygon fill="#333333" stroke="#333333" points="132.794,-665.271 137.481,-667.741 135.357,-662.888 132.794,-665.271"/>
</g>
<!-- transition_17ba0791499db908433b80f37c5fbc89b870084b -->
<g id="node32" class="node"><title>transition_17ba0791499db908433b80f37c5fbc89b870084b</title>
<polygon fill="none" stroke="#333333" points="237,-619.797 151,-619.797 151,-533.797 237,-533.797 237,-619.797"/>
<text text-anchor="middle" x="194" y="-574.597" font-family="Arial" font-size="9.00">INITIATE_PAUSE</text>
</g>
<!-- place_c72633f673ef54769f56bbaf78d2baf4858bf7c3&#45;&gt;transition_17ba0791499db908433b80f37c5fbc89b870084b -->
<g id="edge23" class="edge"><title>place_c72633f673ef54769f56bbaf78d2baf4858bf7c3&#45;&gt;transition_17ba0791499db908433b80f37c5fbc89b870084b</title>
<path fill="none" stroke="#333333" d="M58.9854,-458.776C78.7557,-483.871 105.128,-517.153 108,-519.797 119.627,-530.5 133.435,-540.647 146.506,-549.332"/>
<polygon fill="#333333" stroke="#333333" points="145.766,-550.939 150.906,-552.22 147.686,-548.013 145.766,-550.939"/>
</g>
<!-- transition_f1abd670358e036c31296e66b3b66c382ac00812 -->
<g id="node36" class="node"><title>transition_f1abd670358e036c31296e66b3b66c382ac00812</title>
<polygon fill="none" stroke="#333333" points="274,-510.797 114,-510.797 114,-350.797 274,-350.797 274,-510.797"/>
<text text-anchor="middle" x="194" y="-428.597" font-family="Arial" font-size="9.00">INITIATE_TRANSACTION_UPDATE</text>
</g>
<!-- place_c72633f673ef54769f56bbaf78d2baf4858bf7c3&#45;&gt;transition_f1abd670358e036c31296e66b3b66c382ac00812 -->
<g id="edge31" class="edge"><title>place_c72633f673ef54769f56bbaf78d2baf4858bf7c3&#45;&gt;transition_f1abd670358e036c31296e66b3b66c382ac00812</title>
<path fill="none" stroke="#333333" d="M72.0094,-430.797C83.0328,-430.797 95.7221,-430.797 108.646,-430.797"/>
<polygon fill="#333333" stroke="#333333" points="108.801,-432.547 113.801,-430.797 108.801,-429.047 108.801,-432.547"/>
</g>
<!-- transition_9e6a55b6b4563e652a23be9d623ca5055c356940 -->
<g id="node39" class="node"><title>transition_9e6a55b6b4563e652a23be9d623ca5055c356940</title>
<polygon fill="none" stroke="#333333" points="280,-298.797 108,-298.797 108,-126.797 280,-126.797 280,-298.797"/>
<text text-anchor="middle" x="194" y="-210.597" font-family="Arial" font-size="9.00">INITIATE_PAYER_NUMBER_CHANGE</text>
</g>
<!-- place_c72633f673ef54769f56bbaf78d2baf4858bf7c3&#45;&gt;transition_9e6a55b6b4563e652a23be9d623ca5055c356940 -->
<g id="edge37" class="edge"><title>place_c72633f673ef54769f56bbaf78d2baf4858bf7c3&#45;&gt;transition_9e6a55b6b4563e652a23be9d623ca5055c356940</title>
<path fill="none" stroke="#333333" d="M57.7156,-401.848C75.7947,-376.584 103.024,-338.532 128.326,-303.174"/>
<polygon fill="#333333" stroke="#333333" points="129.915,-303.961 131.402,-298.877 127.069,-301.924 129.915,-303.961"/>
</g>
<!-- place_e6055c5a6ee8feda91cdd5be510d21cec274b4c8 -->
<g id="node2" class="node"><title>place_e6055c5a6ee8feda91cdd5be510d21cec274b4c8</title>
<ellipse fill="none" stroke="#333333" cx="464.723" cy="-582.797" rx="48.05" ry="48.05"/>
<text text-anchor="middle" x="464.723" y="-580.597" font-family="Arial" font-size="9.00">AWAITING_PAUSE</text>
</g>
<!-- transition_7b52009b64fd0a2a49e6d8a939753077792b0554 -->
<g id="node33" class="node"><title>transition_7b52009b64fd0a2a49e6d8a939753077792b0554</title>
<polygon fill="none" stroke="#333333" points="721.445,-607.797 649.445,-607.797 649.445,-535.797 721.445,-535.797 721.445,-607.797"/>
<text text-anchor="middle" x="685.445" y="-569.597" font-family="Arial" font-size="9.00">EXPORT</text>
</g>
<!-- place_e6055c5a6ee8feda91cdd5be510d21cec274b4c8&#45;&gt;transition_7b52009b64fd0a2a49e6d8a939753077792b0554 -->
<g id="edge25" class="edge"><title>place_e6055c5a6ee8feda91cdd5be510d21cec274b4c8&#45;&gt;transition_7b52009b64fd0a2a49e6d8a939753077792b0554</title>
<path fill="none" stroke="#333333" d="M512.913,-580.424C551.934,-578.461 606.768,-575.703 643.85,-573.838"/>
<polygon fill="#333333" stroke="#333333" points="644.283,-575.569 649.189,-573.57 644.107,-572.073 644.283,-575.569"/>
</g>
<!-- place_603ac2dac5e51a400b34e54cd8c3863177d9c01b -->
<g id="node3" class="node"><title>place_603ac2dac5e51a400b34e54cd8c3863177d9c01b</title>
<ellipse fill="none" stroke="#333333" cx="1368.74" cy="-177.797" rx="92.3705" ry="92.3705"/>
<text text-anchor="middle" x="1368.74" y="-175.597" font-family="Arial" font-size="9.00">AWAITING_PAYER_NUMBER_CHANGE</text>
</g>
<!-- transition_472b07b9fcf2c2451e8781e944bf5f77cd8457c8 -->
<g id="node42" class="node"><title>transition_472b07b9fcf2c2451e8781e944bf5f77cd8457c8</title>
<polygon fill="none" stroke="#333333" points="1617.17,-213.797 1545.17,-213.797 1545.17,-141.797 1617.17,-141.797 1617.17,-213.797"/>
<text text-anchor="middle" x="1581.17" y="-175.597" font-family="Arial" font-size="9.00">EXPORT</text>
</g>
<!-- place_603ac2dac5e51a400b34e54cd8c3863177d9c01b&#45;&gt;transition_472b07b9fcf2c2451e8781e944bf5f77cd8457c8 -->
<g id="edge43" class="edge"><title>place_603ac2dac5e51a400b34e54cd8c3863177d9c01b&#45;&gt;transition_472b07b9fcf2c2451e8781e944bf5f77cd8457c8</title>
<path fill="none" stroke="#333333" d="M1461.42,-177.797C1488.8,-177.797 1517.42,-177.797 1539.7,-177.797"/>
<polygon fill="#333333" stroke="#333333" points="1539.94,-179.547 1544.94,-177.797 1539.94,-176.047 1539.94,-179.547"/>
</g>
<!-- place_664643489a68e9127ca5f29045b98aea46b3fffd -->
<g id="node4" class="node"><title>place_664643489a68e9127ca5f29045b98aea46b3fffd</title>
<ellipse fill="none" stroke="#333333" cx="464.723" cy="-177.797" rx="148.945" ry="148.945"/>
<text text-anchor="middle" x="464.723" y="-175.597" font-family="Arial" font-size="9.00">AWAITING_PAYER_NUMBER_CHANGE_TRANSACTION_UPDATE</text>
</g>
<!-- transition_b3f0c7f6bb763af1be91d9e74eabfeb199dc1f1f -->
<g id="node40" class="node"><title>transition_b3f0c7f6bb763af1be91d9e74eabfeb199dc1f1f</title>
<polygon fill="none" stroke="#333333" points="721.445,-213.797 649.445,-213.797 649.445,-141.797 721.445,-141.797 721.445,-213.797"/>
<text text-anchor="middle" x="685.445" y="-175.597" font-family="Arial" font-size="9.00">EXPORT</text>
</g>
<!-- place_664643489a68e9127ca5f29045b98aea46b3fffd&#45;&gt;transition_b3f0c7f6bb763af1be91d9e74eabfeb199dc1f1f -->
<g id="edge39" class="edge"><title>place_664643489a68e9127ca5f29045b98aea46b3fffd&#45;&gt;transition_b3f0c7f6bb763af1be91d9e74eabfeb199dc1f1f</title>
<path fill="none" stroke="#333333" d="M613.734,-177.797C624.701,-177.797 635.073,-177.797 644.323,-177.797"/>
<polygon fill="#333333" stroke="#333333" points="644.342,-179.547 649.342,-177.797 644.342,-176.047 644.342,-179.547"/>
</g>
<!-- place_9031bdf59fef50c79366e1e807bcd3165f1b86da -->
<g id="node5" class="node"><title>place_9031bdf59fef50c79366e1e807bcd3165f1b86da</title>
<ellipse fill="none" stroke="#333333" cx="464.723" cy="-715.797" rx="62.4683" ry="62.4683"/>
<text text-anchor="middle" x="464.723" y="-713.597" font-family="Arial" font-size="9.00">AWAITING_REVOCATION</text>
</g>
<!-- transition_c1dfd96eea8cc2b62785275bca38ac261256e278 -->
<g id="node27" class="node"><title>transition_c1dfd96eea8cc2b62785275bca38ac261256e278</title>
<polygon fill="none" stroke="#333333" points="721.445,-756.797 649.445,-756.797 649.445,-684.797 721.445,-684.797 721.445,-756.797"/>
<text text-anchor="middle" x="685.445" y="-718.597" font-family="Arial" font-size="9.00">EXPORT</text>
</g>
<!-- place_9031bdf59fef50c79366e1e807bcd3165f1b86da&#45;&gt;transition_c1dfd96eea8cc2b62785275bca38ac261256e278 -->
<g id="edge13" class="edge"><title>place_9031bdf59fef50c79366e1e807bcd3165f1b86da&#45;&gt;transition_c1dfd96eea8cc2b62785275bca38ac261256e278</title>
<path fill="none" stroke="#333333" d="M527.231,-717.203C564.651,-718.058 611.382,-719.127 644.133,-719.875"/>
<polygon fill="#333333" stroke="#333333" points="644.227,-721.628 649.266,-719.993 644.307,-718.129 644.227,-721.628"/>
</g>
<!-- place_9804773f9a8846d1ea1d0cde5eb01d893b382682 -->
<g id="node6" class="node"><title>place_9804773f9a8846d1ea1d0cde5eb01d893b382682</title>
<ellipse fill="none" stroke="#333333" cx="2203.9" cy="-362.797" rx="101.961" ry="101.961"/>
<text text-anchor="middle" x="2203.9" y="-360.597" font-family="Arial" font-size="9.00">AWAITING_TRANSACTION_REGISTRATION</text>
</g>
<!-- transition_77de68daecd823babbb58edb1c8e14d7106e83bb -->
<g id="node24" class="node"><title>transition_77de68daecd823babbb58edb1c8e14d7106e83bb</title>
<polygon fill="none" stroke="#333333" points="2413.63,-337.797 2341.63,-337.797 2341.63,-265.797 2413.63,-265.797 2413.63,-337.797"/>
<text text-anchor="middle" x="2377.63" y="-299.597" font-family="Arial" font-size="9.00">EXPORT</text>
</g>
<!-- place_9804773f9a8846d1ea1d0cde5eb01d893b382682&#45;&gt;transition_77de68daecd823babbb58edb1c8e14d7106e83bb -->
<g id="edge7" class="edge"><title>place_9804773f9a8846d1ea1d0cde5eb01d893b382682&#45;&gt;transition_77de68daecd823babbb58edb1c8e14d7106e83bb</title>
<path fill="none" stroke="#333333" d="M2300.06,-328.996C2312.81,-324.467 2325.28,-320.036 2336.34,-316.109"/>
<polygon fill="#333333" stroke="#333333" points="2337.19,-317.665 2341.31,-314.342 2336.02,-314.367 2337.19,-317.665"/>
</g>
<!-- place_a6d4df81ef896e3dae9187ed1a718a5abde20bcf -->
<g id="node7" class="node"><title>place_a6d4df81ef896e3dae9187ed1a718a5abde20bcf</title>
<ellipse fill="none" stroke="#333333" cx="464.723" cy="-430.797" rx="86.4775" ry="86.4775"/>
<text text-anchor="middle" x="464.723" y="-428.597" font-family="Arial" font-size="9.00">AWAITING_TRANSACTION_UPDATE</text>
</g>
<!-- transition_1574bddb75c78a6fd2251d61e2993b5146201319 -->
<g id="node37" class="node"><title>transition_1574bddb75c78a6fd2251d61e2993b5146201319</title>
<polygon fill="none" stroke="#333333" points="721.445,-461.797 649.445,-461.797 649.445,-389.797 721.445,-389.797 721.445,-461.797"/>
<text text-anchor="middle" x="685.445" y="-423.597" font-family="Arial" font-size="9.00">EXPORT</text>
</g>
<!-- place_a6d4df81ef896e3dae9187ed1a718a5abde20bcf&#45;&gt;transition_1574bddb75c78a6fd2251d61e2993b5146201319 -->
<g id="edge33" class="edge"><title>place_a6d4df81ef896e3dae9187ed1a718a5abde20bcf&#45;&gt;transition_1574bddb75c78a6fd2251d61e2993b5146201319</title>
<path fill="none" stroke="#333333" d="M551.226,-428.842C583.239,-428.11 618.119,-427.313 644.156,-426.718"/>
<polygon fill="#333333" stroke="#333333" points="644.284,-428.465 649.242,-426.602 644.204,-424.966 644.284,-428.465"/>
</g>
<!-- place_0b99cebe565822c64ac5d84aecb00fe40e59cbd3 -->
<g id="node8" class="node"><title>place_0b99cebe565822c64ac5d84aecb00fe40e59cbd3</title>
<ellipse fill="none" stroke="#333333" cx="36" cy="-520.797" rx="36" ry="36"/>
<text text-anchor="middle" x="36" y="-518.597" font-family="Arial" font-size="9.00">ERROR</text>
</g>
<!-- place_d2b9cb7f8fd77caeaa93cb6ecf9a2c6c01a8aa39 -->
<g id="node9" class="node"><title>place_d2b9cb7f8fd77caeaa93cb6ecf9a2c6c01a8aa39</title>
<ellipse fill="none" stroke="#333333" cx="1785.17" cy="-589.797" rx="44.8533" ry="44.8533"/>
<text text-anchor="middle" x="1785.17" y="-587.597" font-family="Arial" font-size="9.00">MANDATE_SENT</text>
</g>
<!-- transition_da4b9237bacccdf19c0760cab7aec4a8359010b0 -->
<g id="node23" class="node"><title>transition_da4b9237bacccdf19c0760cab7aec4a8359010b0</title>
<polygon fill="none" stroke="#333333" points="2066.17,-669.297 1905.17,-669.297 1905.17,-508.297 2066.17,-508.297 2066.17,-669.297"/>
<text text-anchor="middle" x="1985.67" y="-586.597" font-family="Arial" font-size="9.00">IMPORT_MANDATE_REGISTERED</text>
</g>
<!-- place_d2b9cb7f8fd77caeaa93cb6ecf9a2c6c01a8aa39&#45;&gt;transition_da4b9237bacccdf19c0760cab7aec4a8359010b0 -->
<g id="edge5" class="edge"><title>place_d2b9cb7f8fd77caeaa93cb6ecf9a2c6c01a8aa39&#45;&gt;transition_da4b9237bacccdf19c0760cab7aec4a8359010b0</title>
<path fill="none" stroke="#333333" d="M1830.22,-589.575C1850.7,-589.472 1875.77,-589.345 1899.7,-589.225"/>
<polygon fill="#333333" stroke="#333333" points="1899.8,-590.974 1904.79,-589.199 1899.78,-587.475 1899.8,-590.974"/>
</g>
<!-- place_e1b6adc61c1e09203349001f5eeaf8573afcf571 -->
<g id="node10" class="node"><title>place_e1b6adc61c1e09203349001f5eeaf8573afcf571</title>
<ellipse fill="none" stroke="#333333" cx="1368.74" cy="-591.797" rx="63.0011" ry="63.0011"/>
<text text-anchor="middle" x="1368.74" y="-589.597" font-family="Arial" font-size="9.00">NEW_DIGITAL_MANDATE</text>
</g>
<!-- transition_356a192b7913b04c54574d18c28d46e6395428ab -->
<g id="node22" class="node"><title>transition_356a192b7913b04c54574d18c28d46e6395428ab</title>
<polygon fill="none" stroke="#333333" points="1617.17,-625.797 1545.17,-625.797 1545.17,-553.797 1617.17,-553.797 1617.17,-625.797"/>
<text text-anchor="middle" x="1581.17" y="-587.597" font-family="Arial" font-size="9.00">EXPORT</text>
</g>
<!-- place_e1b6adc61c1e09203349001f5eeaf8573afcf571&#45;&gt;transition_356a192b7913b04c54574d18c28d46e6395428ab -->
<g id="edge3" class="edge"><title>place_e1b6adc61c1e09203349001f5eeaf8573afcf571&#45;&gt;transition_356a192b7913b04c54574d18c28d46e6395428ab</title>
<path fill="none" stroke="#333333" d="M1431.73,-591.208C1466.69,-590.875 1509.35,-590.47 1539.95,-590.179"/>
<polygon fill="#333333" stroke="#333333" points="1540.15,-591.927 1545.13,-590.13 1540.12,-588.427 1540.15,-591.927"/>
</g>
<!-- place_818af3c4262f96a99ab981900e5a0e1c415b44df -->
<g id="node11" class="node"><title>place_818af3c4262f96a99ab981900e5a0e1c415b44df</title>
<ellipse fill="none" stroke="#333333" cx="1368.74" cy="-715.797" rx="43.2552" ry="43.2552"/>
<text text-anchor="middle" x="1368.74" y="-713.597" font-family="Arial" font-size="9.00">NEW_MANDATE</text>
</g>
<!-- transition_b6589fc6ab0dc82cf12099d1c2d40ab994e8410c -->
<g id="node21" class="node"><title>transition_b6589fc6ab0dc82cf12099d1c2d40ab994e8410c</title>
<polygon fill="none" stroke="#333333" points="1617.17,-715.797 1545.17,-715.797 1545.17,-643.797 1617.17,-643.797 1617.17,-715.797"/>
<text text-anchor="middle" x="1581.17" y="-677.597" font-family="Arial" font-size="9.00">EXPORT</text>
</g>
<!-- place_818af3c4262f96a99ab981900e5a0e1c415b44df&#45;&gt;transition_b6589fc6ab0dc82cf12099d1c2d40ab994e8410c -->
<g id="edge1" class="edge"><title>place_818af3c4262f96a99ab981900e5a0e1c415b44df&#45;&gt;transition_b6589fc6ab0dc82cf12099d1c2d40ab994e8410c</title>
<path fill="none" stroke="#333333" d="M1411.56,-708.641C1448.81,-702.27 1502.94,-693.009 1539.75,-686.711"/>
<polygon fill="#333333" stroke="#333333" points="1540.42,-688.373 1545.05,-685.804 1539.83,-684.923 1540.42,-688.373"/>
</g>
<!-- place_ead9028928ebb77be9947a639f024bb8b67c643a -->
<g id="node12" class="node"><title>place_ead9028928ebb77be9947a639f024bb8b67c643a</title>
<ellipse fill="none" stroke="#333333" cx="896.873" cy="-562.797" rx="38.961" ry="38.961"/>
<text text-anchor="middle" x="896.873" y="-560.597" font-family="Arial" font-size="9.00">PAUSE_SENT</text>
</g>
<!-- transition_bd307a3ec329e10a2cff8fb87480823da114f8f4 -->
<g id="node34" class="node"><title>transition_bd307a3ec329e10a2cff8fb87480823da114f8f4</title>
<polygon fill="none" stroke="#333333" points="1240.3,-592.797 1072.3,-592.797 1072.3,-424.797 1240.3,-424.797 1240.3,-592.797"/>
<text text-anchor="middle" x="1156.3" y="-506.597" font-family="Arial" font-size="9.00">IMPORT_TRANSACTION_REMOVED</text>
</g>
<!-- place_ead9028928ebb77be9947a639f024bb8b67c643a&#45;&gt;transition_bd307a3ec329e10a2cff8fb87480823da114f8f4 -->
<g id="edge27" class="edge"><title>place_ead9028928ebb77be9947a639f024bb8b67c643a&#45;&gt;transition_bd307a3ec329e10a2cff8fb87480823da114f8f4</title>
<path fill="none" stroke="#333333" d="M935.03,-555.002C969.489,-547.774 1022.1,-536.738 1067.26,-527.264"/>
<polygon fill="#333333" stroke="#333333" points="1067.63,-528.974 1072.17,-526.235 1066.92,-525.549 1067.63,-528.974"/>
</g>
<!-- place_cd5d07c90b5c8a0724fc18d8b9c909271052f2b5 -->
<g id="node13" class="node"><title>place_cd5d07c90b5c8a0724fc18d8b9c909271052f2b5</title>
<ellipse fill="none" stroke="#333333" cx="1368.74" cy="-474.797" rx="36" ry="36"/>
<text text-anchor="middle" x="1368.74" y="-472.597" font-family="Arial" font-size="9.00">PAUSED</text>
</g>
<!-- transition_fa35e192121eabf3dabf9f5ea6abdbcbc107ac3b -->
<g id="node35" class="node"><title>transition_fa35e192121eabf3dabf9f5ea6abdbcbc107ac3b</title>
<polygon fill="none" stroke="#333333" points="2034.17,-489.297 1937.17,-489.297 1937.17,-392.297 2034.17,-392.297 2034.17,-489.297"/>
<text text-anchor="middle" x="1985.67" y="-438.597" font-family="Arial" font-size="9.00">INITIATE_RESTART</text>
</g>
<!-- place_cd5d07c90b5c8a0724fc18d8b9c909271052f2b5&#45;&gt;transition_fa35e192121eabf3dabf9f5ea6abdbcbc107ac3b -->
<g id="edge29" class="edge"><title>place_cd5d07c90b5c8a0724fc18d8b9c909271052f2b5&#45;&gt;transition_fa35e192121eabf3dabf9f5ea6abdbcbc107ac3b</title>
<path fill="none" stroke="#333333" d="M1404.92,-474.559C1486.6,-473.766 1695.37,-470.358 1869.17,-455.797 1889.7,-454.077 1912.19,-451.349 1931.82,-448.689"/>
<polygon fill="#333333" stroke="#333333" points="1932.29,-450.391 1937.01,-447.979 1931.82,-446.923 1932.29,-450.391"/>
</g>
<!-- place_1d873f095061223ff3e5aa2923f8eed67b6a60f3 -->
<g id="node14" class="node"><title>place_1d873f095061223ff3e5aa2923f8eed67b6a60f3</title>
<ellipse fill="none" stroke="#333333" cx="1785.17" cy="-177.797" rx="83.2803" ry="83.2803"/>
<text text-anchor="middle" x="1785.17" y="-175.597" font-family="Arial" font-size="9.00">PAYER_NUMBER_CHANGE_SENT</text>
</g>
<!-- transition_12c6fc06c99a462375eeb3f43dfd832b08ca9e17 -->
<g id="node43" class="node"><title>transition_12c6fc06c99a462375eeb3f43dfd832b08ca9e17</title>
<polygon fill="none" stroke="#333333" points="2066.17,-296.297 1905.17,-296.297 1905.17,-135.297 2066.17,-135.297 2066.17,-296.297"/>
<text text-anchor="middle" x="1985.67" y="-213.597" font-family="Arial" font-size="9.00">IMPORT_MANDATE_REGISTERED</text>
</g>
<!-- place_1d873f095061223ff3e5aa2923f8eed67b6a60f3&#45;&gt;transition_12c6fc06c99a462375eeb3f43dfd832b08ca9e17 -->
<g id="edge45" class="edge"><title>place_1d873f095061223ff3e5aa2923f8eed67b6a60f3&#45;&gt;transition_12c6fc06c99a462375eeb3f43dfd832b08ca9e17</title>
<path fill="none" stroke="#333333" d="M1866.91,-193.253C1877.8,-195.338 1889,-197.481 1899.95,-199.579"/>
<polygon fill="#333333" stroke="#333333" points="1899.73,-201.318 1904.97,-200.539 1900.39,-197.88 1899.73,-201.318"/>
</g>
<!-- place_37caab4993715f768067bde3a516958dad5b68c4 -->
<g id="node15" class="node"><title>place_37caab4993715f768067bde3a516958dad5b68c4</title>
<ellipse fill="none" stroke="#333333" cx="896.873" cy="-177.797" rx="139.355" ry="139.355"/>
<text text-anchor="middle" x="896.873" y="-175.597" font-family="Arial" font-size="9.00">PAYER_NUMBER_CHANGE_TRANSACTION_UPDATE_SENT</text>
</g>
<!-- transition_91032ad7bbcb6cf72875e8e8207dcfba80173f7c -->
<g id="node41" class="node"><title>transition_91032ad7bbcb6cf72875e8e8207dcfba80173f7c</title>
<polygon fill="none" stroke="#333333" points="1240.3,-261.797 1072.3,-261.797 1072.3,-93.7968 1240.3,-93.7968 1240.3,-261.797"/>
<text text-anchor="middle" x="1156.3" y="-175.597" font-family="Arial" font-size="9.00">IMPORT_TRANSACTION_REMOVED</text>
</g>
<!-- place_37caab4993715f768067bde3a516958dad5b68c4&#45;&gt;transition_91032ad7bbcb6cf72875e8e8207dcfba80173f7c -->
<g id="edge41" class="edge"><title>place_37caab4993715f768067bde3a516958dad5b68c4&#45;&gt;transition_91032ad7bbcb6cf72875e8e8207dcfba80173f7c</title>
<path fill="none" stroke="#333333" d="M1036.38,-177.797C1046.72,-177.797 1056.97,-177.797 1066.87,-177.797"/>
<polygon fill="#333333" stroke="#333333" points="1067.01,-179.547 1072.01,-177.797 1067.01,-176.047 1067.01,-179.547"/>
</g>
<!-- place_4ab3919e3d5f33ebd977a1af7ba9fb5159a24b86 -->
<g id="node16" class="node"><title>place_4ab3919e3d5f33ebd977a1af7ba9fb5159a24b86</title>
<ellipse fill="none" stroke="#333333" cx="1785.17" cy="-769.797" rx="36" ry="36"/>
<text text-anchor="middle" x="1785.17" y="-767.597" font-family="Arial" font-size="9.00">REMOVED</text>
</g>
<!-- place_e6f4dd32e509fdb03fd79f1ac358ad70ffed3131 -->
<g id="node17" class="node"><title>place_e6f4dd32e509fdb03fd79f1ac358ad70ffed3131</title>
<ellipse fill="none" stroke="#333333" cx="896.873" cy="-730.797" rx="53.3786" ry="53.3786"/>
<text text-anchor="middle" x="896.873" y="-728.597" font-family="Arial" font-size="9.00">REVOCATION_SENT</text>
</g>
<!-- transition_902ba3cda1883801594b6e1b452790cc53948fda -->
<g id="node28" class="node"><title>transition_902ba3cda1883801594b6e1b452790cc53948fda</title>
<polygon fill="none" stroke="#333333" points="1229.3,-979.797 1083.3,-979.797 1083.3,-833.797 1229.3,-833.797 1229.3,-979.797"/>
<text text-anchor="middle" x="1156.3" y="-904.597" font-family="Arial" font-size="9.00">IMPORT_MANDATE_REVOKED</text>
</g>
<!-- place_e6f4dd32e509fdb03fd79f1ac358ad70ffed3131&#45;&gt;transition_902ba3cda1883801594b6e1b452790cc53948fda -->
<g id="edge15" class="edge"><title>place_e6f4dd32e509fdb03fd79f1ac358ad70ffed3131&#45;&gt;transition_902ba3cda1883801594b6e1b452790cc53948fda</title>
<path fill="none" stroke="#333333" d="M941.25,-760.454C978.799,-786.125 1033.98,-823.854 1078.91,-854.572"/>
<polygon fill="#333333" stroke="#333333" points="1078.11,-856.145 1083.23,-857.523 1080.09,-853.256 1078.11,-856.145"/>
</g>
<!-- transition_fe5dbbcea5ce7e2988b8c69bcfdfde8904aabc1f -->
<g id="node29" class="node"><title>transition_fe5dbbcea5ce7e2988b8c69bcfdfde8904aabc1f</title>
<polygon fill="none" stroke="#333333" points="1240.3,-814.797 1072.3,-814.797 1072.3,-646.797 1240.3,-646.797 1240.3,-814.797"/>
<text text-anchor="middle" x="1156.3" y="-728.597" font-family="Arial" font-size="9.00">IMPORT_TRANSACTION_REMOVED</text>
</g>
<!-- place_e6f4dd32e509fdb03fd79f1ac358ad70ffed3131&#45;&gt;transition_fe5dbbcea5ce7e2988b8c69bcfdfde8904aabc1f -->
<g id="edge17" class="edge"><title>place_e6f4dd32e509fdb03fd79f1ac358ad70ffed3131&#45;&gt;transition_fe5dbbcea5ce7e2988b8c69bcfdfde8904aabc1f</title>
<path fill="none" stroke="#333333" d="M949.967,-725.248C983.501,-724.045 1027.94,-723.745 1066.9,-724.35"/>
<polygon fill="#333333" stroke="#333333" points="1067.09,-726.103 1072.12,-724.437 1067.15,-722.604 1067.09,-726.103"/>
</g>
<!-- place_cfd92d62c5a0f95de1ff12861b9eefedca756f7b -->
<g id="node18" class="node"><title>place_cfd92d62c5a0f95de1ff12861b9eefedca756f7b</title>
<ellipse fill="none" stroke="#333333" cx="1368.74" cy="-907.797" rx="36" ry="36"/>
<text text-anchor="middle" x="1368.74" y="-905.597" font-family="Arial" font-size="9.00">REVOKED</text>
</g>
<!-- transition_0ade7c2cf97f75d009975f4d720d1fa6c19f4897 -->
<g id="node30" class="node"><title>transition_0ade7c2cf97f75d009975f4d720d1fa6c19f4897</title>
<polygon fill="none" stroke="#333333" points="1665.17,-991.797 1497.17,-991.797 1497.17,-823.797 1665.17,-823.797 1665.17,-991.797"/>
<text text-anchor="middle" x="1581.17" y="-905.597" font-family="Arial" font-size="9.00">IMPORT_TRANSACTION_REMOVED</text>
</g>
<!-- place_cfd92d62c5a0f95de1ff12861b9eefedca756f7b&#45;&gt;transition_0ade7c2cf97f75d009975f4d720d1fa6c19f4897 -->
<g id="edge19" class="edge"><title>place_cfd92d62c5a0f95de1ff12861b9eefedca756f7b&#45;&gt;transition_0ade7c2cf97f75d009975f4d720d1fa6c19f4897</title>
<path fill="none" stroke="#333333" d="M1404.48,-902.63C1428.21,-901.346 1460.78,-900.843 1491.44,-901.121"/>
<polygon fill="#333333" stroke="#333333" points="1491.72,-902.874 1496.74,-901.177 1491.76,-899.374 1491.72,-902.874"/>
</g>
<!-- transition_b1d5781111d84f7b3fe45a0852e59758cd7a87e5 -->
<g id="node31" class="node"><title>transition_b1d5781111d84f7b3fe45a0852e59758cd7a87e5</title>
<polygon fill="none" stroke="#333333" points="1617.17,-805.797 1545.17,-805.797 1545.17,-733.797 1617.17,-733.797 1617.17,-805.797"/>
<text text-anchor="middle" x="1581.17" y="-767.597" font-family="Arial" font-size="9.00">REMOVE</text>
</g>
<!-- place_cfd92d62c5a0f95de1ff12861b9eefedca756f7b&#45;&gt;transition_b1d5781111d84f7b3fe45a0852e59758cd7a87e5 -->
<g id="edge21" class="edge"><title>place_cfd92d62c5a0f95de1ff12861b9eefedca756f7b&#45;&gt;transition_b1d5781111d84f7b3fe45a0852e59758cd7a87e5</title>
<path fill="none" stroke="#333333" d="M1397.82,-885.619C1423.15,-866.031 1461.75,-837.185 1497.17,-814.797 1510.86,-806.142 1526.35,-797.463 1540.21,-790.069"/>
<polygon fill="#333333" stroke="#333333" points="1541.25,-791.501 1544.85,-787.612 1539.61,-788.409 1541.25,-791.501"/>
</g>
<!-- place_a341b9d56a2c3bfd653b2d5b01bddd97b7946ca1 -->
<g id="node19" class="node"><title>place_a341b9d56a2c3bfd653b2d5b01bddd97b7946ca1</title>
<ellipse fill="none" stroke="#333333" cx="2542.07" cy="-180.797" rx="92.3705" ry="92.3705"/>
<text text-anchor="middle" x="2542.07" y="-178.597" font-family="Arial" font-size="9.00">TRANSACTION_REGISTRATION_SENT</text>
</g>
<!-- transition_1b6453892473a467d07372d45eb05abc2031647a -->
<g id="node25" class="node"><title>transition_1b6453892473a467d07372d45eb05abc2031647a</title>
<polygon fill="none" stroke="#333333" points="2825.5,-168.297 2670.5,-168.297 2670.5,-13.2968 2825.5,-13.2968 2825.5,-168.297"/>
<text text-anchor="middle" x="2748" y="-88.5968" font-family="Arial" font-size="9.00">IMPORT_TRANSACTION_ACTIVE</text>
</g>
<!-- place_a341b9d56a2c3bfd653b2d5b01bddd97b7946ca1&#45;&gt;transition_1b6453892473a467d07372d45eb05abc2031647a -->
<g id="edge9" class="edge"><title>place_a341b9d56a2c3bfd653b2d5b01bddd97b7946ca1&#45;&gt;transition_1b6453892473a467d07372d45eb05abc2031647a</title>
<path fill="none" stroke="#333333" d="M2626.9,-143.801C2639.71,-138.144 2652.93,-132.313 2665.69,-126.681"/>
<polygon fill="#333333" stroke="#333333" points="2666.5,-128.236 2670.37,-124.616 2665.09,-125.034 2666.5,-128.236"/>
</g>
<!-- place_dc5c141b4b017ab2c3c93372cd73211e591b3dea -->
<g id="node20" class="node"><title>place_dc5c141b4b017ab2c3c93372cd73211e591b3dea</title>
<ellipse fill="none" stroke="#333333" cx="896.873" cy="-416.797" rx="76.8866" ry="76.8866"/>
<text text-anchor="middle" x="896.873" y="-414.597" font-family="Arial" font-size="9.00">TRANSACTION_UPDATE_SENT</text>
</g>
<!-- transition_0716d9708d321ffb6a00818614779e779925365c -->
<g id="node38" class="node"><title>transition_0716d9708d321ffb6a00818614779e779925365c</title>
<polygon fill="none" stroke="#333333" points="1869.17,-446.797 1701.17,-446.797 1701.17,-278.797 1869.17,-278.797 1869.17,-446.797"/>
<text text-anchor="middle" x="1785.17" y="-360.597" font-family="Arial" font-size="9.00">IMPORT_TRANSACTION_REMOVED</text>
</g>
<!-- place_dc5c141b4b017ab2c3c93372cd73211e591b3dea&#45;&gt;transition_0716d9708d321ffb6a00818614779e779925365c -->
<g id="edge35" class="edge"><title>place_dc5c141b4b017ab2c3c93372cd73211e591b3dea&#45;&gt;transition_0716d9708d321ffb6a00818614779e779925365c</title>
<path fill="none" stroke="#333333" d="M973.821,-412.169C1137.29,-402.21 1521.73,-378.786 1695.79,-368.182"/>
<polygon fill="#333333" stroke="#333333" points="1695.99,-369.922 1700.88,-367.872 1695.78,-366.429 1695.99,-369.922"/>
</g>
<!-- transition_b6589fc6ab0dc82cf12099d1c2d40ab994e8410c&#45;&gt;place_d2b9cb7f8fd77caeaa93cb6ecf9a2c6c01a8aa39 -->
<g id="edge2" class="edge"><title>transition_b6589fc6ab0dc82cf12099d1c2d40ab994e8410c&#45;&gt;place_d2b9cb7f8fd77caeaa93cb6ecf9a2c6c01a8aa39</title>
<path fill="none" stroke="#333333" d="M1617.36,-664.12C1651.11,-649.082 1702.23,-626.306 1738.98,-609.932"/>
<polygon fill="#333333" stroke="#333333" points="1739.98,-611.4 1743.84,-607.766 1738.56,-608.203 1739.98,-611.4"/>
</g>
<!-- transition_356a192b7913b04c54574d18c28d46e6395428ab&#45;&gt;place_d2b9cb7f8fd77caeaa93cb6ecf9a2c6c01a8aa39 -->
<g id="edge4" class="edge"><title>transition_356a192b7913b04c54574d18c28d46e6395428ab&#45;&gt;place_d2b9cb7f8fd77caeaa93cb6ecf9a2c6c01a8aa39</title>
<path fill="none" stroke="#333333" d="M1617.36,-589.797C1649.89,-589.797 1698.57,-589.797 1734.95,-589.797"/>
<polygon fill="#333333" stroke="#333333" points="1735.23,-591.547 1740.23,-589.797 1735.23,-588.047 1735.23,-591.547"/>
</g>
<!-- transition_da4b9237bacccdf19c0760cab7aec4a8359010b0&#45;&gt;place_9804773f9a8846d1ea1d0cde5eb01d893b382682 -->
<g id="edge6" class="edge"><title>transition_da4b9237bacccdf19c0760cab7aec4a8359010b0&#45;&gt;place_9804773f9a8846d1ea1d0cde5eb01d893b382682</title>
<path fill="none" stroke="#333333" d="M2063.82,-508.163C2085.14,-485.874 2108.23,-461.75 2129.34,-439.68"/>
<polygon fill="#333333" stroke="#333333" points="2130.79,-440.694 2132.99,-435.871 2128.26,-438.274 2130.79,-440.694"/>
</g>
<!-- transition_77de68daecd823babbb58edb1c8e14d7106e83bb&#45;&gt;place_a341b9d56a2c3bfd653b2d5b01bddd97b7946ca1 -->
<g id="edge8" class="edge"><title>transition_77de68daecd823babbb58edb1c8e14d7106e83bb&#45;&gt;place_a341b9d56a2c3bfd653b2d5b01bddd97b7946ca1</title>
<path fill="none" stroke="#333333" d="M2413.88,-275.542C2428.41,-264.713 2445.88,-251.701 2463.15,-238.839"/>
<polygon fill="#333333" stroke="#333333" points="2464.57,-239.963 2467.53,-235.573 2462.48,-237.157 2464.57,-239.963"/>
</g>
<!-- transition_1b6453892473a467d07372d45eb05abc2031647a&#45;&gt;place_c72633f673ef54769f56bbaf78d2baf4858bf7c3 -->
<g id="edge10" class="edge"><title>transition_1b6453892473a467d07372d45eb05abc2031647a&#45;&gt;place_c72633f673ef54769f56bbaf78d2baf4858bf7c3</title>
<path fill="none" stroke="#333333" d="M2670.36,-60.703C2596.76,-34.5393 2481.83,-0.796803 2378.63,-0.796803 463.723,-0.796803 463.723,-0.796803 463.723,-0.796803 297.292,-0.796803 212.233,11.952 108,-117.797 74.4747,-159.529 51.2785,-314.935 41.7917,-389.872"/>
<polygon fill="#333333" stroke="#333333" points="40.0187,-389.947 41.1324,-395.126 43.4915,-390.383 40.0187,-389.947"/>
</g>
<!-- transition_ac3478d69a3c81fa62e60f5c3696165a4e5e6ac4&#45;&gt;place_9031bdf59fef50c79366e1e807bcd3165f1b86da -->
<g id="edge12" class="edge"><title>transition_ac3478d69a3c81fa62e60f5c3696165a4e5e6ac4&#45;&gt;place_9031bdf59fef50c79366e1e807bcd3165f1b86da</title>
<path fill="none" stroke="#333333" d="M250.679,-715.004C293.163,-715.162 351.851,-715.38 396.874,-715.548"/>
<polygon fill="#333333" stroke="#333333" points="397.01,-717.298 402.017,-715.567 397.023,-713.798 397.01,-717.298"/>
</g>
<!-- transition_c1dfd96eea8cc2b62785275bca38ac261256e278&#45;&gt;place_e6f4dd32e509fdb03fd79f1ac358ad70ffed3131 -->
<g id="edge14" class="edge"><title>transition_c1dfd96eea8cc2b62785275bca38ac261256e278&#45;&gt;place_e6f4dd32e509fdb03fd79f1ac358ad70ffed3131</title>
<path fill="none" stroke="#333333" d="M721.499,-722.471C753.24,-723.986 800.611,-726.248 837.971,-728.032"/>
<polygon fill="#333333" stroke="#333333" points="838.329,-729.801 843.407,-728.292 838.496,-726.305 838.329,-729.801"/>
</g>
<!-- transition_902ba3cda1883801594b6e1b452790cc53948fda&#45;&gt;place_cfd92d62c5a0f95de1ff12861b9eefedca756f7b -->
<g id="edge16" class="edge"><title>transition_902ba3cda1883801594b6e1b452790cc53948fda&#45;&gt;place_cfd92d62c5a0f95de1ff12861b9eefedca756f7b</title>
<path fill="none" stroke="#333333" d="M1229.43,-907.14C1262.24,-907.295 1299.84,-907.474 1327.55,-907.606"/>
<polygon fill="#333333" stroke="#333333" points="1327.59,-909.356 1332.6,-907.63 1327.61,-905.856 1327.59,-909.356"/>
</g>
<!-- transition_fe5dbbcea5ce7e2988b8c69bcfdfde8904aabc1f&#45;&gt;place_e6f4dd32e509fdb03fd79f1ac358ad70ffed3131 -->
<g id="edge18" class="edge"><title>transition_fe5dbbcea5ce7e2988b8c69bcfdfde8904aabc1f&#45;&gt;place_e6f4dd32e509fdb03fd79f1ac358ad70ffed3131</title>
<path fill="none" stroke="#333333" d="M1072.12,-737.157C1033.84,-737.84 989.393,-737.626 954.971,-736.516"/>
<polygon fill="#333333" stroke="#333333" points="955.023,-734.767 949.967,-736.345 954.904,-738.265 955.023,-734.767"/>
</g>
<!-- transition_0ade7c2cf97f75d009975f4d720d1fa6c19f4897&#45;&gt;place_cfd92d62c5a0f95de1ff12861b9eefedca756f7b -->
<g id="edge20" class="edge"><title>transition_0ade7c2cf97f75d009975f4d720d1fa6c19f4897&#45;&gt;place_cfd92d62c5a0f95de1ff12861b9eefedca756f7b</title>
<path fill="none" stroke="#333333" d="M1496.74,-914.416C1466.72,-914.78 1434.22,-914.382 1409.61,-913.222"/>
<polygon fill="#333333" stroke="#333333" points="1409.57,-911.468 1404.48,-912.963 1409.39,-914.963 1409.57,-911.468"/>
</g>
<!-- transition_b1d5781111d84f7b3fe45a0852e59758cd7a87e5&#45;&gt;place_4ab3919e3d5f33ebd977a1af7ba9fb5159a24b86 -->
<g id="edge22" class="edge"><title>transition_b1d5781111d84f7b3fe45a0852e59758cd7a87e5&#45;&gt;place_4ab3919e3d5f33ebd977a1af7ba9fb5159a24b86</title>
<path fill="none" stroke="#333333" d="M1617.36,-769.797C1652.59,-769.797 1706.74,-769.797 1743.72,-769.797"/>
<polygon fill="#333333" stroke="#333333" points="1744.05,-771.547 1749.05,-769.797 1744.05,-768.047 1744.05,-771.547"/>
</g>
<!-- transition_17ba0791499db908433b80f37c5fbc89b870084b&#45;&gt;place_e6055c5a6ee8feda91cdd5be510d21cec274b4c8 -->
<g id="edge24" class="edge"><title>transition_17ba0791499db908433b80f37c5fbc89b870084b&#45;&gt;place_e6055c5a6ee8feda91cdd5be510d21cec274b4c8</title>
<path fill="none" stroke="#333333" d="M237.284,-577.741C284.297,-578.791 360.289,-580.487 411.11,-581.622"/>
<polygon fill="#333333" stroke="#333333" points="411.217,-583.375 416.255,-581.737 411.295,-579.876 411.217,-583.375"/>
</g>
<!-- transition_7b52009b64fd0a2a49e6d8a939753077792b0554&#45;&gt;place_ead9028928ebb77be9947a639f024bb8b67c643a -->
<g id="edge26" class="edge"><title>transition_7b52009b64fd0a2a49e6d8a939753077792b0554&#45;&gt;place_ead9028928ebb77be9947a639f024bb8b67c643a</title>
<path fill="none" stroke="#333333" d="M721.499,-570.29C757.605,-568.739 813.934,-566.318 852.748,-564.65"/>
<polygon fill="#333333" stroke="#333333" points="852.947,-566.393 857.867,-564.43 852.797,-562.896 852.947,-566.393"/>
</g>
<!-- transition_bd307a3ec329e10a2cff8fb87480823da114f8f4&#45;&gt;place_cd5d07c90b5c8a0724fc18d8b9c909271052f2b5 -->
<g id="edge28" class="edge"><title>transition_bd307a3ec329e10a2cff8fb87480823da114f8f4&#45;&gt;place_cd5d07c90b5c8a0724fc18d8b9c909271052f2b5</title>
<path fill="none" stroke="#333333" d="M1240.47,-495.359C1270.61,-490.49 1303.27,-485.212 1327.96,-481.223"/>
<polygon fill="#333333" stroke="#333333" points="1328.45,-482.917 1333.11,-480.392 1327.89,-479.462 1328.45,-482.917"/>
</g>
<!-- transition_fa35e192121eabf3dabf9f5ea6abdbcbc107ac3b&#45;&gt;place_9804773f9a8846d1ea1d0cde5eb01d893b382682 -->
<g id="edge30" class="edge"><title>transition_fa35e192121eabf3dabf9f5ea6abdbcbc107ac3b&#45;&gt;place_9804773f9a8846d1ea1d0cde5eb01d893b382682</title>
<path fill="none" stroke="#333333" d="M2034.39,-423.583C2054.68,-416.264 2079.14,-407.439 2103.07,-398.81"/>
<polygon fill="#333333" stroke="#333333" points="2103.73,-400.43 2107.84,-397.087 2102.54,-397.138 2103.73,-400.43"/>
</g>
<!-- transition_f1abd670358e036c31296e66b3b66c382ac00812&#45;&gt;place_a6d4df81ef896e3dae9187ed1a718a5abde20bcf -->
<g id="edge32" class="edge"><title>transition_f1abd670358e036c31296e66b3b66c382ac00812&#45;&gt;place_a6d4df81ef896e3dae9187ed1a718a5abde20bcf</title>
<path fill="none" stroke="#333333" d="M274.172,-430.797C305.18,-430.797 340.934,-430.797 372.976,-430.797"/>
<polygon fill="#333333" stroke="#333333" points="373.085,-432.547 378.085,-430.797 373.085,-429.047 373.085,-432.547"/>
</g>
<!-- transition_1574bddb75c78a6fd2251d61e2993b5146201319&#45;&gt;place_dc5c141b4b017ab2c3c93372cd73211e591b3dea -->
<g id="edge34" class="edge"><title>transition_1574bddb75c78a6fd2251d61e2993b5146201319&#45;&gt;place_dc5c141b4b017ab2c3c93372cd73211e591b3dea</title>
<path fill="none" stroke="#333333" d="M721.499,-424.29C746.92,-423.198 782.367,-421.675 814.668,-420.287"/>
<polygon fill="#333333" stroke="#333333" points="814.902,-422.028 819.822,-420.065 814.752,-418.531 814.902,-422.028"/>
</g>
<!-- transition_0716d9708d321ffb6a00818614779e779925365c&#45;&gt;place_9804773f9a8846d1ea1d0cde5eb01d893b382682 -->
<g id="edge36" class="edge"><title>transition_0716d9708d321ffb6a00818614779e779925365c&#45;&gt;place_9804773f9a8846d1ea1d0cde5eb01d893b382682</title>
<path fill="none" stroke="#333333" d="M1869.5,-362.797C1934.91,-362.797 2026.41,-362.797 2097.01,-362.797"/>
<polygon fill="#333333" stroke="#333333" points="2097.06,-364.547 2102.06,-362.797 2097.06,-361.047 2097.06,-364.547"/>
</g>
<!-- transition_9e6a55b6b4563e652a23be9d623ca5055c356940&#45;&gt;place_664643489a68e9127ca5f29045b98aea46b3fffd -->
<g id="edge38" class="edge"><title>transition_9e6a55b6b4563e652a23be9d623ca5055c356940&#45;&gt;place_664643489a68e9127ca5f29045b98aea46b3fffd</title>
<path fill="none" stroke="#333333" d="M280.025,-201.723C290.293,-200.385 301.007,-198.99 311.876,-197.574"/>
<polygon fill="#333333" stroke="#333333" points="312.147,-199.304 316.879,-196.923 311.695,-195.833 312.147,-199.304"/>
</g>
<!-- transition_b3f0c7f6bb763af1be91d9e74eabfeb199dc1f1f&#45;&gt;place_37caab4993715f768067bde3a516958dad5b68c4 -->
<g id="edge40" class="edge"><title>transition_b3f0c7f6bb763af1be91d9e74eabfeb199dc1f1f&#45;&gt;place_37caab4993715f768067bde3a516958dad5b68c4</title>
<path fill="none" stroke="#333333" d="M721.499,-177.797C730.587,-177.797 740.956,-177.797 752.004,-177.797"/>
<polygon fill="#333333" stroke="#333333" points="752.126,-179.547 757.126,-177.797 752.126,-176.047 752.126,-179.547"/>
</g>
<!-- transition_91032ad7bbcb6cf72875e8e8207dcfba80173f7c&#45;&gt;place_603ac2dac5e51a400b34e54cd8c3863177d9c01b -->
<g id="edge42" class="edge"><title>transition_91032ad7bbcb6cf72875e8e8207dcfba80173f7c&#45;&gt;place_603ac2dac5e51a400b34e54cd8c3863177d9c01b</title>
<path fill="none" stroke="#333333" d="M1240.47,-177.797C1250.54,-177.797 1260.89,-177.797 1271.13,-177.797"/>
<polygon fill="#333333" stroke="#333333" points="1271.15,-179.547 1276.15,-177.797 1271.15,-176.047 1271.15,-179.547"/>
</g>
<!-- transition_472b07b9fcf2c2451e8781e944bf5f77cd8457c8&#45;&gt;place_1d873f095061223ff3e5aa2923f8eed67b6a60f3 -->
<g id="edge44" class="edge"><title>transition_472b07b9fcf2c2451e8781e944bf5f77cd8457c8&#45;&gt;place_1d873f095061223ff3e5aa2923f8eed67b6a60f3</title>
<path fill="none" stroke="#333333" d="M1617.36,-177.797C1639.38,-177.797 1668.81,-177.797 1696.81,-177.797"/>
<polygon fill="#333333" stroke="#333333" points="1697.02,-179.547 1702.02,-177.797 1697.02,-176.047 1697.02,-179.547"/>
</g>
<!-- transition_12c6fc06c99a462375eeb3f43dfd832b08ca9e17&#45;&gt;place_9804773f9a8846d1ea1d0cde5eb01d893b382682 -->
<g id="edge46" class="edge"><title>transition_12c6fc06c99a462375eeb3f43dfd832b08ca9e17&#45;&gt;place_9804773f9a8846d1ea1d0cde5eb01d893b382682</title>
<path fill="none" stroke="#333333" d="M2066.27,-269.908C2082.01,-280.608 2098.61,-291.9 2114.62,-302.782"/>
<polygon fill="#333333" stroke="#333333" points="2114,-304.476 2119.12,-305.84 2115.97,-301.582 2114,-304.476"/>
</g>
</g>
</svg>
