<?xml version="1.0" encoding="UTF-8" standalone="no"?>
<!DOCTYPE svg PUBLIC "-//W3C//DTD SVG 1.1//EN"
 "http://www.w3.org/Graphics/SVG/1.1/DTD/svg11.dtd">
<!-- Generated by graphviz version 2.38.0 (20140413.2041)
 -->
<!-- Title: workflow Pages: 1 -->
<svg width="2083pt" height="707pt"
 viewBox="0.00 0.00 2082.81 706.50" xmlns="http://www.w3.org/2000/svg" xmlns:xlink="http://www.w3.org/1999/xlink">
<g id="graph0" class="graph" transform="scale(1 1) rotate(0) translate(4 702.5)">
<title>workflow</title>
<polygon fill="white" stroke="none" points="-4,4 -4,-702.5 2078.81,-702.5 2078.81,4 -4,4"/>
<!-- place_c72633f673ef54769f56bbaf78d2baf4858bf7c3 -->
<g id="node1" class="node"><title>place_c72633f673ef54769f56bbaf78d2baf4858bf7c3</title>
<ellipse fill="lightblue" stroke="#333333" cx="36" cy="-367" rx="36" ry="36"/>
<text text-anchor="middle" x="36" y="-364.8" font-family="Arial" font-size="9.00">ACTIVE</text>
</g>
<!-- transition_ac3478d69a3c81fa62e60f5c3696165a4e5e6ac4 -->
<g id="node22" class="node"><title>transition_ac3478d69a3c81fa62e60f5c3696165a4e5e6ac4</title>
<polygon fill="none" stroke="#333333" points="261,-666 115,-666 115,-520 261,-520 261,-666"/>
<text text-anchor="middle" x="188" y="-590.8" font-family="Arial" font-size="9.00">MARK_TRANSACTION_ACTIVE</text>
</g>
<!-- place_c72633f673ef54769f56bbaf78d2baf4858bf7c3&#45;&gt;transition_ac3478d69a3c81fa62e60f5c3696165a4e5e6ac4 -->
<g id="edge11" class="edge"><title>place_c72633f673ef54769f56bbaf78d2baf4858bf7c3&#45;&gt;transition_ac3478d69a3c81fa62e60f5c3696165a4e5e6ac4</title>
<path fill="none" stroke="#333333" d="M63.8522,-390.182C66.8009,-394.319 69.5991,-398.673 72,-403 94.512,-443.575 83.4948,-461.597 108,-501 111.119,-506.015 114.577,-510.983 118.253,-515.862"/>
<polygon fill="#333333" stroke="#333333" points="116.954,-517.043 121.39,-519.938 119.728,-514.908 116.954,-517.043"/>
</g>
<!-- transition_c1dfd96eea8cc2b62785275bca38ac261256e278 -->
<g id="node23" class="node"><title>transition_c1dfd96eea8cc2b62785275bca38ac261256e278</title>
<polygon fill="none" stroke="#333333" points="244.5,-501.5 131.5,-501.5 131.5,-388.5 244.5,-388.5 244.5,-501.5"/>
<text text-anchor="middle" x="188" y="-442.8" font-family="Arial" font-size="9.00">INITIATE_REVOCATION</text>
</g>
<!-- place_c72633f673ef54769f56bbaf78d2baf4858bf7c3&#45;&gt;transition_c1dfd96eea8cc2b62785275bca38ac261256e278 -->
<g id="edge13" class="edge"><title>place_c72633f673ef54769f56bbaf78d2baf4858bf7c3&#45;&gt;transition_c1dfd96eea8cc2b62785275bca38ac261256e278</title>
<path fill="none" stroke="#333333" d="M68.4449,-383.351C85.3768,-392.156 106.841,-403.317 126.839,-413.716"/>
<polygon fill="#333333" stroke="#333333" points="126.105,-415.307 131.349,-416.061 127.72,-412.202 126.105,-415.307"/>
</g>
<!-- transition_b1d5781111d84f7b3fe45a0852e59758cd7a87e5 -->
<g id="node27" class="node"><title>transition_b1d5781111d84f7b3fe45a0852e59758cd7a87e5</title>
<polygon fill="none" stroke="#333333" points="231,-187 145,-187 145,-101 231,-101 231,-187"/>
<text text-anchor="middle" x="188" y="-141.8" font-family="Arial" font-size="9.00">INITIATE_PAUSE</text>
</g>
<!-- place_c72633f673ef54769f56bbaf78d2baf4858bf7c3&#45;&gt;transition_b1d5781111d84f7b3fe45a0852e59758cd7a87e5 -->
<g id="edge21" class="edge"><title>place_c72633f673ef54769f56bbaf78d2baf4858bf7c3&#45;&gt;transition_b1d5781111d84f7b3fe45a0852e59758cd7a87e5</title>
<path fill="none" stroke="#333333" d="M45.8539,-332.328C56.266,-296.589 76.2698,-240.644 108,-201 117.036,-189.71 128.848,-179.604 140.574,-171.149"/>
<polygon fill="#333333" stroke="#333333" points="141.807,-172.422 144.885,-168.11 139.79,-169.561 141.807,-172.422"/>
</g>
<!-- transition_fa35e192121eabf3dabf9f5ea6abdbcbc107ac3b -->
<g id="node31" class="node"><title>transition_fa35e192121eabf3dabf9f5ea6abdbcbc107ac3b</title>
<polygon fill="none" stroke="#333333" points="268,-370 108,-370 108,-210 268,-210 268,-370"/>
<text text-anchor="middle" x="188" y="-287.8" font-family="Arial" font-size="9.00">INITIATE_TRANSACTION_UPDATE</text>
</g>
<!-- place_c72633f673ef54769f56bbaf78d2baf4858bf7c3&#45;&gt;transition_fa35e192121eabf3dabf9f5ea6abdbcbc107ac3b -->
<g id="edge29" class="edge"><title>place_c72633f673ef54769f56bbaf78d2baf4858bf7c3&#45;&gt;transition_fa35e192121eabf3dabf9f5ea6abdbcbc107ac3b</title>
<path fill="none" stroke="#333333" d="M68.4449,-350.858C78.8505,-345.517 90.9678,-339.297 103.405,-332.912"/>
<polygon fill="#333333" stroke="#333333" points="104.35,-334.394 107.999,-330.554 102.751,-331.281 104.35,-334.394"/>
</g>
<!-- place_e6055c5a6ee8feda91cdd5be510d21cec274b4c8 -->
<g id="node2" class="node"><title>place_e6055c5a6ee8feda91cdd5be510d21cec274b4c8</title>
<ellipse fill="none" stroke="#333333" cx="390.238" cy="-122" rx="48.05" ry="48.05"/>
<text text-anchor="middle" x="390.238" y="-119.8" font-family="Arial" font-size="9.00">AWAITING_PAUSE</text>
</g>
<!-- transition_17ba0791499db908433b80f37c5fbc89b870084b -->
<g id="node28" class="node"><title>transition_17ba0791499db908433b80f37c5fbc89b870084b</title>
<polygon fill="none" stroke="#333333" points="584.477,-156 512.477,-156 512.477,-84 584.477,-84 584.477,-156"/>
<text text-anchor="middle" x="548.477" y="-117.8" font-family="Arial" font-size="9.00">EXPORT</text>
</g>
<!-- place_e6055c5a6ee8feda91cdd5be510d21cec274b4c8&#45;&gt;transition_17ba0791499db908433b80f37c5fbc89b870084b -->
<g id="edge23" class="edge"><title>place_e6055c5a6ee8feda91cdd5be510d21cec274b4c8&#45;&gt;transition_17ba0791499db908433b80f37c5fbc89b870084b</title>
<path fill="none" stroke="#333333" d="M438.539,-121.395C460.398,-121.115 486.09,-120.786 507.033,-120.518"/>
<polygon fill="#333333" stroke="#333333" points="507.272,-122.265 512.25,-120.451 507.228,-118.765 507.272,-122.265"/>
</g>
<!-- place_9031bdf59fef50c79366e1e807bcd3165f1b86da -->
<g id="node3" class="node"><title>place_9031bdf59fef50c79366e1e807bcd3165f1b86da</title>
<ellipse fill="none" stroke="#333333" cx="390.238" cy="-498" rx="62.4683" ry="62.4683"/>
<text text-anchor="middle" x="390.238" y="-495.8" font-family="Arial" font-size="9.00">AWAITING_REVOCATION</text>
</g>
<!-- transition_902ba3cda1883801594b6e1b452790cc53948fda -->
<g id="node24" class="node"><title>transition_902ba3cda1883801594b6e1b452790cc53948fda</title>
<polygon fill="none" stroke="#333333" points="584.477,-544 512.477,-544 512.477,-472 584.477,-472 584.477,-544"/>
<text text-anchor="middle" x="548.477" y="-505.8" font-family="Arial" font-size="9.00">EXPORT</text>
</g>
<!-- place_9031bdf59fef50c79366e1e807bcd3165f1b86da&#45;&gt;transition_902ba3cda1883801594b6e1b452790cc53948fda -->
<g id="edge15" class="edge"><title>place_9031bdf59fef50c79366e1e807bcd3165f1b86da&#45;&gt;transition_902ba3cda1883801594b6e1b452790cc53948fda</title>
<path fill="none" stroke="#333333" d="M452.988,-501.952C471.231,-503.12 490.72,-504.367 507.232,-505.424"/>
<polygon fill="#333333" stroke="#333333" points="507.154,-507.173 512.256,-505.746 507.378,-503.68 507.154,-507.173"/>
</g>
<!-- place_9804773f9a8846d1ea1d0cde5eb01d893b382682 -->
<g id="node4" class="node"><title>place_9804773f9a8846d1ea1d0cde5eb01d893b382682</title>
<ellipse fill="none" stroke="#333333" cx="1462.21" cy="-195" rx="101.961" ry="101.961"/>
<text text-anchor="middle" x="1462.21" y="-192.8" font-family="Arial" font-size="9.00">AWAITING_TRANSACTION_REGISTRATION</text>
</g>
<!-- transition_77de68daecd823babbb58edb1c8e14d7106e83bb -->
<g id="node20" class="node"><title>transition_77de68daecd823babbb58edb1c8e14d7106e83bb</title>
<polygon fill="none" stroke="#333333" points="1671.94,-213 1599.94,-213 1599.94,-141 1671.94,-141 1671.94,-213"/>
<text text-anchor="middle" x="1635.94" y="-174.8" font-family="Arial" font-size="9.00">EXPORT</text>
</g>
<!-- place_9804773f9a8846d1ea1d0cde5eb01d893b382682&#45;&gt;transition_77de68daecd823babbb58edb1c8e14d7106e83bb -->
<g id="edge7" class="edge"><title>place_9804773f9a8846d1ea1d0cde5eb01d893b382682&#45;&gt;transition_77de68daecd823babbb58edb1c8e14d7106e83bb</title>
<path fill="none" stroke="#333333" d="M1563.6,-184.477C1574.5,-183.335 1585.08,-182.226 1594.61,-181.228"/>
<polygon fill="#333333" stroke="#333333" points="1594.99,-182.946 1599.79,-180.685 1594.63,-179.465 1594.99,-182.946"/>
</g>
<!-- place_a6d4df81ef896e3dae9187ed1a718a5abde20bcf -->
<g id="node5" class="node"><title>place_a6d4df81ef896e3dae9187ed1a718a5abde20bcf</title>
<ellipse fill="none" stroke="#333333" cx="390.238" cy="-312" rx="86.4775" ry="86.4775"/>
<text text-anchor="middle" x="390.238" y="-309.8" font-family="Arial" font-size="9.00">AWAITING_TRANSACTION_UPDATE</text>
</g>
<!-- transition_f1abd670358e036c31296e66b3b66c382ac00812 -->
<g id="node32" class="node"><title>transition_f1abd670358e036c31296e66b3b66c382ac00812</title>
<polygon fill="none" stroke="#333333" points="584.477,-401 512.477,-401 512.477,-329 584.477,-329 584.477,-401"/>
<text text-anchor="middle" x="548.477" y="-362.8" font-family="Arial" font-size="9.00">EXPORT</text>
</g>
<!-- place_a6d4df81ef896e3dae9187ed1a718a5abde20bcf&#45;&gt;transition_f1abd670358e036c31296e66b3b66c382ac00812 -->
<g id="edge31" class="edge"><title>place_a6d4df81ef896e3dae9187ed1a718a5abde20bcf&#45;&gt;transition_f1abd670358e036c31296e66b3b66c382ac00812</title>
<path fill="none" stroke="#333333" d="M472.104,-339.431C484.372,-343.593 496.55,-347.724 507.425,-351.413"/>
<polygon fill="#333333" stroke="#333333" points="507.028,-353.127 512.326,-353.076 508.153,-349.812 507.028,-353.127"/>
</g>
<!-- place_0b99cebe565822c64ac5d84aecb00fe40e59cbd3 -->
<g id="node6" class="node"><title>place_0b99cebe565822c64ac5d84aecb00fe40e59cbd3</title>
<ellipse fill="none" stroke="#333333" cx="36" cy="-457" rx="36" ry="36"/>
<text text-anchor="middle" x="36" y="-454.8" font-family="Arial" font-size="9.00">ERROR</text>
</g>
<!-- place_d2b9cb7f8fd77caeaa93cb6ecf9a2c6c01a8aa39 -->
<g id="node7" class="node"><title>place_d2b9cb7f8fd77caeaa93cb6ecf9a2c6c01a8aa39</title>
<ellipse fill="none" stroke="#333333" cx="1056.98" cy="-255" rx="44.8533" ry="44.8533"/>
<text text-anchor="middle" x="1056.98" y="-252.8" font-family="Arial" font-size="9.00">MANDATE_SENT</text>
</g>
<!-- transition_da4b9237bacccdf19c0760cab7aec4a8359010b0 -->
<g id="node19" class="node"><title>transition_da4b9237bacccdf19c0760cab7aec4a8359010b0</title>
<polygon fill="none" stroke="#333333" points="1324.48,-331 1172.48,-331 1172.48,-179 1324.48,-179 1324.48,-331"/>
<text text-anchor="middle" x="1248.48" y="-252.8" font-family="Arial" font-size="9.00">MARK_MANDATE_REGISTERED</text>
</g>
<!-- place_d2b9cb7f8fd77caeaa93cb6ecf9a2c6c01a8aa39&#45;&gt;transition_da4b9237bacccdf19c0760cab7aec4a8359010b0 -->
<g id="edge5" class="edge"><title>place_d2b9cb7f8fd77caeaa93cb6ecf9a2c6c01a8aa39&#45;&gt;transition_da4b9237bacccdf19c0760cab7aec4a8359010b0</title>
<path fill="none" stroke="#333333" d="M1101.93,-255C1121.34,-255 1144.8,-255 1167.16,-255"/>
<polygon fill="#333333" stroke="#333333" points="1167.21,-256.75 1172.21,-255 1167.21,-253.25 1167.21,-256.75"/>
</g>
<!-- place_e1b6adc61c1e09203349001f5eeaf8573afcf571 -->
<g id="node8" class="node"><title>place_e1b6adc61c1e09203349001f5eeaf8573afcf571</title>
<ellipse fill="none" stroke="#333333" cx="683.477" cy="-242" rx="63.0011" ry="63.0011"/>
<text text-anchor="middle" x="683.477" y="-239.8" font-family="Arial" font-size="9.00">NEW_DIGITAL_MANDATE</text>
</g>
<!-- transition_356a192b7913b04c54574d18c28d46e6395428ab -->
<g id="node18" class="node"><title>transition_356a192b7913b04c54574d18c28d46e6395428ab</title>
<polygon fill="none" stroke="#333333" points="897.978,-282 825.978,-282 825.978,-210 897.978,-210 897.978,-282"/>
<text text-anchor="middle" x="861.978" y="-243.8" font-family="Arial" font-size="9.00">EXPORT</text>
</g>
<!-- place_e1b6adc61c1e09203349001f5eeaf8573afcf571&#45;&gt;transition_356a192b7913b04c54574d18c28d46e6395428ab -->
<g id="edge3" class="edge"><title>place_e1b6adc61c1e09203349001f5eeaf8573afcf571&#45;&gt;transition_356a192b7913b04c54574d18c28d46e6395428ab</title>
<path fill="none" stroke="#333333" d="M746.705,-243.41C771.238,-243.966 798.717,-244.589 820.58,-245.084"/>
<polygon fill="#333333" stroke="#333333" points="820.687,-246.837 825.725,-245.201 820.766,-243.338 820.687,-246.837"/>
</g>
<!-- place_818af3c4262f96a99ab981900e5a0e1c415b44df -->
<g id="node9" class="node"><title>place_818af3c4262f96a99ab981900e5a0e1c415b44df</title>
<ellipse fill="none" stroke="#333333" cx="683.477" cy="-366" rx="43.2552" ry="43.2552"/>
<text text-anchor="middle" x="683.477" y="-363.8" font-family="Arial" font-size="9.00">NEW_MANDATE</text>
</g>
<!-- transition_b6589fc6ab0dc82cf12099d1c2d40ab994e8410c -->
<g id="node17" class="node"><title>transition_b6589fc6ab0dc82cf12099d1c2d40ab994e8410c</title>
<polygon fill="none" stroke="#333333" points="897.978,-372 825.978,-372 825.978,-300 897.978,-300 897.978,-372"/>
<text text-anchor="middle" x="861.978" y="-333.8" font-family="Arial" font-size="9.00">EXPORT</text>
</g>
<!-- place_818af3c4262f96a99ab981900e5a0e1c415b44df&#45;&gt;transition_b6589fc6ab0dc82cf12099d1c2d40ab994e8410c -->
<g id="edge1" class="edge"><title>place_818af3c4262f96a99ab981900e5a0e1c415b44df&#45;&gt;transition_b6589fc6ab0dc82cf12099d1c2d40ab994e8410c</title>
<path fill="none" stroke="#333333" d="M726.306,-358.89C754.808,-354.046 792.342,-347.666 820.543,-342.873"/>
<polygon fill="#333333" stroke="#333333" points="821.06,-344.56 825.696,-341.997 820.474,-341.11 821.06,-344.56"/>
</g>
<!-- place_ead9028928ebb77be9947a639f024bb8b67c643a -->
<g id="node10" class="node"><title>place_ead9028928ebb77be9947a639f024bb8b67c643a</title>
<ellipse fill="none" stroke="#333333" cx="683.477" cy="-115" rx="38.961" ry="38.961"/>
<text text-anchor="middle" x="683.477" y="-112.8" font-family="Arial" font-size="9.00">PAUSE_SENT</text>
</g>
<!-- transition_7b52009b64fd0a2a49e6d8a939753077792b0554 -->
<g id="node29" class="node"><title>transition_7b52009b64fd0a2a49e6d8a939753077792b0554</title>
<polygon fill="none" stroke="#333333" points="941.478,-191.5 782.478,-191.5 782.478,-32.5 941.478,-32.5 941.478,-191.5"/>
<text text-anchor="middle" x="861.978" y="-109.8" font-family="Arial" font-size="9.00">MARK_TRANSACTION_REMOVED</text>
</g>
<!-- place_ead9028928ebb77be9947a639f024bb8b67c643a&#45;&gt;transition_7b52009b64fd0a2a49e6d8a939753077792b0554 -->
<g id="edge25" class="edge"><title>place_ead9028928ebb77be9947a639f024bb8b67c643a&#45;&gt;transition_7b52009b64fd0a2a49e6d8a939753077792b0554</title>
<path fill="none" stroke="#333333" d="M722.341,-114.356C738.359,-114.084 757.707,-113.755 776.8,-113.431"/>
<polygon fill="#333333" stroke="#333333" points="777.206,-115.174 782.176,-113.339 777.147,-111.675 777.206,-115.174"/>
</g>
<!-- place_cd5d07c90b5c8a0724fc18d8b9c909271052f2b5 -->
<g id="node11" class="node"><title>place_cd5d07c90b5c8a0724fc18d8b9c909271052f2b5</title>
<ellipse fill="none" stroke="#333333" cx="1056.98" cy="-112" rx="36" ry="36"/>
<text text-anchor="middle" x="1056.98" y="-109.8" font-family="Arial" font-size="9.00">PAUSED</text>
</g>
<!-- transition_bd307a3ec329e10a2cff8fb87480823da114f8f4 -->
<g id="node30" class="node"><title>transition_bd307a3ec329e10a2cff8fb87480823da114f8f4</title>
<polygon fill="none" stroke="#333333" points="1296.98,-160.5 1199.98,-160.5 1199.98,-63.5 1296.98,-63.5 1296.98,-160.5"/>
<text text-anchor="middle" x="1248.48" y="-109.8" font-family="Arial" font-size="9.00">INITIATE_RESTART</text>
</g>
<!-- place_cd5d07c90b5c8a0724fc18d8b9c909271052f2b5&#45;&gt;transition_bd307a3ec329e10a2cff8fb87480823da114f8f4 -->
<g id="edge27" class="edge"><title>place_cd5d07c90b5c8a0724fc18d8b9c909271052f2b5&#45;&gt;transition_bd307a3ec329e10a2cff8fb87480823da114f8f4</title>
<path fill="none" stroke="#333333" d="M1093.18,-112C1121.73,-112 1162.41,-112 1194.83,-112"/>
<polygon fill="#333333" stroke="#333333" points="1194.96,-113.75 1199.96,-112 1194.96,-110.25 1194.96,-113.75"/>
</g>
<!-- place_4ab3919e3d5f33ebd977a1af7ba9fb5159a24b86 -->
<g id="node12" class="node"><title>place_4ab3919e3d5f33ebd977a1af7ba9fb5159a24b86</title>
<ellipse fill="none" stroke="#333333" cx="1462.21" cy="-630" rx="36" ry="36"/>
<text text-anchor="middle" x="1462.21" y="-627.8" font-family="Arial" font-size="9.00">REMOVED</text>
</g>
<!-- place_e6f4dd32e509fdb03fd79f1ac358ad70ffed3131 -->
<g id="node13" class="node"><title>place_e6f4dd32e509fdb03fd79f1ac358ad70ffed3131</title>
<ellipse fill="none" stroke="#333333" cx="683.477" cy="-583" rx="53.3786" ry="53.3786"/>
<text text-anchor="middle" x="683.477" y="-580.8" font-family="Arial" font-size="9.00">REVOCATION_SENT</text>
</g>
<!-- transition_fe5dbbcea5ce7e2988b8c69bcfdfde8904aabc1f -->
<g id="node25" class="node"><title>transition_fe5dbbcea5ce7e2988b8c69bcfdfde8904aabc1f</title>
<polygon fill="none" stroke="#333333" points="930.478,-698.5 793.478,-698.5 793.478,-561.5 930.478,-561.5 930.478,-698.5"/>
<text text-anchor="middle" x="861.978" y="-627.8" font-family="Arial" font-size="9.00">MARK_MANDATE_REVOKED</text>
</g>
<!-- place_e6f4dd32e509fdb03fd79f1ac358ad70ffed3131&#45;&gt;transition_fe5dbbcea5ce7e2988b8c69bcfdfde8904aabc1f -->
<g id="edge17" class="edge"><title>place_e6f4dd32e509fdb03fd79f1ac358ad70ffed3131&#45;&gt;transition_fe5dbbcea5ce7e2988b8c69bcfdfde8904aabc1f</title>
<path fill="none" stroke="#333333" d="M735.055,-596.468C751.629,-600.882 770.386,-605.876 788.264,-610.637"/>
<polygon fill="#333333" stroke="#333333" points="787.998,-612.377 793.28,-611.973 788.899,-608.995 787.998,-612.377"/>
</g>
<!-- place_cfd92d62c5a0f95de1ff12861b9eefedca756f7b -->
<g id="node14" class="node"><title>place_cfd92d62c5a0f95de1ff12861b9eefedca756f7b</title>
<ellipse fill="none" stroke="#333333" cx="1056.98" cy="-630" rx="36" ry="36"/>
<text text-anchor="middle" x="1056.98" y="-627.8" font-family="Arial" font-size="9.00">REVOKED</text>
</g>
<!-- transition_0ade7c2cf97f75d009975f4d720d1fa6c19f4897 -->
<g id="node26" class="node"><title>transition_0ade7c2cf97f75d009975f4d720d1fa6c19f4897</title>
<polygon fill="none" stroke="#333333" points="1316.98,-698.5 1179.98,-698.5 1179.98,-561.5 1316.98,-561.5 1316.98,-698.5"/>
<text text-anchor="middle" x="1248.48" y="-627.8" font-family="Arial" font-size="9.00">MARK_MANDATE_REMOVED</text>
</g>
<!-- place_cfd92d62c5a0f95de1ff12861b9eefedca756f7b&#45;&gt;transition_0ade7c2cf97f75d009975f4d720d1fa6c19f4897 -->
<g id="edge19" class="edge"><title>place_cfd92d62c5a0f95de1ff12861b9eefedca756f7b&#45;&gt;transition_0ade7c2cf97f75d009975f4d720d1fa6c19f4897</title>
<path fill="none" stroke="#333333" d="M1093.18,-630C1116.05,-630 1146.71,-630 1174.67,-630"/>
<polygon fill="#333333" stroke="#333333" points="1174.86,-631.75 1179.86,-630 1174.86,-628.25 1174.86,-631.75"/>
</g>
<!-- place_a341b9d56a2c3bfd653b2d5b01bddd97b7946ca1 -->
<g id="node15" class="node"><title>place_a341b9d56a2c3bfd653b2d5b01bddd97b7946ca1</title>
<ellipse fill="none" stroke="#333333" cx="1800.37" cy="-142" rx="92.3705" ry="92.3705"/>
<text text-anchor="middle" x="1800.37" y="-139.8" font-family="Arial" font-size="9.00">TRANSACTION_REGISTRATION_SENT</text>
</g>
<!-- transition_1b6453892473a467d07372d45eb05abc2031647a -->
<g id="node21" class="node"><title>transition_1b6453892473a467d07372d45eb05abc2031647a</title>
<polygon fill="none" stroke="#333333" points="2074.81,-146 1928.81,-146 1928.81,-0 2074.81,-0 2074.81,-146"/>
<text text-anchor="middle" x="2001.81" y="-70.8" font-family="Arial" font-size="9.00">MARK_TRANSACTION_ACTIVE</text>
</g>
<!-- place_a341b9d56a2c3bfd653b2d5b01bddd97b7946ca1&#45;&gt;transition_1b6453892473a467d07372d45eb05abc2031647a -->
<g id="edge9" class="edge"><title>place_a341b9d56a2c3bfd653b2d5b01bddd97b7946ca1&#45;&gt;transition_1b6453892473a467d07372d45eb05abc2031647a</title>
<path fill="none" stroke="#333333" d="M1887.98,-112.037C1899.84,-107.931 1911.96,-103.739 1923.64,-99.6974"/>
<polygon fill="#333333" stroke="#333333" points="1924.47,-101.264 1928.62,-97.9752 1923.32,-97.9562 1924.47,-101.264"/>
</g>
<!-- place_dc5c141b4b017ab2c3c93372cd73211e591b3dea -->
<g id="node16" class="node"><title>place_dc5c141b4b017ab2c3c93372cd73211e591b3dea</title>
<ellipse fill="none" stroke="#333333" cx="861.978" cy="-467" rx="76.8866" ry="76.8866"/>
<text text-anchor="middle" x="861.978" y="-464.8" font-family="Arial" font-size="9.00">TRANSACTION_UPDATE_SENT</text>
</g>
<!-- transition_1574bddb75c78a6fd2251d61e2993b5146201319 -->
<g id="node33" class="node"><title>transition_1574bddb75c78a6fd2251d61e2993b5146201319</title>
<polygon fill="none" stroke="#333333" points="1136.48,-511.5 977.478,-511.5 977.478,-352.5 1136.48,-352.5 1136.48,-511.5"/>
<text text-anchor="middle" x="1056.98" y="-429.8" font-family="Arial" font-size="9.00">MARK_TRANSACTION_REMOVED</text>
</g>
<!-- place_dc5c141b4b017ab2c3c93372cd73211e591b3dea&#45;&gt;transition_1574bddb75c78a6fd2251d61e2993b5146201319 -->
<g id="edge33" class="edge"><title>place_dc5c141b4b017ab2c3c93372cd73211e591b3dea&#45;&gt;transition_1574bddb75c78a6fd2251d61e2993b5146201319</title>
<path fill="none" stroke="#333333" d="M937.873,-453.418C949.083,-451.385 960.703,-449.278 972.085,-447.214"/>
<polygon fill="#333333" stroke="#333333" points="972.688,-448.883 977.296,-446.269 972.064,-445.439 972.688,-448.883"/>
</g>
<!-- transition_b6589fc6ab0dc82cf12099d1c2d40ab994e8410c&#45;&gt;place_d2b9cb7f8fd77caeaa93cb6ecf9a2c6c01a8aa39 -->
<g id="edge2" class="edge"><title>transition_b6589fc6ab0dc82cf12099d1c2d40ab994e8410c&#45;&gt;place_d2b9cb7f8fd77caeaa93cb6ecf9a2c6c01a8aa39</title>
<path fill="none" stroke="#333333" d="M898.377,-321.143C929.805,-307.953 975.921,-288.599 1010.16,-274.231"/>
<polygon fill="#333333" stroke="#333333" points="1011.18,-275.697 1015.12,-272.149 1009.83,-272.47 1011.18,-275.697"/>
</g>
<!-- transition_356a192b7913b04c54574d18c28d46e6395428ab&#45;&gt;place_d2b9cb7f8fd77caeaa93cb6ecf9a2c6c01a8aa39 -->
<g id="edge4" class="edge"><title>transition_356a192b7913b04c54574d18c28d46e6395428ab&#45;&gt;place_d2b9cb7f8fd77caeaa93cb6ecf9a2c6c01a8aa39</title>
<path fill="none" stroke="#333333" d="M898.377,-247.651C928.746,-249.067 972.831,-251.123 1006.66,-252.7"/>
<polygon fill="#333333" stroke="#333333" points="1006.92,-254.464 1011.99,-252.949 1007.08,-250.968 1006.92,-254.464"/>
</g>
<!-- transition_da4b9237bacccdf19c0760cab7aec4a8359010b0&#45;&gt;place_9804773f9a8846d1ea1d0cde5eb01d893b382682 -->
<g id="edge6" class="edge"><title>transition_da4b9237bacccdf19c0760cab7aec4a8359010b0&#45;&gt;place_9804773f9a8846d1ea1d0cde5eb01d893b382682</title>
<path fill="none" stroke="#333333" d="M1324.72,-233.677C1335.85,-230.524 1347.47,-227.23 1359.04,-223.953"/>
<polygon fill="#333333" stroke="#333333" points="1359.65,-225.597 1363.99,-222.55 1358.7,-222.23 1359.65,-225.597"/>
</g>
<!-- transition_77de68daecd823babbb58edb1c8e14d7106e83bb&#45;&gt;place_a341b9d56a2c3bfd653b2d5b01bddd97b7946ca1 -->
<g id="edge8" class="edge"><title>transition_77de68daecd823babbb58edb1c8e14d7106e83bb&#45;&gt;place_a341b9d56a2c3bfd653b2d5b01bddd97b7946ca1</title>
<path fill="none" stroke="#333333" d="M1672.18,-169.406C1682.06,-167.277 1693.3,-164.857 1704.9,-162.357"/>
<polygon fill="#333333" stroke="#333333" points="1705.37,-164.045 1709.89,-161.281 1704.63,-160.623 1705.37,-164.045"/>
</g>
<!-- transition_1b6453892473a467d07372d45eb05abc2031647a&#45;&gt;place_c72633f673ef54769f56bbaf78d2baf4858bf7c3 -->
<g id="edge10" class="edge"><title>transition_1b6453892473a467d07372d45eb05abc2031647a&#45;&gt;place_c72633f673ef54769f56bbaf78d2baf4858bf7c3</title>
<path fill="none" stroke="#333333" d="M1928.57,-49.9928C1916.7,-46.6748 1904.47,-43.5324 1892.81,-41 1780.59,-16.6206 1751.78,-5 1636.94,-5 389.238,-5 389.238,-5 389.238,-5 258.399,-5 198.301,2.68107 108,-92 76.035,-125.515 52.7505,-257.925 42.6193,-326.042"/>
<polygon fill="#333333" stroke="#333333" points="40.8522,-326.03 41.8544,-331.232 44.3148,-326.54 40.8522,-326.03"/>
</g>
<!-- transition_ac3478d69a3c81fa62e60f5c3696165a4e5e6ac4&#45;&gt;place_c72633f673ef54769f56bbaf78d2baf4858bf7c3 -->
<g id="edge12" class="edge"><title>transition_ac3478d69a3c81fa62e60f5c3696165a4e5e6ac4&#45;&gt;place_c72633f673ef54769f56bbaf78d2baf4858bf7c3</title>
<path fill="none" stroke="#333333" d="M114.728,-529.05C112.356,-525.736 110.101,-522.379 108,-519 83.4948,-479.597 94.512,-461.575 72,-421 68.3326,-414.39 63.7383,-407.719 59.0965,-401.372"/>
<polygon fill="#333333" stroke="#333333" points="60.2675,-400.013 55.8861,-397.035 57.4543,-402.095 60.2675,-400.013"/>
</g>
<!-- transition_c1dfd96eea8cc2b62785275bca38ac261256e278&#45;&gt;place_9031bdf59fef50c79366e1e807bcd3165f1b86da -->
<g id="edge14" class="edge"><title>transition_c1dfd96eea8cc2b62785275bca38ac261256e278&#45;&gt;place_9031bdf59fef50c79366e1e807bcd3165f1b86da</title>
<path fill="none" stroke="#333333" d="M244.512,-459.693C269.36,-466.27 298.816,-474.067 324.647,-480.904"/>
<polygon fill="#333333" stroke="#333333" points="324.481,-482.67 329.762,-482.258 325.376,-479.286 324.481,-482.67"/>
</g>
<!-- transition_902ba3cda1883801594b6e1b452790cc53948fda&#45;&gt;place_e6f4dd32e509fdb03fd79f1ac358ad70ffed3131 -->
<g id="edge16" class="edge"><title>transition_902ba3cda1883801594b6e1b452790cc53948fda&#45;&gt;place_e6f4dd32e509fdb03fd79f1ac358ad70ffed3131</title>
<path fill="none" stroke="#333333" d="M584.769,-527.902C599.26,-536.073 616.308,-545.686 632.072,-554.576"/>
<polygon fill="#333333" stroke="#333333" points="631.266,-556.13 636.481,-557.062 632.985,-553.082 631.266,-556.13"/>
</g>
<!-- transition_fe5dbbcea5ce7e2988b8c69bcfdfde8904aabc1f&#45;&gt;place_cfd92d62c5a0f95de1ff12861b9eefedca756f7b -->
<g id="edge18" class="edge"><title>transition_fe5dbbcea5ce7e2988b8c69bcfdfde8904aabc1f&#45;&gt;place_cfd92d62c5a0f95de1ff12861b9eefedca756f7b</title>
<path fill="none" stroke="#333333" d="M930.48,-630C958.895,-630 991.009,-630 1015.64,-630"/>
<polygon fill="#333333" stroke="#333333" points="1015.78,-631.75 1020.78,-630 1015.78,-628.25 1015.78,-631.75"/>
</g>
<!-- transition_0ade7c2cf97f75d009975f4d720d1fa6c19f4897&#45;&gt;place_4ab3919e3d5f33ebd977a1af7ba9fb5159a24b86 -->
<g id="edge20" class="edge"><title>transition_0ade7c2cf97f75d009975f4d720d1fa6c19f4897&#45;&gt;place_4ab3919e3d5f33ebd977a1af7ba9fb5159a24b86</title>
<path fill="none" stroke="#333333" d="M1317.05,-630C1351.23,-630 1391.57,-630 1420.87,-630"/>
<polygon fill="#333333" stroke="#333333" points="1421.2,-631.75 1426.2,-630 1421.2,-628.25 1421.2,-631.75"/>
</g>
<!-- transition_b1d5781111d84f7b3fe45a0852e59758cd7a87e5&#45;&gt;place_e6055c5a6ee8feda91cdd5be510d21cec274b4c8 -->
<g id="edge22" class="edge"><title>transition_b1d5781111d84f7b3fe45a0852e59758cd7a87e5&#45;&gt;place_e6055c5a6ee8feda91cdd5be510d21cec274b4c8</title>
<path fill="none" stroke="#333333" d="M231.465,-139.334C262.304,-135.946 304.214,-131.342 337.088,-127.73"/>
<polygon fill="#333333" stroke="#333333" points="337.505,-129.445 342.284,-127.159 337.122,-125.966 337.505,-129.445"/>
</g>
<!-- transition_17ba0791499db908433b80f37c5fbc89b870084b&#45;&gt;place_ead9028928ebb77be9947a639f024bb8b67c643a -->
<g id="edge24" class="edge"><title>transition_17ba0791499db908433b80f37c5fbc89b870084b&#45;&gt;place_ead9028928ebb77be9947a639f024bb8b67c643a</title>
<path fill="none" stroke="#333333" d="M584.769,-118.673C601.508,-118.044 621.657,-117.286 639.299,-116.623"/>
<polygon fill="#333333" stroke="#333333" points="639.757,-118.357 644.687,-116.421 639.625,-114.86 639.757,-118.357"/>
</g>
<!-- transition_7b52009b64fd0a2a49e6d8a939753077792b0554&#45;&gt;place_cd5d07c90b5c8a0724fc18d8b9c909271052f2b5 -->
<g id="edge26" class="edge"><title>transition_7b52009b64fd0a2a49e6d8a939753077792b0554&#45;&gt;place_cd5d07c90b5c8a0724fc18d8b9c909271052f2b5</title>
<path fill="none" stroke="#333333" d="M941.478,-112C966.985,-112 994.231,-112 1015.74,-112"/>
<polygon fill="#333333" stroke="#333333" points="1015.8,-113.75 1020.8,-112 1015.8,-110.25 1015.8,-113.75"/>
</g>
<!-- transition_bd307a3ec329e10a2cff8fb87480823da114f8f4&#45;&gt;place_9804773f9a8846d1ea1d0cde5eb01d893b382682 -->
<g id="edge28" class="edge"><title>transition_bd307a3ec329e10a2cff8fb87480823da114f8f4&#45;&gt;place_9804773f9a8846d1ea1d0cde5eb01d893b382682</title>
<path fill="none" stroke="#333333" d="M1296.99,-130.627C1316.35,-138.212 1339.48,-147.281 1362.19,-156.184"/>
<polygon fill="#333333" stroke="#333333" points="1361.73,-157.885 1367.03,-158.08 1363.01,-154.626 1361.73,-157.885"/>
</g>
<!-- transition_fa35e192121eabf3dabf9f5ea6abdbcbc107ac3b&#45;&gt;place_a6d4df81ef896e3dae9187ed1a718a5abde20bcf -->
<g id="edge30" class="edge"><title>transition_fa35e192121eabf3dabf9f5ea6abdbcbc107ac3b&#45;&gt;place_a6d4df81ef896e3dae9187ed1a718a5abde20bcf</title>
<path fill="none" stroke="#333333" d="M268.14,-298.695C278.379,-299.82 288.926,-300.979 299.324,-302.121"/>
<polygon fill="#333333" stroke="#333333" points="299.253,-303.874 304.415,-302.68 299.636,-300.395 299.253,-303.874"/>
</g>
<!-- transition_f1abd670358e036c31296e66b3b66c382ac00812&#45;&gt;place_dc5c141b4b017ab2c3c93372cd73211e591b3dea -->
<g id="edge32" class="edge"><title>transition_f1abd670358e036c31296e66b3b66c382ac00812&#45;&gt;place_dc5c141b4b017ab2c3c93372cd73211e591b3dea</title>
<path fill="none" stroke="#333333" d="M584.749,-396.092C595.595,-404.293 607.983,-412.404 620.477,-418 670.943,-440.605 732.046,-452.883 780.033,-459.496"/>
<polygon fill="#333333" stroke="#333333" points="780.036,-461.262 785.225,-460.196 780.504,-457.794 780.036,-461.262"/>
</g>
<!-- transition_1574bddb75c78a6fd2251d61e2993b5146201319&#45;&gt;place_9804773f9a8846d1ea1d0cde5eb01d893b382682 -->
<g id="edge34" class="edge"><title>transition_1574bddb75c78a6fd2251d61e2993b5146201319&#45;&gt;place_9804773f9a8846d1ea1d0cde5eb01d893b382682</title>
<path fill="none" stroke="#333333" d="M1136.5,-415.505C1192.08,-401.385 1266.71,-377.317 1324.48,-340 1350.17,-323.405 1374.41,-300.984 1395.16,-278.739"/>
<polygon fill="#333333" stroke="#333333" points="1396.61,-279.741 1398.72,-274.881 1394.04,-277.366 1396.61,-279.741"/>
</g>
</g>
</svg>
