<?xml version="1.0" encoding="UTF-8" standalone="no"?>
<!DOCTYPE svg PUBLIC "-//W3C//DTD SVG 1.1//EN"
 "http://www.w3.org/Graphics/SVG/1.1/DTD/svg11.dtd">
<!-- Generated by graphviz version 2.38.0 (20140413.2041)
 -->
<!-- Title: workflow Pages: 1 -->
<svg width="3001pt" height="1153pt"
 viewBox="0.00 0.00 3000.78 1153.06" xmlns="http://www.w3.org/2000/svg" xmlns:xlink="http://www.w3.org/1999/xlink">
<g id="graph0" class="graph" transform="scale(1 1) rotate(0) translate(4 1149.06)">
<title>workflow</title>
<polygon fill="white" stroke="none" points="-4,4 -4,-1149.06 2996.78,-1149.06 2996.78,4 -4,4"/>
<!-- place_c72633f673ef54769f56bbaf78d2baf4858bf7c3 -->
<g id="node1" class="node"><title>place_c72633f673ef54769f56bbaf78d2baf4858bf7c3</title>
<ellipse fill="lightblue" stroke="#333333" cx="36" cy="-572.058" rx="36" ry="36"/>
<text text-anchor="middle" x="36" y="-569.858" font-family="Arial" font-size="9.00">ACTIVE</text>
</g>
<!-- transition_902ba3cda1883801594b6e1b452790cc53948fda -->
<g id="node29" class="node"><title>transition_902ba3cda1883801594b6e1b452790cc53948fda</title>
<polygon fill="none" stroke="#333333" points="278,-839.058 110,-839.058 110,-671.058 278,-671.058 278,-839.058"/>
<text text-anchor="middle" x="194" y="-752.858" font-family="Arial" font-size="9.00">IMPORT_TRANSACTION_REMOVED</text>
</g>
<!-- place_c72633f673ef54769f56bbaf78d2baf4858bf7c3&#45;&gt;transition_902ba3cda1883801594b6e1b452790cc53948fda -->
<g id="edge15" class="edge"><title>place_c72633f673ef54769f56bbaf78d2baf4858bf7c3&#45;&gt;transition_902ba3cda1883801594b6e1b452790cc53948fda</title>
<path fill="none" stroke="#333333" d="M63.4956,-595.967C76.7846,-611.042 93.1691,-630.634 108,-648.058 113.259,-654.236 118.721,-660.616 124.224,-667.043"/>
<polygon fill="#333333" stroke="#333333" points="123.074,-668.39 127.655,-671.05 125.732,-666.114 123.074,-668.39"/>
</g>
<!-- transition_fe5dbbcea5ce7e2988b8c69bcfdfde8904aabc1f -->
<g id="node30" class="node"><title>transition_fe5dbbcea5ce7e2988b8c69bcfdfde8904aabc1f</title>
<polygon fill="none" stroke="#333333" points="521.223,-846.558 408.223,-846.558 408.223,-733.558 521.223,-733.558 521.223,-846.558"/>
<text text-anchor="middle" x="464.723" y="-787.858" font-family="Arial" font-size="9.00">INITIATE_REVOCATION</text>
</g>
<!-- place_c72633f673ef54769f56bbaf78d2baf4858bf7c3&#45;&gt;transition_fe5dbbcea5ce7e2988b8c69bcfdfde8904aabc1f -->
<g id="edge17" class="edge"><title>place_c72633f673ef54769f56bbaf78d2baf4858bf7c3&#45;&gt;transition_fe5dbbcea5ce7e2988b8c69bcfdfde8904aabc1f</title>
<path fill="none" stroke="#333333" d="M63.6526,-595.68C76.3149,-605.782 92.1302,-616.879 108,-624.058 179.33,-656.322 208.294,-630.638 280,-662.058 324.651,-681.622 369.642,-712.734 403.926,-739.385"/>
<polygon fill="#333333" stroke="#333333" points="403.037,-740.911 408.054,-742.612 405.193,-738.153 403.037,-740.911"/>
</g>
<!-- transition_fa35e192121eabf3dabf9f5ea6abdbcbc107ac3b -->
<g id="node36" class="node"><title>transition_fa35e192121eabf3dabf9f5ea6abdbcbc107ac3b</title>
<polygon fill="none" stroke="#333333" points="237,-615.058 151,-615.058 151,-529.058 237,-529.058 237,-615.058"/>
<text text-anchor="middle" x="194" y="-569.858" font-family="Arial" font-size="9.00">INITIATE_PAUSE</text>
</g>
<!-- place_c72633f673ef54769f56bbaf78d2baf4858bf7c3&#45;&gt;transition_fa35e192121eabf3dabf9f5ea6abdbcbc107ac3b -->
<g id="edge29" class="edge"><title>place_c72633f673ef54769f56bbaf78d2baf4858bf7c3&#45;&gt;transition_fa35e192121eabf3dabf9f5ea6abdbcbc107ac3b</title>
<path fill="none" stroke="#333333" d="M72.0094,-572.058C93.7235,-572.058 121.902,-572.058 145.601,-572.058"/>
<polygon fill="#333333" stroke="#333333" points="145.897,-573.808 150.897,-572.058 145.897,-570.308 145.897,-573.808"/>
</g>
<!-- transition_b3f0c7f6bb763af1be91d9e74eabfeb199dc1f1f -->
<g id="node41" class="node"><title>transition_b3f0c7f6bb763af1be91d9e74eabfeb199dc1f1f</title>
<polygon fill="none" stroke="#333333" points="274,-511.058 114,-511.058 114,-351.058 274,-351.058 274,-511.058"/>
<text text-anchor="middle" x="194" y="-428.858" font-family="Arial" font-size="9.00">INITIATE_TRANSACTION_UPDATE</text>
</g>
<!-- place_c72633f673ef54769f56bbaf78d2baf4858bf7c3&#45;&gt;transition_b3f0c7f6bb763af1be91d9e74eabfeb199dc1f1f -->
<g id="edge39" class="edge"><title>place_c72633f673ef54769f56bbaf78d2baf4858bf7c3&#45;&gt;transition_b3f0c7f6bb763af1be91d9e74eabfeb199dc1f1f</title>
<path fill="none" stroke="#333333" d="M63.4633,-548.139C76.5555,-536.306 93.1542,-521.303 110.063,-506.02"/>
<polygon fill="#333333" stroke="#333333" points="111.368,-507.199 113.904,-502.548 109.021,-504.603 111.368,-507.199"/>
</g>
<!-- transition_12c6fc06c99a462375eeb3f43dfd832b08ca9e17 -->
<g id="node44" class="node"><title>transition_12c6fc06c99a462375eeb3f43dfd832b08ca9e17</title>
<polygon fill="none" stroke="#333333" points="280,-298.058 108,-298.058 108,-126.058 280,-126.058 280,-298.058"/>
<text text-anchor="middle" x="194" y="-209.858" font-family="Arial" font-size="9.00">INITIATE_PAYER_NUMBER_CHANGE</text>
</g>
<!-- place_c72633f673ef54769f56bbaf78d2baf4858bf7c3&#45;&gt;transition_12c6fc06c99a462375eeb3f43dfd832b08ca9e17 -->
<g id="edge45" class="edge"><title>place_c72633f673ef54769f56bbaf78d2baf4858bf7c3&#45;&gt;transition_12c6fc06c99a462375eeb3f43dfd832b08ca9e17</title>
<path fill="none" stroke="#333333" d="M44.5771,-537.035C55.2657,-490.947 76.989,-408.059 108,-342.058 114.182,-328.901 121.529,-315.522 129.277,-302.596"/>
<polygon fill="#333333" stroke="#333333" points="130.827,-303.414 131.918,-298.23 127.832,-301.602 130.827,-303.414"/>
</g>
<!-- place_e6055c5a6ee8feda91cdd5be510d21cec274b4c8 -->
<g id="node2" class="node"><title>place_e6055c5a6ee8feda91cdd5be510d21cec274b4c8</title>
<ellipse fill="none" stroke="#333333" cx="464.723" cy="-611.058" rx="48.05" ry="48.05"/>
<text text-anchor="middle" x="464.723" y="-608.858" font-family="Arial" font-size="9.00">AWAITING_PAUSE</text>
</g>
<!-- transition_f1abd670358e036c31296e66b3b66c382ac00812 -->
<g id="node37" class="node"><title>transition_f1abd670358e036c31296e66b3b66c382ac00812</title>
<polygon fill="none" stroke="#333333" points="721.445,-694.058 649.445,-694.058 649.445,-622.058 721.445,-622.058 721.445,-694.058"/>
<text text-anchor="middle" x="685.445" y="-655.858" font-family="Arial" font-size="9.00">EXPORT</text>
</g>
<!-- place_e6055c5a6ee8feda91cdd5be510d21cec274b4c8&#45;&gt;transition_f1abd670358e036c31296e66b3b66c382ac00812 -->
<g id="edge31" class="edge"><title>place_e6055c5a6ee8feda91cdd5be510d21cec274b4c8&#45;&gt;transition_f1abd670358e036c31296e66b3b66c382ac00812</title>
<path fill="none" stroke="#333333" d="M511.841,-620.968C551.064,-629.396 606.823,-641.378 644.251,-649.421"/>
<polygon fill="#333333" stroke="#333333" points="643.922,-651.14 649.178,-650.479 644.657,-647.718 643.922,-651.14"/>
</g>
<!-- place_603ac2dac5e51a400b34e54cd8c3863177d9c01b -->
<g id="node3" class="node"><title>place_603ac2dac5e51a400b34e54cd8c3863177d9c01b</title>
<ellipse fill="none" stroke="#333333" cx="1368.74" cy="-168.058" rx="92.3705" ry="92.3705"/>
<text text-anchor="middle" x="1368.74" y="-165.858" font-family="Arial" font-size="9.00">AWAITING_PAYER_NUMBER_CHANGE</text>
</g>
<!-- transition_f6e1126cedebf23e1463aee73f9df08783640400 -->
<g id="node47" class="node"><title>transition_f6e1126cedebf23e1463aee73f9df08783640400</title>
<polygon fill="none" stroke="#333333" points="1589.67,-204.058 1517.67,-204.058 1517.67,-132.058 1589.67,-132.058 1589.67,-204.058"/>
<text text-anchor="middle" x="1553.67" y="-165.858" font-family="Arial" font-size="9.00">EXPORT</text>
</g>
<!-- place_603ac2dac5e51a400b34e54cd8c3863177d9c01b&#45;&gt;transition_f6e1126cedebf23e1463aee73f9df08783640400 -->
<g id="edge51" class="edge"><title>place_603ac2dac5e51a400b34e54cd8c3863177d9c01b&#45;&gt;transition_f6e1126cedebf23e1463aee73f9df08783640400</title>
<path fill="none" stroke="#333333" d="M1461.2,-168.058C1479.18,-168.058 1497.16,-168.058 1512.35,-168.058"/>
<polygon fill="#333333" stroke="#333333" points="1512.4,-169.808 1517.4,-168.058 1512.4,-166.308 1512.4,-169.808"/>
</g>
<!-- place_664643489a68e9127ca5f29045b98aea46b3fffd -->
<g id="node4" class="node"><title>place_664643489a68e9127ca5f29045b98aea46b3fffd</title>
<ellipse fill="none" stroke="#333333" cx="464.723" cy="-178.058" rx="148.945" ry="148.945"/>
<text text-anchor="middle" x="464.723" y="-175.858" font-family="Arial" font-size="9.00">AWAITING_PAYER_NUMBER_CHANGE_TRANSACTION_UPDATE</text>
</g>
<!-- transition_d435a6cdd786300dff204ee7c2ef942d3e9034e2 -->
<g id="node45" class="node"><title>transition_d435a6cdd786300dff204ee7c2ef942d3e9034e2</title>
<polygon fill="none" stroke="#333333" points="721.445,-209.058 649.445,-209.058 649.445,-137.058 721.445,-137.058 721.445,-209.058"/>
<text text-anchor="middle" x="685.445" y="-170.858" font-family="Arial" font-size="9.00">EXPORT</text>
</g>
<!-- place_664643489a68e9127ca5f29045b98aea46b3fffd&#45;&gt;transition_d435a6cdd786300dff204ee7c2ef942d3e9034e2 -->
<g id="edge47" class="edge"><title>place_664643489a68e9127ca5f29045b98aea46b3fffd&#45;&gt;transition_d435a6cdd786300dff204ee7c2ef942d3e9034e2</title>
<path fill="none" stroke="#333333" d="M613.432,-174.681C624.438,-174.429 634.851,-174.191 644.139,-173.979"/>
<polygon fill="#333333" stroke="#333333" points="644.222,-175.728 649.18,-173.864 644.141,-172.229 644.222,-175.728"/>
</g>
<!-- place_9031bdf59fef50c79366e1e807bcd3165f1b86da -->
<g id="node5" class="node"><title>place_9031bdf59fef50c79366e1e807bcd3165f1b86da</title>
<ellipse fill="none" stroke="#333333" cx="1729.31" cy="-796.058" rx="62.4683" ry="62.4683"/>
<text text-anchor="middle" x="1729.31" y="-793.858" font-family="Arial" font-size="9.00">AWAITING_REVOCATION</text>
</g>
<!-- transition_0ade7c2cf97f75d009975f4d720d1fa6c19f4897 -->
<g id="node31" class="node"><title>transition_0ade7c2cf97f75d009975f4d720d1fa6c19f4897</title>
<polygon fill="none" stroke="#333333" points="1968.45,-832.058 1896.45,-832.058 1896.45,-760.058 1968.45,-760.058 1968.45,-832.058"/>
<text text-anchor="middle" x="1932.45" y="-793.858" font-family="Arial" font-size="9.00">EXPORT</text>
</g>
<!-- place_9031bdf59fef50c79366e1e807bcd3165f1b86da&#45;&gt;transition_0ade7c2cf97f75d009975f4d720d1fa6c19f4897 -->
<g id="edge19" class="edge"><title>place_9031bdf59fef50c79366e1e807bcd3165f1b86da&#45;&gt;transition_0ade7c2cf97f75d009975f4d720d1fa6c19f4897</title>
<path fill="none" stroke="#333333" d="M1792.03,-796.058C1824.21,-796.058 1862.66,-796.058 1891.02,-796.058"/>
<polygon fill="#333333" stroke="#333333" points="1891.2,-797.808 1896.2,-796.058 1891.2,-794.308 1891.2,-797.808"/>
</g>
<!-- place_9804773f9a8846d1ea1d0cde5eb01d893b382682 -->
<g id="node6" class="node"><title>place_9804773f9a8846d1ea1d0cde5eb01d893b382682</title>
<ellipse fill="none" stroke="#333333" cx="2154.18" cy="-351.058" rx="101.961" ry="101.961"/>
<text text-anchor="middle" x="2154.18" y="-348.858" font-family="Arial" font-size="9.00">AWAITING_TRANSACTION_REGISTRATION</text>
</g>
<!-- transition_ac3478d69a3c81fa62e60f5c3696165a4e5e6ac4 -->
<g id="node27" class="node"><title>transition_ac3478d69a3c81fa62e60f5c3696165a4e5e6ac4</title>
<polygon fill="none" stroke="#333333" points="2411.91,-272.058 2339.91,-272.058 2339.91,-200.058 2411.91,-200.058 2411.91,-272.058"/>
<text text-anchor="middle" x="2375.91" y="-233.858" font-family="Arial" font-size="9.00">EXPORT</text>
</g>
<!-- place_9804773f9a8846d1ea1d0cde5eb01d893b382682&#45;&gt;transition_ac3478d69a3c81fa62e60f5c3696165a4e5e6ac4 -->
<g id="edge11" class="edge"><title>place_9804773f9a8846d1ea1d0cde5eb01d893b382682&#45;&gt;transition_ac3478d69a3c81fa62e60f5c3696165a4e5e6ac4</title>
<path fill="none" stroke="#333333" d="M2244.55,-304.283C2275.98,-287.833 2309.74,-270.169 2335.02,-256.936"/>
<polygon fill="#333333" stroke="#333333" points="2336.02,-258.388 2339.64,-254.518 2334.4,-255.287 2336.02,-258.388"/>
</g>
<!-- place_a6d4df81ef896e3dae9187ed1a718a5abde20bcf -->
<g id="node7" class="node"><title>place_a6d4df81ef896e3dae9187ed1a718a5abde20bcf</title>
<ellipse fill="none" stroke="#333333" cx="464.723" cy="-431.058" rx="86.4775" ry="86.4775"/>
<text text-anchor="middle" x="464.723" y="-428.858" font-family="Arial" font-size="9.00">AWAITING_TRANSACTION_UPDATE</text>
</g>
<!-- transition_91032ad7bbcb6cf72875e8e8207dcfba80173f7c -->
<g id="node42" class="node"><title>transition_91032ad7bbcb6cf72875e8e8207dcfba80173f7c</title>
<polygon fill="none" stroke="#333333" points="721.445,-452.058 649.445,-452.058 649.445,-380.058 721.445,-380.058 721.445,-452.058"/>
<text text-anchor="middle" x="685.445" y="-413.858" font-family="Arial" font-size="9.00">EXPORT</text>
</g>
<!-- place_a6d4df81ef896e3dae9187ed1a718a5abde20bcf&#45;&gt;transition_91032ad7bbcb6cf72875e8e8207dcfba80173f7c -->
<g id="edge41" class="edge"><title>place_a6d4df81ef896e3dae9187ed1a718a5abde20bcf&#45;&gt;transition_91032ad7bbcb6cf72875e8e8207dcfba80173f7c</title>
<path fill="none" stroke="#333333" d="M550.913,-425.215C583.074,-423.01 618.171,-420.603 644.309,-418.81"/>
<polygon fill="#333333" stroke="#333333" points="644.545,-420.548 649.414,-418.46 644.305,-417.056 644.545,-420.548"/>
</g>
<!-- place_0b99cebe565822c64ac5d84aecb00fe40e59cbd3 -->
<g id="node8" class="node"><title>place_0b99cebe565822c64ac5d84aecb00fe40e59cbd3</title>
<ellipse fill="none" stroke="#333333" cx="36" cy="-662.058" rx="36" ry="36"/>
<text text-anchor="middle" x="36" y="-659.858" font-family="Arial" font-size="9.00">ERROR</text>
</g>
<!-- place_3388f49bc4e810669b0ff5de095fa852c1e9ea7e -->
<g id="node9" class="node"><title>place_3388f49bc4e810669b0ff5de095fa852c1e9ea7e</title>
<ellipse fill="none" stroke="#333333" cx="896.873" cy="-551.058" rx="54.4444" ry="54.4444"/>
<text text-anchor="middle" x="896.873" y="-548.858" font-family="Arial" font-size="9.00">MANDATE_CREATED</text>
</g>
<!-- transition_b6589fc6ab0dc82cf12099d1c2d40ab994e8410c -->
<g id="node22" class="node"><title>transition_b6589fc6ab0dc82cf12099d1c2d40ab994e8410c</title>
<polygon fill="none" stroke="#333333" points="1198.3,-464.058 1114.3,-464.058 1114.3,-380.058 1198.3,-380.058 1198.3,-464.058"/>
<text text-anchor="middle" x="1156.3" y="-419.858" font-family="Arial" font-size="9.00">NEW_MANDATE</text>
</g>
<!-- place_3388f49bc4e810669b0ff5de095fa852c1e9ea7e&#45;&gt;transition_b6589fc6ab0dc82cf12099d1c2d40ab994e8410c -->
<g id="edge1" class="edge"><title>place_3388f49bc4e810669b0ff5de095fa852c1e9ea7e&#45;&gt;transition_b6589fc6ab0dc82cf12099d1c2d40ab994e8410c</title>
<path fill="none" stroke="#333333" d="M947.008,-529.833C973.669,-518.032 1007.06,-502.791 1036.3,-488.058 1060.82,-475.702 1087.61,-460.96 1109.55,-448.546"/>
<polygon fill="#333333" stroke="#333333" points="1110.67,-449.923 1114.15,-445.934 1108.94,-446.879 1110.67,-449.923"/>
</g>
<!-- transition_356a192b7913b04c54574d18c28d46e6395428ab -->
<g id="node23" class="node"><title>transition_356a192b7913b04c54574d18c28d46e6395428ab</title>
<polygon fill="none" stroke="#333333" points="1217.3,-604.058 1095.3,-604.058 1095.3,-482.058 1217.3,-482.058 1217.3,-604.058"/>
<text text-anchor="middle" x="1156.3" y="-540.858" font-family="Arial" font-size="9.00">NEW_DIGITAL_MANDATE</text>
</g>
<!-- place_3388f49bc4e810669b0ff5de095fa852c1e9ea7e&#45;&gt;transition_356a192b7913b04c54574d18c28d46e6395428ab -->
<g id="edge3" class="edge"><title>place_3388f49bc4e810669b0ff5de095fa852c1e9ea7e&#45;&gt;transition_356a192b7913b04c54574d18c28d46e6395428ab</title>
<path fill="none" stroke="#333333" d="M951.212,-549.4C991.544,-548.147 1047.12,-546.42 1090.1,-545.084"/>
<polygon fill="#333333" stroke="#333333" points="1090.33,-546.828 1095.27,-544.923 1090.22,-543.329 1090.33,-546.828"/>
</g>
<!-- place_d2b9cb7f8fd77caeaa93cb6ecf9a2c6c01a8aa39 -->
<g id="node10" class="node"><title>place_d2b9cb7f8fd77caeaa93cb6ecf9a2c6c01a8aa39</title>
<ellipse fill="none" stroke="#333333" cx="1729.31" cy="-534.058" rx="44.8533" ry="44.8533"/>
<text text-anchor="middle" x="1729.31" y="-531.858" font-family="Arial" font-size="9.00">MANDATE_SENT</text>
</g>
<!-- transition_1b6453892473a467d07372d45eb05abc2031647a -->
<g id="node26" class="node"><title>transition_1b6453892473a467d07372d45eb05abc2031647a</title>
<polygon fill="none" stroke="#333333" points="2012.95,-614.558 1851.95,-614.558 1851.95,-453.558 2012.95,-453.558 2012.95,-614.558"/>
<text text-anchor="middle" x="1932.45" y="-531.858" font-family="Arial" font-size="9.00">IMPORT_MANDATE_REGISTERED</text>
</g>
<!-- place_d2b9cb7f8fd77caeaa93cb6ecf9a2c6c01a8aa39&#45;&gt;transition_1b6453892473a467d07372d45eb05abc2031647a -->
<g id="edge9" class="edge"><title>place_d2b9cb7f8fd77caeaa93cb6ecf9a2c6c01a8aa39&#45;&gt;transition_1b6453892473a467d07372d45eb05abc2031647a</title>
<path fill="none" stroke="#333333" d="M1774.45,-534.058C1795.61,-534.058 1821.7,-534.058 1846.49,-534.058"/>
<polygon fill="#333333" stroke="#333333" points="1846.76,-535.808 1851.76,-534.058 1846.76,-532.308 1846.76,-535.808"/>
</g>
<!-- place_e1b6adc61c1e09203349001f5eeaf8573afcf571 -->
<g id="node11" class="node"><title>place_e1b6adc61c1e09203349001f5eeaf8573afcf571</title>
<ellipse fill="none" stroke="#333333" cx="1368.74" cy="-546.058" rx="63.0011" ry="63.0011"/>
<text text-anchor="middle" x="1368.74" y="-543.858" font-family="Arial" font-size="9.00">NEW_DIGITAL_MANDATE</text>
</g>
<!-- transition_77de68daecd823babbb58edb1c8e14d7106e83bb -->
<g id="node25" class="node"><title>transition_77de68daecd823babbb58edb1c8e14d7106e83bb</title>
<polygon fill="none" stroke="#333333" points="1589.67,-576.058 1517.67,-576.058 1517.67,-504.058 1589.67,-504.058 1589.67,-576.058"/>
<text text-anchor="middle" x="1553.67" y="-537.858" font-family="Arial" font-size="9.00">EXPORT</text>
</g>
<!-- place_e1b6adc61c1e09203349001f5eeaf8573afcf571&#45;&gt;transition_77de68daecd823babbb58edb1c8e14d7106e83bb -->
<g id="edge7" class="edge"><title>place_e1b6adc61c1e09203349001f5eeaf8573afcf571&#45;&gt;transition_77de68daecd823babbb58edb1c8e14d7106e83bb</title>
<path fill="none" stroke="#333333" d="M1431.92,-544.018C1458.5,-543.146 1488.77,-542.154 1512.35,-541.38"/>
<polygon fill="#333333" stroke="#333333" points="1512.64,-543.122 1517.58,-541.209 1512.52,-539.624 1512.64,-543.122"/>
</g>
<!-- place_818af3c4262f96a99ab981900e5a0e1c415b44df -->
<g id="node12" class="node"><title>place_818af3c4262f96a99ab981900e5a0e1c415b44df</title>
<ellipse fill="none" stroke="#333333" cx="1368.74" cy="-422.058" rx="43.2552" ry="43.2552"/>
<text text-anchor="middle" x="1368.74" y="-419.858" font-family="Arial" font-size="9.00">NEW_MANDATE</text>
</g>
<!-- transition_da4b9237bacccdf19c0760cab7aec4a8359010b0 -->
<g id="node24" class="node"><title>transition_da4b9237bacccdf19c0760cab7aec4a8359010b0</title>
<polygon fill="none" stroke="#333333" points="1589.67,-475.058 1517.67,-475.058 1517.67,-403.058 1589.67,-403.058 1589.67,-475.058"/>
<text text-anchor="middle" x="1553.67" y="-436.858" font-family="Arial" font-size="9.00">EXPORT</text>
</g>
<!-- place_818af3c4262f96a99ab981900e5a0e1c415b44df&#45;&gt;transition_da4b9237bacccdf19c0760cab7aec4a8359010b0 -->
<g id="edge5" class="edge"><title>place_818af3c4262f96a99ab981900e5a0e1c415b44df&#45;&gt;transition_da4b9237bacccdf19c0760cab7aec4a8359010b0</title>
<path fill="none" stroke="#333333" d="M1412.16,-426.001C1442.4,-428.81 1482.78,-432.562 1512.49,-435.324"/>
<polygon fill="#333333" stroke="#333333" points="1512.39,-437.072 1517.53,-435.792 1512.72,-433.587 1512.39,-437.072"/>
</g>
<!-- place_ead9028928ebb77be9947a639f024bb8b67c643a -->
<g id="node13" class="node"><title>place_ead9028928ebb77be9947a639f024bb8b67c643a</title>
<ellipse fill="none" stroke="#333333" cx="896.873" cy="-684.058" rx="38.961" ry="38.961"/>
<text text-anchor="middle" x="896.873" y="-681.858" font-family="Arial" font-size="9.00">PAUSE_SENT</text>
</g>
<!-- transition_1574bddb75c78a6fd2251d61e2993b5146201319 -->
<g id="node38" class="node"><title>transition_1574bddb75c78a6fd2251d61e2993b5146201319</title>
<polygon fill="none" stroke="#333333" points="1240.3,-790.058 1072.3,-790.058 1072.3,-622.058 1240.3,-622.058 1240.3,-790.058"/>
<text text-anchor="middle" x="1156.3" y="-703.858" font-family="Arial" font-size="9.00">IMPORT_TRANSACTION_REMOVED</text>
</g>
<!-- place_ead9028928ebb77be9947a639f024bb8b67c643a&#45;&gt;transition_1574bddb75c78a6fd2251d61e2993b5146201319 -->
<g id="edge33" class="edge"><title>place_ead9028928ebb77be9947a639f024bb8b67c643a&#45;&gt;transition_1574bddb75c78a6fd2251d61e2993b5146201319</title>
<path fill="none" stroke="#333333" d="M935.58,-687.28C970.005,-690.222 1022.21,-694.684 1067.1,-698.52"/>
<polygon fill="#333333" stroke="#333333" points="1067.12,-700.278 1072.25,-698.96 1067.42,-696.791 1067.12,-700.278"/>
</g>
<!-- place_cd5d07c90b5c8a0724fc18d8b9c909271052f2b5 -->
<g id="node14" class="node"><title>place_cd5d07c90b5c8a0724fc18d8b9c909271052f2b5</title>
<ellipse fill="none" stroke="#333333" cx="1368.74" cy="-706.058" rx="36" ry="36"/>
<text text-anchor="middle" x="1368.74" y="-703.858" font-family="Arial" font-size="9.00">PAUSED</text>
</g>
<!-- transition_0716d9708d321ffb6a00818614779e779925365c -->
<g id="node39" class="node"><title>transition_0716d9708d321ffb6a00818614779e779925365c</title>
<polygon fill="none" stroke="#333333" points="1610.17,-788.558 1497.17,-788.558 1497.17,-675.558 1610.17,-675.558 1610.17,-788.558"/>
<text text-anchor="middle" x="1553.67" y="-729.858" font-family="Arial" font-size="9.00">INITIATE_REVOCATION</text>
</g>
<!-- place_cd5d07c90b5c8a0724fc18d8b9c909271052f2b5&#45;&gt;transition_0716d9708d321ffb6a00818614779e779925365c -->
<g id="edge35" class="edge"><title>place_cd5d07c90b5c8a0724fc18d8b9c909271052f2b5&#45;&gt;transition_0716d9708d321ffb6a00818614779e779925365c</title>
<path fill="none" stroke="#333333" d="M1404.57,-711.009C1429.27,-714.519 1463.04,-719.319 1492.1,-723.45"/>
<polygon fill="#333333" stroke="#333333" points="1491.9,-725.188 1497.1,-724.159 1492.39,-721.723 1491.9,-725.188"/>
</g>
<!-- transition_9e6a55b6b4563e652a23be9d623ca5055c356940 -->
<g id="node40" class="node"><title>transition_9e6a55b6b4563e652a23be9d623ca5055c356940</title>
<polygon fill="none" stroke="#333333" points="1777.81,-693.558 1680.81,-693.558 1680.81,-596.558 1777.81,-596.558 1777.81,-693.558"/>
<text text-anchor="middle" x="1729.31" y="-642.858" font-family="Arial" font-size="9.00">INITIATE_RESTART</text>
</g>
<!-- place_cd5d07c90b5c8a0724fc18d8b9c909271052f2b5&#45;&gt;transition_9e6a55b6b4563e652a23be9d623ca5055c356940 -->
<g id="edge37" class="edge"><title>place_cd5d07c90b5c8a0724fc18d8b9c909271052f2b5&#45;&gt;transition_9e6a55b6b4563e652a23be9d623ca5055c356940</title>
<path fill="none" stroke="#333333" d="M1402.77,-693.548C1428.2,-684.443 1464.43,-672.606 1497.17,-666.058 1557.59,-653.974 1628.31,-648.833 1675.46,-646.653"/>
<polygon fill="#333333" stroke="#333333" points="1675.6,-648.398 1680.52,-646.426 1675.44,-644.902 1675.6,-648.398"/>
</g>
<!-- place_1d873f095061223ff3e5aa2923f8eed67b6a60f3 -->
<g id="node15" class="node"><title>place_1d873f095061223ff3e5aa2923f8eed67b6a60f3</title>
<ellipse fill="none" stroke="#333333" cx="1729.31" cy="-168.058" rx="83.2803" ry="83.2803"/>
<text text-anchor="middle" x="1729.31" y="-165.858" font-family="Arial" font-size="9.00">PAYER_NUMBER_CHANGE_SENT</text>
</g>
<!-- transition_887309d048beef83ad3eabf2a79a64a389ab1c9f -->
<g id="node48" class="node"><title>transition_887309d048beef83ad3eabf2a79a64a389ab1c9f</title>
<polygon fill="none" stroke="#333333" points="2012.95,-248.558 1851.95,-248.558 1851.95,-87.5577 2012.95,-87.5577 2012.95,-248.558"/>
<text text-anchor="middle" x="1932.45" y="-165.858" font-family="Arial" font-size="9.00">IMPORT_MANDATE_REGISTERED</text>
</g>
<!-- place_1d873f095061223ff3e5aa2923f8eed67b6a60f3&#45;&gt;transition_887309d048beef83ad3eabf2a79a64a389ab1c9f -->
<g id="edge53" class="edge"><title>place_1d873f095061223ff3e5aa2923f8eed67b6a60f3&#45;&gt;transition_887309d048beef83ad3eabf2a79a64a389ab1c9f</title>
<path fill="none" stroke="#333333" d="M1812.7,-168.058C1823.9,-168.058 1835.4,-168.058 1846.64,-168.058"/>
<polygon fill="#333333" stroke="#333333" points="1846.78,-169.808 1851.78,-168.058 1846.78,-166.308 1846.78,-169.808"/>
</g>
<!-- place_37caab4993715f768067bde3a516958dad5b68c4 -->
<g id="node16" class="node"><title>place_37caab4993715f768067bde3a516958dad5b68c4</title>
<ellipse fill="none" stroke="#333333" cx="896.873" cy="-168.058" rx="139.355" ry="139.355"/>
<text text-anchor="middle" x="896.873" y="-165.858" font-family="Arial" font-size="9.00">PAYER_NUMBER_CHANGE_TRANSACTION_UPDATE_SENT</text>
</g>
<!-- transition_4d134bc072212ace2df385dae143139da74ec0ef -->
<g id="node46" class="node"><title>transition_4d134bc072212ace2df385dae143139da74ec0ef</title>
<polygon fill="none" stroke="#333333" points="1240.3,-252.058 1072.3,-252.058 1072.3,-84.0577 1240.3,-84.0577 1240.3,-252.058"/>
<text text-anchor="middle" x="1156.3" y="-165.858" font-family="Arial" font-size="9.00">IMPORT_TRANSACTION_REMOVED</text>
</g>
<!-- place_37caab4993715f768067bde3a516958dad5b68c4&#45;&gt;transition_4d134bc072212ace2df385dae143139da74ec0ef -->
<g id="edge49" class="edge"><title>place_37caab4993715f768067bde3a516958dad5b68c4&#45;&gt;transition_4d134bc072212ace2df385dae143139da74ec0ef</title>
<path fill="none" stroke="#333333" d="M1036.38,-168.058C1046.72,-168.058 1056.97,-168.058 1066.87,-168.058"/>
<polygon fill="#333333" stroke="#333333" points="1067.01,-169.808 1072.01,-168.058 1067.01,-166.308 1067.01,-169.808"/>
</g>
<!-- place_4ab3919e3d5f33ebd977a1af7ba9fb5159a24b86 -->
<g id="node17" class="node"><title>place_4ab3919e3d5f33ebd977a1af7ba9fb5159a24b86</title>
<ellipse fill="none" stroke="#333333" cx="2956.78" cy="-1109.06" rx="36" ry="36"/>
<text text-anchor="middle" x="2956.78" y="-1106.86" font-family="Arial" font-size="9.00">REMOVED</text>
</g>
<!-- place_e6f4dd32e509fdb03fd79f1ac358ad70ffed3131 -->
<g id="node18" class="node"><title>place_e6f4dd32e509fdb03fd79f1ac358ad70ffed3131</title>
<ellipse fill="none" stroke="#333333" cx="2154.18" cy="-796.058" rx="53.3786" ry="53.3786"/>
<text text-anchor="middle" x="2154.18" y="-793.858" font-family="Arial" font-size="9.00">REVOCATION_SENT</text>
</g>
<!-- transition_b1d5781111d84f7b3fe45a0852e59758cd7a87e5 -->
<g id="node32" class="node"><title>transition_b1d5781111d84f7b3fe45a0852e59758cd7a87e5</title>
<polygon fill="none" stroke="#333333" points="2448.91,-1044.06 2302.91,-1044.06 2302.91,-898.058 2448.91,-898.058 2448.91,-1044.06"/>
<text text-anchor="middle" x="2375.91" y="-968.858" font-family="Arial" font-size="9.00">IMPORT_MANDATE_REVOKED</text>
</g>
<!-- place_e6f4dd32e509fdb03fd79f1ac358ad70ffed3131&#45;&gt;transition_b1d5781111d84f7b3fe45a0852e59758cd7a87e5 -->
<g id="edge21" class="edge"><title>place_e6f4dd32e509fdb03fd79f1ac358ad70ffed3131&#45;&gt;transition_b1d5781111d84f7b3fe45a0852e59758cd7a87e5</title>
<path fill="none" stroke="#333333" d="M2196.25,-828.769C2225.02,-851.679 2264.31,-882.975 2298.73,-910.383"/>
<polygon fill="#333333" stroke="#333333" points="2297.9,-911.959 2302.9,-913.706 2300.08,-909.222 2297.9,-911.959"/>
</g>
<!-- transition_17ba0791499db908433b80f37c5fbc89b870084b -->
<g id="node33" class="node"><title>transition_17ba0791499db908433b80f37c5fbc89b870084b</title>
<polygon fill="none" stroke="#333333" points="2459.91,-880.058 2291.91,-880.058 2291.91,-712.058 2459.91,-712.058 2459.91,-880.058"/>
<text text-anchor="middle" x="2375.91" y="-793.858" font-family="Arial" font-size="9.00">IMPORT_TRANSACTION_REMOVED</text>
</g>
<!-- place_e6f4dd32e509fdb03fd79f1ac358ad70ffed3131&#45;&gt;transition_17ba0791499db908433b80f37c5fbc89b870084b -->
<g id="edge23" class="edge"><title>place_e6f4dd32e509fdb03fd79f1ac358ad70ffed3131&#45;&gt;transition_17ba0791499db908433b80f37c5fbc89b870084b</title>
<path fill="none" stroke="#333333" d="M2207.25,-790.218C2231.03,-789.391 2259.85,-789.128 2286.85,-789.427"/>
<polygon fill="#333333" stroke="#333333" points="2286.84,-791.177 2291.86,-789.49 2286.88,-787.677 2286.84,-791.177"/>
</g>
<!-- place_cfd92d62c5a0f95de1ff12861b9eefedca756f7b -->
<g id="node19" class="node"><title>place_cfd92d62c5a0f95de1ff12861b9eefedca756f7b</title>
<ellipse fill="none" stroke="#333333" cx="2588.35" cy="-971.058" rx="36" ry="36"/>
<text text-anchor="middle" x="2588.35" y="-968.858" font-family="Arial" font-size="9.00">REVOKED</text>
</g>
<!-- transition_7b52009b64fd0a2a49e6d8a939753077792b0554 -->
<g id="node34" class="node"><title>transition_7b52009b64fd0a2a49e6d8a939753077792b0554</title>
<polygon fill="none" stroke="#333333" points="2884.78,-1055.06 2716.78,-1055.06 2716.78,-887.058 2884.78,-887.058 2884.78,-1055.06"/>
<text text-anchor="middle" x="2800.78" y="-968.858" font-family="Arial" font-size="9.00">IMPORT_TRANSACTION_REMOVED</text>
</g>
<!-- place_cfd92d62c5a0f95de1ff12861b9eefedca756f7b&#45;&gt;transition_7b52009b64fd0a2a49e6d8a939753077792b0554 -->
<g id="edge25" class="edge"><title>place_cfd92d62c5a0f95de1ff12861b9eefedca756f7b&#45;&gt;transition_7b52009b64fd0a2a49e6d8a939753077792b0554</title>
<path fill="none" stroke="#333333" d="M2624.1,-965.891C2647.82,-964.607 2680.39,-964.104 2711.05,-964.382"/>
<polygon fill="#333333" stroke="#333333" points="2711.33,-966.135 2716.35,-964.438 2711.37,-962.635 2711.33,-966.135"/>
</g>
<!-- transition_bd307a3ec329e10a2cff8fb87480823da114f8f4 -->
<g id="node35" class="node"><title>transition_bd307a3ec329e10a2cff8fb87480823da114f8f4</title>
<polygon fill="none" stroke="#333333" points="2836.78,-1145.06 2764.78,-1145.06 2764.78,-1073.06 2836.78,-1073.06 2836.78,-1145.06"/>
<text text-anchor="middle" x="2800.78" y="-1106.86" font-family="Arial" font-size="9.00">REMOVE</text>
</g>
<!-- place_cfd92d62c5a0f95de1ff12861b9eefedca756f7b&#45;&gt;transition_bd307a3ec329e10a2cff8fb87480823da114f8f4 -->
<g id="edge27" class="edge"><title>place_cfd92d62c5a0f95de1ff12861b9eefedca756f7b&#45;&gt;transition_bd307a3ec329e10a2cff8fb87480823da114f8f4</title>
<path fill="none" stroke="#333333" d="M2617.43,-993.235C2642.76,-1012.82 2681.36,-1041.67 2716.78,-1064.06 2730.48,-1072.71 2745.97,-1081.39 2759.82,-1088.79"/>
<polygon fill="#333333" stroke="#333333" points="2759.22,-1090.45 2764.46,-1091.24 2760.86,-1087.35 2759.22,-1090.45"/>
</g>
<!-- place_a341b9d56a2c3bfd653b2d5b01bddd97b7946ca1 -->
<g id="node20" class="node"><title>place_a341b9d56a2c3bfd653b2d5b01bddd97b7946ca1</title>
<ellipse fill="none" stroke="#333333" cx="2588.35" cy="-179.058" rx="92.3705" ry="92.3705"/>
<text text-anchor="middle" x="2588.35" y="-176.858" font-family="Arial" font-size="9.00">TRANSACTION_REGISTRATION_SENT</text>
</g>
<!-- transition_c1dfd96eea8cc2b62785275bca38ac261256e278 -->
<g id="node28" class="node"><title>transition_c1dfd96eea8cc2b62785275bca38ac261256e278</title>
<polygon fill="none" stroke="#333333" points="2878.28,-167.558 2723.28,-167.558 2723.28,-12.5577 2878.28,-12.5577 2878.28,-167.558"/>
<text text-anchor="middle" x="2800.78" y="-87.8577" font-family="Arial" font-size="9.00">IMPORT_TRANSACTION_ACTIVE</text>
</g>
<!-- place_a341b9d56a2c3bfd653b2d5b01bddd97b7946ca1&#45;&gt;transition_c1dfd96eea8cc2b62785275bca38ac261256e278 -->
<g id="edge13" class="edge"><title>place_a341b9d56a2c3bfd653b2d5b01bddd97b7946ca1&#45;&gt;transition_c1dfd96eea8cc2b62785275bca38ac261256e278</title>
<path fill="none" stroke="#333333" d="M2673.73,-143.371C2688.42,-137.158 2703.67,-130.706 2718.28,-124.526"/>
<polygon fill="#333333" stroke="#333333" points="2719.29,-126.001 2723.21,-122.441 2717.93,-122.777 2719.29,-126.001"/>
</g>
<!-- place_dc5c141b4b017ab2c3c93372cd73211e591b3dea -->
<g id="node21" class="node"><title>place_dc5c141b4b017ab2c3c93372cd73211e591b3dea</title>
<ellipse fill="none" stroke="#333333" cx="896.873" cy="-402.058" rx="76.8866" ry="76.8866"/>
<text text-anchor="middle" x="896.873" y="-399.858" font-family="Arial" font-size="9.00">TRANSACTION_UPDATE_SENT</text>
</g>
<!-- transition_472b07b9fcf2c2451e8781e944bf5f77cd8457c8 -->
<g id="node43" class="node"><title>transition_472b07b9fcf2c2451e8781e944bf5f77cd8457c8</title>
<polygon fill="none" stroke="#333333" points="2016.45,-435.058 1848.45,-435.058 1848.45,-267.058 2016.45,-267.058 2016.45,-435.058"/>
<text text-anchor="middle" x="1932.45" y="-348.858" font-family="Arial" font-size="9.00">IMPORT_TRANSACTION_REMOVED</text>
</g>
<!-- place_dc5c141b4b017ab2c3c93372cd73211e591b3dea&#45;&gt;transition_472b07b9fcf2c2451e8781e944bf5f77cd8457c8 -->
<g id="edge43" class="edge"><title>place_dc5c141b4b017ab2c3c93372cd73211e591b3dea&#45;&gt;transition_472b07b9fcf2c2451e8781e944bf5f77cd8457c8</title>
<path fill="none" stroke="#333333" d="M972.729,-386.919C1003.47,-381.182 1039.48,-375.073 1072.3,-371.058 1202.93,-355.076 1236.13,-351.058 1367.74,-351.058 1367.74,-351.058 1367.74,-351.058 1554.67,-351.058 1653.37,-351.058 1766.6,-351.058 1842.96,-351.058"/>
<polygon fill="#333333" stroke="#333333" points="1843.39,-352.808 1848.39,-351.058 1843.39,-349.308 1843.39,-352.808"/>
</g>
<!-- transition_b6589fc6ab0dc82cf12099d1c2d40ab994e8410c&#45;&gt;place_818af3c4262f96a99ab981900e5a0e1c415b44df -->
<g id="edge2" class="edge"><title>transition_b6589fc6ab0dc82cf12099d1c2d40ab994e8410c&#45;&gt;place_818af3c4262f96a99ab981900e5a0e1c415b44df</title>
<path fill="none" stroke="#333333" d="M1198.37,-422.058C1233.26,-422.058 1283.36,-422.058 1320.01,-422.058"/>
<polygon fill="#333333" stroke="#333333" points="1320.32,-423.808 1325.32,-422.058 1320.32,-420.308 1320.32,-423.808"/>
</g>
<!-- transition_356a192b7913b04c54574d18c28d46e6395428ab&#45;&gt;place_e1b6adc61c1e09203349001f5eeaf8573afcf571 -->
<g id="edge4" class="edge"><title>transition_356a192b7913b04c54574d18c28d46e6395428ab&#45;&gt;place_e1b6adc61c1e09203349001f5eeaf8573afcf571</title>
<path fill="none" stroke="#333333" d="M1217.32,-543.913C1243.17,-544.282 1273.52,-544.715 1300.16,-545.094"/>
<polygon fill="#333333" stroke="#333333" points="1300.41,-546.848 1305.44,-545.17 1300.46,-543.348 1300.41,-546.848"/>
</g>
<!-- transition_da4b9237bacccdf19c0760cab7aec4a8359010b0&#45;&gt;place_d2b9cb7f8fd77caeaa93cb6ecf9a2c6c01a8aa39 -->
<g id="edge6" class="edge"><title>transition_da4b9237bacccdf19c0760cab7aec4a8359010b0&#45;&gt;place_d2b9cb7f8fd77caeaa93cb6ecf9a2c6c01a8aa39</title>
<path fill="none" stroke="#333333" d="M1589.81,-458.282C1617.28,-473.31 1655.59,-494.274 1684.96,-510.343"/>
<polygon fill="#333333" stroke="#333333" points="1684.37,-512.014 1689.6,-512.878 1686.05,-508.943 1684.37,-512.014"/>
</g>
<!-- transition_77de68daecd823babbb58edb1c8e14d7106e83bb&#45;&gt;place_d2b9cb7f8fd77caeaa93cb6ecf9a2c6c01a8aa39 -->
<g id="edge8" class="edge"><title>transition_77de68daecd823babbb58edb1c8e14d7106e83bb&#45;&gt;place_d2b9cb7f8fd77caeaa93cb6ecf9a2c6c01a8aa39</title>
<path fill="none" stroke="#333333" d="M1589.81,-538.843C1615.46,-537.957 1650.59,-536.743 1679.04,-535.76"/>
<polygon fill="#333333" stroke="#333333" points="1679.34,-537.501 1684.27,-535.579 1679.22,-534.003 1679.34,-537.501"/>
</g>
<!-- transition_1b6453892473a467d07372d45eb05abc2031647a&#45;&gt;place_9804773f9a8846d1ea1d0cde5eb01d893b382682 -->
<g id="edge10" class="edge"><title>transition_1b6453892473a467d07372d45eb05abc2031647a&#45;&gt;place_9804773f9a8846d1ea1d0cde5eb01d893b382682</title>
<path fill="none" stroke="#333333" d="M2013.09,-467.732C2031.93,-452.041 2052.06,-435.279 2071.01,-419.497"/>
<polygon fill="#333333" stroke="#333333" points="2072.56,-420.478 2075.28,-415.933 2070.32,-417.788 2072.56,-420.478"/>
</g>
<!-- transition_ac3478d69a3c81fa62e60f5c3696165a4e5e6ac4&#45;&gt;place_a341b9d56a2c3bfd653b2d5b01bddd97b7946ca1 -->
<g id="edge12" class="edge"><title>transition_ac3478d69a3c81fa62e60f5c3696165a4e5e6ac4&#45;&gt;place_a341b9d56a2c3bfd653b2d5b01bddd97b7946ca1</title>
<path fill="none" stroke="#333333" d="M2412.13,-226.517C2434.59,-220.435 2464.82,-212.246 2493.85,-204.382"/>
<polygon fill="#333333" stroke="#333333" points="2494.51,-206.018 2498.88,-203.021 2493.59,-202.64 2494.51,-206.018"/>
</g>
<!-- transition_c1dfd96eea8cc2b62785275bca38ac261256e278&#45;&gt;place_c72633f673ef54769f56bbaf78d2baf4858bf7c3 -->
<g id="edge14" class="edge"><title>transition_c1dfd96eea8cc2b62785275bca38ac261256e278&#45;&gt;place_c72633f673ef54769f56bbaf78d2baf4858bf7c3</title>
<path fill="none" stroke="#333333" d="M2723.25,-63.9561C2639.31,-37.6948 2500.14,-1.05769 2376.91,-1.05769 463.723,-1.05769 463.723,-1.05769 463.723,-1.05769 297.43,-1.05769 207.924,15.8653 108,-117.058 59.0931,-182.116 43.0692,-431.505 38.5589,-530.859"/>
<polygon fill="#333333" stroke="#333333" points="36.8021,-530.974 38.3277,-536.047 40.2987,-531.129 36.8021,-530.974"/>
</g>
<!-- transition_902ba3cda1883801594b6e1b452790cc53948fda&#45;&gt;place_c72633f673ef54769f56bbaf78d2baf4858bf7c3 -->
<g id="edge16" class="edge"><title>transition_902ba3cda1883801594b6e1b452790cc53948fda&#45;&gt;place_c72633f673ef54769f56bbaf78d2baf4858bf7c3</title>
<path fill="none" stroke="#333333" d="M112.2,-670.984C110.788,-669.33 109.387,-667.687 108,-666.058 91.4311,-646.592 72.9231,-624.42 58.9587,-606.343"/>
<polygon fill="#333333" stroke="#333333" points="60.3016,-605.218 55.871,-602.314 57.5237,-607.347 60.3016,-605.218"/>
</g>
<!-- transition_fe5dbbcea5ce7e2988b8c69bcfdfde8904aabc1f&#45;&gt;place_9031bdf59fef50c79366e1e807bcd3165f1b86da -->
<g id="edge18" class="edge"><title>transition_fe5dbbcea5ce7e2988b8c69bcfdfde8904aabc1f&#45;&gt;place_9031bdf59fef50c79366e1e807bcd3165f1b86da</title>
<path fill="none" stroke="#333333" d="M521.329,-795.996C603.231,-804.215 761.166,-818.058 895.873,-818.058 895.873,-818.058 895.873,-818.058 1369.74,-818.058 1471.76,-818.058 1589.8,-809.076 1661.74,-802.59"/>
<polygon fill="#333333" stroke="#333333" points="1662.01,-804.322 1666.83,-802.128 1661.7,-800.836 1662.01,-804.322"/>
</g>
<!-- transition_0ade7c2cf97f75d009975f4d720d1fa6c19f4897&#45;&gt;place_e6f4dd32e509fdb03fd79f1ac358ad70ffed3131 -->
<g id="edge20" class="edge"><title>transition_0ade7c2cf97f75d009975f4d720d1fa6c19f4897&#45;&gt;place_e6f4dd32e509fdb03fd79f1ac358ad70ffed3131</title>
<path fill="none" stroke="#333333" d="M1968.75,-796.058C2002.89,-796.058 2055.2,-796.058 2095.41,-796.058"/>
<polygon fill="#333333" stroke="#333333" points="2095.75,-797.808 2100.75,-796.058 2095.75,-794.308 2095.75,-797.808"/>
</g>
<!-- transition_b1d5781111d84f7b3fe45a0852e59758cd7a87e5&#45;&gt;place_cfd92d62c5a0f95de1ff12861b9eefedca756f7b -->
<g id="edge22" class="edge"><title>transition_b1d5781111d84f7b3fe45a0852e59758cd7a87e5&#45;&gt;place_cfd92d62c5a0f95de1ff12861b9eefedca756f7b</title>
<path fill="none" stroke="#333333" d="M2449.04,-971.058C2481.85,-971.058 2519.45,-971.058 2547.16,-971.058"/>
<polygon fill="#333333" stroke="#333333" points="2547.21,-972.808 2552.21,-971.058 2547.21,-969.308 2547.21,-972.808"/>
</g>
<!-- transition_17ba0791499db908433b80f37c5fbc89b870084b&#45;&gt;place_e6f4dd32e509fdb03fd79f1ac358ad70ffed3131 -->
<g id="edge24" class="edge"><title>transition_17ba0791499db908433b80f37c5fbc89b870084b&#45;&gt;place_e6f4dd32e509fdb03fd79f1ac358ad70ffed3131</title>
<path fill="none" stroke="#333333" d="M2291.86,-802.626C2265.35,-802.992 2236.61,-802.805 2212.36,-802.064"/>
<polygon fill="#333333" stroke="#333333" points="2212.31,-800.312 2207.25,-801.898 2212.19,-803.81 2212.31,-800.312"/>
</g>
<!-- transition_7b52009b64fd0a2a49e6d8a939753077792b0554&#45;&gt;place_cfd92d62c5a0f95de1ff12861b9eefedca756f7b -->
<g id="edge26" class="edge"><title>transition_7b52009b64fd0a2a49e6d8a939753077792b0554&#45;&gt;place_cfd92d62c5a0f95de1ff12861b9eefedca756f7b</title>
<path fill="none" stroke="#333333" d="M2716.35,-977.677C2686.33,-978.041 2653.83,-977.643 2629.22,-976.483"/>
<polygon fill="#333333" stroke="#333333" points="2629.18,-974.729 2624.1,-976.224 2629,-978.224 2629.18,-974.729"/>
</g>
<!-- transition_bd307a3ec329e10a2cff8fb87480823da114f8f4&#45;&gt;place_4ab3919e3d5f33ebd977a1af7ba9fb5159a24b86 -->
<g id="edge28" class="edge"><title>transition_bd307a3ec329e10a2cff8fb87480823da114f8f4&#45;&gt;place_4ab3919e3d5f33ebd977a1af7ba9fb5159a24b86</title>
<path fill="none" stroke="#333333" d="M2837.11,-1109.06C2860.49,-1109.06 2891.2,-1109.06 2915.53,-1109.06"/>
<polygon fill="#333333" stroke="#333333" points="2915.62,-1110.81 2920.62,-1109.06 2915.62,-1107.31 2915.62,-1110.81"/>
</g>
<!-- transition_fa35e192121eabf3dabf9f5ea6abdbcbc107ac3b&#45;&gt;place_e6055c5a6ee8feda91cdd5be510d21cec274b4c8 -->
<g id="edge30" class="edge"><title>transition_fa35e192121eabf3dabf9f5ea6abdbcbc107ac3b&#45;&gt;place_e6055c5a6ee8feda91cdd5be510d21cec274b4c8</title>
<path fill="none" stroke="#333333" d="M237.284,-578.194C284.44,-585.038 360.751,-596.113 411.573,-603.489"/>
<polygon fill="#333333" stroke="#333333" points="411.517,-605.249 416.717,-604.236 412.02,-601.786 411.517,-605.249"/>
</g>
<!-- transition_f1abd670358e036c31296e66b3b66c382ac00812&#45;&gt;place_ead9028928ebb77be9947a639f024bb8b67c643a -->
<g id="edge32" class="edge"><title>transition_f1abd670358e036c31296e66b3b66c382ac00812&#45;&gt;place_ead9028928ebb77be9947a639f024bb8b67c643a</title>
<path fill="none" stroke="#333333" d="M721.499,-662.41C757.716,-666.906 814.282,-673.928 853.107,-678.748"/>
<polygon fill="#333333" stroke="#333333" points="853.049,-680.505 858.226,-679.384 853.48,-677.031 853.049,-680.505"/>
</g>
<!-- transition_1574bddb75c78a6fd2251d61e2993b5146201319&#45;&gt;place_cd5d07c90b5c8a0724fc18d8b9c909271052f2b5 -->
<g id="edge34" class="edge"><title>transition_1574bddb75c78a6fd2251d61e2993b5146201319&#45;&gt;place_cd5d07c90b5c8a0724fc18d8b9c909271052f2b5</title>
<path fill="none" stroke="#333333" d="M1240.47,-706.058C1270.39,-706.058 1302.81,-706.058 1327.44,-706.058"/>
<polygon fill="#333333" stroke="#333333" points="1327.57,-707.808 1332.57,-706.058 1327.57,-704.308 1327.57,-707.808"/>
</g>
<!-- transition_0716d9708d321ffb6a00818614779e779925365c&#45;&gt;place_9031bdf59fef50c79366e1e807bcd3165f1b86da -->
<g id="edge36" class="edge"><title>transition_0716d9708d321ffb6a00818614779e779925365c&#45;&gt;place_9031bdf59fef50c79366e1e807bcd3165f1b86da</title>
<path fill="none" stroke="#333333" d="M1610.57,-752.66C1628.06,-759.106 1647.47,-766.263 1665.41,-772.874"/>
<polygon fill="#333333" stroke="#333333" points="1665.13,-774.636 1670.43,-774.724 1666.34,-771.352 1665.13,-774.636"/>
</g>
<!-- transition_9e6a55b6b4563e652a23be9d623ca5055c356940&#45;&gt;place_9804773f9a8846d1ea1d0cde5eb01d893b382682 -->
<g id="edge38" class="edge"><title>transition_9e6a55b6b4563e652a23be9d623ca5055c356940&#45;&gt;place_9804773f9a8846d1ea1d0cde5eb01d893b382682</title>
<path fill="none" stroke="#333333" d="M1777.94,-654.68C1838.75,-664.201 1944.66,-671.214 2016.45,-623.058 2073.87,-584.539 2108.31,-514.357 2128.26,-454.931"/>
<polygon fill="#333333" stroke="#333333" points="2130,-455.243 2129.91,-449.946 2126.68,-454.144 2130,-455.243"/>
</g>
<!-- transition_b3f0c7f6bb763af1be91d9e74eabfeb199dc1f1f&#45;&gt;place_a6d4df81ef896e3dae9187ed1a718a5abde20bcf -->
<g id="edge40" class="edge"><title>transition_b3f0c7f6bb763af1be91d9e74eabfeb199dc1f1f&#45;&gt;place_a6d4df81ef896e3dae9187ed1a718a5abde20bcf</title>
<path fill="none" stroke="#333333" d="M274.172,-431.058C305.18,-431.058 340.934,-431.058 372.976,-431.058"/>
<polygon fill="#333333" stroke="#333333" points="373.085,-432.808 378.085,-431.058 373.085,-429.308 373.085,-432.808"/>
</g>
<!-- transition_91032ad7bbcb6cf72875e8e8207dcfba80173f7c&#45;&gt;place_dc5c141b4b017ab2c3c93372cd73211e591b3dea -->
<g id="edge42" class="edge"><title>transition_91032ad7bbcb6cf72875e8e8207dcfba80173f7c&#45;&gt;place_dc5c141b4b017ab2c3c93372cd73211e591b3dea</title>
<path fill="none" stroke="#333333" d="M721.499,-413.714C746.92,-412.015 782.367,-409.645 814.668,-407.486"/>
<polygon fill="#333333" stroke="#333333" points="814.95,-409.221 819.822,-407.142 814.717,-405.729 814.95,-409.221"/>
</g>
<!-- transition_472b07b9fcf2c2451e8781e944bf5f77cd8457c8&#45;&gt;place_9804773f9a8846d1ea1d0cde5eb01d893b382682 -->
<g id="edge44" class="edge"><title>transition_472b07b9fcf2c2451e8781e944bf5f77cd8457c8&#45;&gt;place_9804773f9a8846d1ea1d0cde5eb01d893b382682</title>
<path fill="none" stroke="#333333" d="M2016.52,-351.058C2026.55,-351.058 2036.89,-351.058 2047.19,-351.058"/>
<polygon fill="#333333" stroke="#333333" points="2047.24,-352.808 2052.24,-351.058 2047.24,-349.308 2047.24,-352.808"/>
</g>
<!-- transition_12c6fc06c99a462375eeb3f43dfd832b08ca9e17&#45;&gt;place_664643489a68e9127ca5f29045b98aea46b3fffd -->
<g id="edge46" class="edge"><title>transition_12c6fc06c99a462375eeb3f43dfd832b08ca9e17&#45;&gt;place_664643489a68e9127ca5f29045b98aea46b3fffd</title>
<path fill="none" stroke="#333333" d="M280.025,-201.3C290.293,-200.001 301.007,-198.645 311.876,-197.27"/>
<polygon fill="#333333" stroke="#333333" points="312.139,-199.001 316.879,-196.637 311.699,-195.529 312.139,-199.001"/>
</g>
<!-- transition_d435a6cdd786300dff204ee7c2ef942d3e9034e2&#45;&gt;place_37caab4993715f768067bde3a516958dad5b68c4 -->
<g id="edge48" class="edge"><title>transition_d435a6cdd786300dff204ee7c2ef942d3e9034e2&#45;&gt;place_37caab4993715f768067bde3a516958dad5b68c4</title>
<path fill="none" stroke="#333333" d="M721.499,-172.221C730.587,-172.004 740.956,-171.756 752.004,-171.492"/>
<polygon fill="#333333" stroke="#333333" points="752.17,-173.239 757.126,-171.37 752.086,-169.74 752.17,-173.239"/>
</g>
<!-- transition_4d134bc072212ace2df385dae143139da74ec0ef&#45;&gt;place_603ac2dac5e51a400b34e54cd8c3863177d9c01b -->
<g id="edge50" class="edge"><title>transition_4d134bc072212ace2df385dae143139da74ec0ef&#45;&gt;place_603ac2dac5e51a400b34e54cd8c3863177d9c01b</title>
<path fill="none" stroke="#333333" d="M1240.47,-168.058C1250.54,-168.058 1260.89,-168.058 1271.13,-168.058"/>
<polygon fill="#333333" stroke="#333333" points="1271.15,-169.808 1276.15,-168.058 1271.15,-166.308 1271.15,-169.808"/>
</g>
<!-- transition_f6e1126cedebf23e1463aee73f9df08783640400&#45;&gt;place_1d873f095061223ff3e5aa2923f8eed67b6a60f3 -->
<g id="edge52" class="edge"><title>transition_f6e1126cedebf23e1463aee73f9df08783640400&#45;&gt;place_1d873f095061223ff3e5aa2923f8eed67b6a60f3</title>
<path fill="none" stroke="#333333" d="M1589.81,-168.058C1604.66,-168.058 1622.69,-168.058 1640.76,-168.058"/>
<polygon fill="#333333" stroke="#333333" points="1640.86,-169.808 1645.86,-168.058 1640.86,-166.308 1640.86,-169.808"/>
</g>
<!-- transition_887309d048beef83ad3eabf2a79a64a389ab1c9f&#45;&gt;place_9804773f9a8846d1ea1d0cde5eb01d893b382682 -->
<g id="edge54" class="edge"><title>transition_887309d048beef83ad3eabf2a79a64a389ab1c9f&#45;&gt;place_9804773f9a8846d1ea1d0cde5eb01d893b382682</title>
<path fill="none" stroke="#333333" d="M2013.09,-234.384C2031.93,-250.074 2052.06,-266.836 2071.01,-282.619"/>
<polygon fill="#333333" stroke="#333333" points="2070.32,-284.327 2075.28,-286.182 2072.56,-281.638 2070.32,-284.327"/>
</g>
</g>
</svg>
