<?xml version="1.0" encoding="UTF-8" standalone="no"?>
<!DOCTYPE svg PUBLIC "-//W3C//DTD SVG 1.1//EN"
 "http://www.w3.org/Graphics/SVG/1.1/DTD/svg11.dtd">
<!-- Generated by graphviz version 2.38.0 (20140413.2041)
 -->
<!-- Title: workflow Pages: 1 -->
<svg width="2874pt" height="880pt"
 viewBox="0.00 0.00 2874.26 879.50" xmlns="http://www.w3.org/2000/svg" xmlns:xlink="http://www.w3.org/1999/xlink">
<g id="graph0" class="graph" transform="scale(1 1) rotate(0) translate(4 875.5)">
<title>workflow</title>
<polygon fill="white" stroke="none" points="-4,4 -4,-875.5 2870.26,-875.5 2870.26,4 -4,4"/>
<!-- place_c72633f673ef54769f56bbaf78d2baf4858bf7c3 -->
<g id="node1" class="node"><title>place_c72633f673ef54769f56bbaf78d2baf4858bf7c3</title>
<ellipse fill="lightblue" stroke="#333333" cx="36" cy="-495" rx="36" ry="36"/>
<text text-anchor="middle" x="36" y="-492.8" font-family="Arial" font-size="9.00">ACTIVE</text>
</g>
<!-- transition_ac3478d69a3c81fa62e60f5c3696165a4e5e6ac4 -->
<g id="node26" class="node"><title>transition_ac3478d69a3c81fa62e60f5c3696165a4e5e6ac4</title>
<polygon fill="none" stroke="#333333" points="267,-834 121,-834 121,-688 267,-688 267,-834"/>
<text text-anchor="middle" x="194" y="-758.8" font-family="Arial" font-size="9.00">MARK_TRANSACTION_ACTIVE</text>
</g>
<!-- place_c72633f673ef54769f56bbaf78d2baf4858bf7c3&#45;&gt;transition_ac3478d69a3c81fa62e60f5c3696165a4e5e6ac4 -->
<g id="edge11" class="edge"><title>place_c72633f673ef54769f56bbaf78d2baf4858bf7c3&#45;&gt;transition_ac3478d69a3c81fa62e60f5c3696165a4e5e6ac4</title>
<path fill="none" stroke="#333333" d="M64.2646,-517.966C67.1426,-522.14 69.8114,-526.562 72,-531 100.033,-587.85 76.162,-614.19 108,-669 110.954,-674.086 114.305,-679.068 117.927,-683.92"/>
<polygon fill="#333333" stroke="#333333" points="116.598,-685.063 121.031,-687.964 119.375,-682.932 116.598,-685.063"/>
</g>
<!-- transition_c1dfd96eea8cc2b62785275bca38ac261256e278 -->
<g id="node27" class="node"><title>transition_c1dfd96eea8cc2b62785275bca38ac261256e278</title>
<polygon fill="none" stroke="#333333" points="250.5,-669.5 137.5,-669.5 137.5,-556.5 250.5,-556.5 250.5,-669.5"/>
<text text-anchor="middle" x="194" y="-610.8" font-family="Arial" font-size="9.00">INITIATE_REVOCATION</text>
</g>
<!-- place_c72633f673ef54769f56bbaf78d2baf4858bf7c3&#45;&gt;transition_c1dfd96eea8cc2b62785275bca38ac261256e278 -->
<g id="edge13" class="edge"><title>place_c72633f673ef54769f56bbaf78d2baf4858bf7c3&#45;&gt;transition_c1dfd96eea8cc2b62785275bca38ac261256e278</title>
<path fill="none" stroke="#333333" d="M65.2504,-516.369C84.2576,-530.746 110.029,-550.24 133.447,-567.954"/>
<polygon fill="#333333" stroke="#333333" points="132.443,-569.388 137.486,-571.009 134.554,-566.597 132.443,-569.388"/>
</g>
<!-- transition_b1d5781111d84f7b3fe45a0852e59758cd7a87e5 -->
<g id="node31" class="node"><title>transition_b1d5781111d84f7b3fe45a0852e59758cd7a87e5</title>
<polygon fill="none" stroke="#333333" points="237,-538 151,-538 151,-452 237,-452 237,-538"/>
<text text-anchor="middle" x="194" y="-492.8" font-family="Arial" font-size="9.00">INITIATE_PAUSE</text>
</g>
<!-- place_c72633f673ef54769f56bbaf78d2baf4858bf7c3&#45;&gt;transition_b1d5781111d84f7b3fe45a0852e59758cd7a87e5 -->
<g id="edge21" class="edge"><title>place_c72633f673ef54769f56bbaf78d2baf4858bf7c3&#45;&gt;transition_b1d5781111d84f7b3fe45a0852e59758cd7a87e5</title>
<path fill="none" stroke="#333333" d="M72.0094,-495C93.7235,-495 121.902,-495 145.601,-495"/>
<polygon fill="#333333" stroke="#333333" points="145.897,-496.75 150.897,-495 145.897,-493.25 145.897,-496.75"/>
</g>
<!-- transition_fa35e192121eabf3dabf9f5ea6abdbcbc107ac3b -->
<g id="node35" class="node"><title>transition_fa35e192121eabf3dabf9f5ea6abdbcbc107ac3b</title>
<polygon fill="none" stroke="#333333" points="544.723,-504 384.723,-504 384.723,-344 544.723,-344 544.723,-504"/>
<text text-anchor="middle" x="464.723" y="-421.8" font-family="Arial" font-size="9.00">INITIATE_TRANSACTION_UPDATE</text>
</g>
<!-- place_c72633f673ef54769f56bbaf78d2baf4858bf7c3&#45;&gt;transition_fa35e192121eabf3dabf9f5ea6abdbcbc107ac3b -->
<g id="edge29" class="edge"><title>place_c72633f673ef54769f56bbaf78d2baf4858bf7c3&#45;&gt;transition_fa35e192121eabf3dabf9f5ea6abdbcbc107ac3b</title>
<path fill="none" stroke="#333333" d="M62.8291,-470.427C75.4431,-459.998 91.4514,-448.905 108,-443 196.595,-411.386 305.485,-410.631 379.28,-415.226"/>
<polygon fill="#333333" stroke="#333333" points="379.429,-416.989 384.532,-415.566 379.655,-413.497 379.429,-416.989"/>
</g>
<!-- transition_0716d9708d321ffb6a00818614779e779925365c -->
<g id="node38" class="node"><title>transition_0716d9708d321ffb6a00818614779e779925365c</title>
<polygon fill="none" stroke="#333333" points="280,-330 108,-330 108,-158 280,-158 280,-330"/>
<text text-anchor="middle" x="194" y="-241.8" font-family="Arial" font-size="9.00">INITIATE_PAYER_NUMBER_CHANGE</text>
</g>
<!-- place_c72633f673ef54769f56bbaf78d2baf4858bf7c3&#45;&gt;transition_0716d9708d321ffb6a00818614779e779925365c -->
<g id="edge35" class="edge"><title>place_c72633f673ef54769f56bbaf78d2baf4858bf7c3&#45;&gt;transition_0716d9708d321ffb6a00818614779e779925365c</title>
<path fill="none" stroke="#333333" d="M55.8172,-464.724C75.7968,-432.577 108.344,-380.209 136.723,-334.548"/>
<polygon fill="#333333" stroke="#333333" points="138.303,-335.322 139.456,-330.152 135.33,-333.474 138.303,-335.322"/>
</g>
<!-- place_e6055c5a6ee8feda91cdd5be510d21cec274b4c8 -->
<g id="node2" class="node"><title>place_e6055c5a6ee8feda91cdd5be510d21cec274b4c8</title>
<ellipse fill="none" stroke="#333333" cx="464.723" cy="-570" rx="48.05" ry="48.05"/>
<text text-anchor="middle" x="464.723" y="-567.8" font-family="Arial" font-size="9.00">AWAITING_PAUSE</text>
</g>
<!-- transition_17ba0791499db908433b80f37c5fbc89b870084b -->
<g id="node32" class="node"><title>transition_17ba0791499db908433b80f37c5fbc89b870084b</title>
<polygon fill="none" stroke="#333333" points="771.684,-599 699.684,-599 699.684,-527 771.684,-527 771.684,-599"/>
<text text-anchor="middle" x="735.684" y="-560.8" font-family="Arial" font-size="9.00">EXPORT</text>
</g>
<!-- place_e6055c5a6ee8feda91cdd5be510d21cec274b4c8&#45;&gt;transition_17ba0791499db908433b80f37c5fbc89b870084b -->
<g id="edge23" class="edge"><title>place_e6055c5a6ee8feda91cdd5be510d21cec274b4c8&#45;&gt;transition_17ba0791499db908433b80f37c5fbc89b870084b</title>
<path fill="none" stroke="#333333" d="M512.88,-568.773C564.338,-567.433 645.848,-565.312 694.415,-564.048"/>
<polygon fill="#333333" stroke="#333333" points="694.637,-565.793 699.59,-563.913 694.546,-562.294 694.637,-565.793"/>
</g>
<!-- place_603ac2dac5e51a400b34e54cd8c3863177d9c01b -->
<g id="node3" class="node"><title>place_603ac2dac5e51a400b34e54cd8c3863177d9c01b</title>
<ellipse fill="none" stroke="#333333" cx="1460.21" cy="-177" rx="92.3705" ry="92.3705"/>
<text text-anchor="middle" x="1460.21" y="-174.8" font-family="Arial" font-size="9.00">AWAITING_PAYER_NUMBER_CHANGE</text>
</g>
<!-- transition_91032ad7bbcb6cf72875e8e8207dcfba80173f7c -->
<g id="node41" class="node"><title>transition_91032ad7bbcb6cf72875e8e8207dcfba80173f7c</title>
<polygon fill="none" stroke="#333333" points="1693.15,-213 1621.15,-213 1621.15,-141 1693.15,-141 1693.15,-213"/>
<text text-anchor="middle" x="1657.15" y="-174.8" font-family="Arial" font-size="9.00">EXPORT</text>
</g>
<!-- place_603ac2dac5e51a400b34e54cd8c3863177d9c01b&#45;&gt;transition_91032ad7bbcb6cf72875e8e8207dcfba80173f7c -->
<g id="edge41" class="edge"><title>place_603ac2dac5e51a400b34e54cd8c3863177d9c01b&#45;&gt;transition_91032ad7bbcb6cf72875e8e8207dcfba80173f7c</title>
<path fill="none" stroke="#333333" d="M1552.69,-177C1574.93,-177 1597.59,-177 1616.01,-177"/>
<polygon fill="#333333" stroke="#333333" points="1616.09,-178.75 1621.09,-177 1616.09,-175.25 1616.09,-178.75"/>
</g>
<!-- place_664643489a68e9127ca5f29045b98aea46b3fffd -->
<g id="node4" class="node"><title>place_664643489a68e9127ca5f29045b98aea46b3fffd</title>
<ellipse fill="none" stroke="#333333" cx="464.723" cy="-177" rx="148.945" ry="148.945"/>
<text text-anchor="middle" x="464.723" y="-174.8" font-family="Arial" font-size="9.00">AWAITING_PAYER_NUMBER_CHANGE_TRANSACTION_UPDATE</text>
</g>
<!-- transition_9e6a55b6b4563e652a23be9d623ca5055c356940 -->
<g id="node39" class="node"><title>transition_9e6a55b6b4563e652a23be9d623ca5055c356940</title>
<polygon fill="none" stroke="#333333" points="771.684,-213 699.684,-213 699.684,-141 771.684,-141 771.684,-213"/>
<text text-anchor="middle" x="735.684" y="-174.8" font-family="Arial" font-size="9.00">EXPORT</text>
</g>
<!-- place_664643489a68e9127ca5f29045b98aea46b3fffd&#45;&gt;transition_9e6a55b6b4563e652a23be9d623ca5055c356940 -->
<g id="edge37" class="edge"><title>place_664643489a68e9127ca5f29045b98aea46b3fffd&#45;&gt;transition_9e6a55b6b4563e652a23be9d623ca5055c356940</title>
<path fill="none" stroke="#333333" d="M613.579,-177C643.413,-177 672.36,-177 694.469,-177"/>
<polygon fill="#333333" stroke="#333333" points="694.651,-178.75 699.651,-177 694.651,-175.25 694.651,-178.75"/>
</g>
<!-- place_9031bdf59fef50c79366e1e807bcd3165f1b86da -->
<g id="node5" class="node"><title>place_9031bdf59fef50c79366e1e807bcd3165f1b86da</title>
<ellipse fill="none" stroke="#333333" cx="464.723" cy="-704" rx="62.4683" ry="62.4683"/>
<text text-anchor="middle" x="464.723" y="-701.8" font-family="Arial" font-size="9.00">AWAITING_REVOCATION</text>
</g>
<!-- transition_902ba3cda1883801594b6e1b452790cc53948fda -->
<g id="node28" class="node"><title>transition_902ba3cda1883801594b6e1b452790cc53948fda</title>
<polygon fill="none" stroke="#333333" points="771.684,-741 699.684,-741 699.684,-669 771.684,-669 771.684,-741"/>
<text text-anchor="middle" x="735.684" y="-702.8" font-family="Arial" font-size="9.00">EXPORT</text>
</g>
<!-- place_9031bdf59fef50c79366e1e807bcd3165f1b86da&#45;&gt;transition_902ba3cda1883801594b6e1b452790cc53948fda -->
<g id="edge15" class="edge"><title>place_9031bdf59fef50c79366e1e807bcd3165f1b86da&#45;&gt;transition_902ba3cda1883801594b6e1b452790cc53948fda</title>
<path fill="none" stroke="#333333" d="M527.428,-704.229C578.695,-704.42 650.155,-704.686 694.363,-704.85"/>
<polygon fill="#333333" stroke="#333333" points="694.61,-706.601 699.616,-704.87 694.623,-703.101 694.61,-706.601"/>
</g>
<!-- place_9804773f9a8846d1ea1d0cde5eb01d893b382682 -->
<g id="node6" class="node"><title>place_9804773f9a8846d1ea1d0cde5eb01d893b382682</title>
<ellipse fill="none" stroke="#333333" cx="2253.66" cy="-354" rx="101.961" ry="101.961"/>
<text text-anchor="middle" x="2253.66" y="-351.8" font-family="Arial" font-size="9.00">AWAITING_TRANSACTION_REGISTRATION</text>
</g>
<!-- transition_77de68daecd823babbb58edb1c8e14d7106e83bb -->
<g id="node24" class="node"><title>transition_77de68daecd823babbb58edb1c8e14d7106e83bb</title>
<polygon fill="none" stroke="#333333" points="2463.39,-331 2391.39,-331 2391.39,-259 2463.39,-259 2463.39,-331"/>
<text text-anchor="middle" x="2427.39" y="-292.8" font-family="Arial" font-size="9.00">EXPORT</text>
</g>
<!-- place_9804773f9a8846d1ea1d0cde5eb01d893b382682&#45;&gt;transition_77de68daecd823babbb58edb1c8e14d7106e83bb -->
<g id="edge7" class="edge"><title>place_9804773f9a8846d1ea1d0cde5eb01d893b382682&#45;&gt;transition_77de68daecd823babbb58edb1c8e14d7106e83bb</title>
<path fill="none" stroke="#333333" d="M2350.06,-321.222C2362.78,-316.852 2375.22,-312.579 2386.24,-308.793"/>
<polygon fill="#333333" stroke="#333333" points="2387.04,-310.369 2391.2,-307.089 2385.9,-307.059 2387.04,-310.369"/>
</g>
<!-- place_a6d4df81ef896e3dae9187ed1a718a5abde20bcf -->
<g id="node7" class="node"><title>place_a6d4df81ef896e3dae9187ed1a718a5abde20bcf</title>
<ellipse fill="none" stroke="#333333" cx="735.684" cy="-410" rx="86.4775" ry="86.4775"/>
<text text-anchor="middle" x="735.684" y="-407.8" font-family="Arial" font-size="9.00">AWAITING_TRANSACTION_UPDATE</text>
</g>
<!-- transition_f1abd670358e036c31296e66b3b66c382ac00812 -->
<g id="node36" class="node"><title>transition_f1abd670358e036c31296e66b3b66c382ac00812</title>
<polygon fill="none" stroke="#333333" points="1033.35,-419 961.349,-419 961.349,-347 1033.35,-347 1033.35,-419"/>
<text text-anchor="middle" x="997.349" y="-380.8" font-family="Arial" font-size="9.00">EXPORT</text>
</g>
<!-- place_a6d4df81ef896e3dae9187ed1a718a5abde20bcf&#45;&gt;transition_f1abd670358e036c31296e66b3b66c382ac00812 -->
<g id="edge31" class="edge"><title>place_a6d4df81ef896e3dae9187ed1a718a5abde20bcf&#45;&gt;transition_f1abd670358e036c31296e66b3b66c382ac00812</title>
<path fill="none" stroke="#333333" d="M821.708,-401.159C866.82,-396.468 920.159,-390.922 955.915,-387.204"/>
<polygon fill="#333333" stroke="#333333" points="956.267,-388.927 961.059,-386.669 955.905,-385.446 956.267,-388.927"/>
</g>
<!-- place_0b99cebe565822c64ac5d84aecb00fe40e59cbd3 -->
<g id="node8" class="node"><title>place_0b99cebe565822c64ac5d84aecb00fe40e59cbd3</title>
<ellipse fill="none" stroke="#333333" cx="36" cy="-585" rx="36" ry="36"/>
<text text-anchor="middle" x="36" y="-582.8" font-family="Arial" font-size="9.00">ERROR</text>
</g>
<!-- place_d2b9cb7f8fd77caeaa93cb6ecf9a2c6c01a8aa39 -->
<g id="node9" class="node"><title>place_d2b9cb7f8fd77caeaa93cb6ecf9a2c6c01a8aa39</title>
<ellipse fill="none" stroke="#333333" cx="1844.79" cy="-574" rx="44.8533" ry="44.8533"/>
<text text-anchor="middle" x="1844.79" y="-571.8" font-family="Arial" font-size="9.00">MANDATE_SENT</text>
</g>
<!-- transition_da4b9237bacccdf19c0760cab7aec4a8359010b0 -->
<g id="node23" class="node"><title>transition_da4b9237bacccdf19c0760cab7aec4a8359010b0</title>
<polygon fill="none" stroke="#333333" points="2115.93,-650 1963.93,-650 1963.93,-498 2115.93,-498 2115.93,-650"/>
<text text-anchor="middle" x="2039.93" y="-571.8" font-family="Arial" font-size="9.00">MARK_MANDATE_REGISTERED</text>
</g>
<!-- place_d2b9cb7f8fd77caeaa93cb6ecf9a2c6c01a8aa39&#45;&gt;transition_da4b9237bacccdf19c0760cab7aec4a8359010b0 -->
<g id="edge5" class="edge"><title>place_d2b9cb7f8fd77caeaa93cb6ecf9a2c6c01a8aa39&#45;&gt;transition_da4b9237bacccdf19c0760cab7aec4a8359010b0</title>
<path fill="none" stroke="#333333" d="M1890.1,-574C1910.39,-574 1935.09,-574 1958.49,-574"/>
<polygon fill="#333333" stroke="#333333" points="1958.77,-575.75 1963.77,-574 1958.77,-572.25 1958.77,-575.75"/>
</g>
<!-- place_e1b6adc61c1e09203349001f5eeaf8573afcf571 -->
<g id="node10" class="node"><title>place_e1b6adc61c1e09203349001f5eeaf8573afcf571</title>
<ellipse fill="none" stroke="#333333" cx="1460.21" cy="-686" rx="63.0011" ry="63.0011"/>
<text text-anchor="middle" x="1460.21" y="-683.8" font-family="Arial" font-size="9.00">NEW_DIGITAL_MANDATE</text>
</g>
<!-- transition_356a192b7913b04c54574d18c28d46e6395428ab -->
<g id="node22" class="node"><title>transition_356a192b7913b04c54574d18c28d46e6395428ab</title>
<polygon fill="none" stroke="#333333" points="1693.15,-702 1621.15,-702 1621.15,-630 1693.15,-630 1693.15,-702"/>
<text text-anchor="middle" x="1657.15" y="-663.8" font-family="Arial" font-size="9.00">EXPORT</text>
</g>
<!-- place_e1b6adc61c1e09203349001f5eeaf8573afcf571&#45;&gt;transition_356a192b7913b04c54574d18c28d46e6395428ab -->
<g id="edge3" class="edge"><title>place_e1b6adc61c1e09203349001f5eeaf8573afcf571&#45;&gt;transition_356a192b7913b04c54574d18c28d46e6395428ab</title>
<path fill="none" stroke="#333333" d="M1523.16,-679.644C1553.47,-676.535 1589.09,-672.88 1615.83,-670.136"/>
<polygon fill="#333333" stroke="#333333" points="1616.26,-671.851 1621.06,-669.6 1615.9,-668.37 1616.26,-671.851"/>
</g>
<!-- place_818af3c4262f96a99ab981900e5a0e1c415b44df -->
<g id="node11" class="node"><title>place_818af3c4262f96a99ab981900e5a0e1c415b44df</title>
<ellipse fill="none" stroke="#333333" cx="1460.21" cy="-562" rx="43.2552" ry="43.2552"/>
<text text-anchor="middle" x="1460.21" y="-559.8" font-family="Arial" font-size="9.00">NEW_MANDATE</text>
</g>
<!-- transition_b6589fc6ab0dc82cf12099d1c2d40ab994e8410c -->
<g id="node21" class="node"><title>transition_b6589fc6ab0dc82cf12099d1c2d40ab994e8410c</title>
<polygon fill="none" stroke="#333333" points="1693.15,-602 1621.15,-602 1621.15,-530 1693.15,-530 1693.15,-602"/>
<text text-anchor="middle" x="1657.15" y="-563.8" font-family="Arial" font-size="9.00">EXPORT</text>
</g>
<!-- place_818af3c4262f96a99ab981900e5a0e1c415b44df&#45;&gt;transition_b6589fc6ab0dc82cf12099d1c2d40ab994e8410c -->
<g id="edge1" class="edge"><title>place_818af3c4262f96a99ab981900e5a0e1c415b44df&#45;&gt;transition_b6589fc6ab0dc82cf12099d1c2d40ab994e8410c</title>
<path fill="none" stroke="#333333" d="M1503.99,-562.878C1537.29,-563.561 1583.18,-564.503 1615.83,-565.173"/>
<polygon fill="#333333" stroke="#333333" points="1615.92,-566.925 1620.96,-565.278 1615.99,-563.426 1615.92,-566.925"/>
</g>
<!-- place_ead9028928ebb77be9947a639f024bb8b67c643a -->
<g id="node12" class="node"><title>place_ead9028928ebb77be9947a639f024bb8b67c643a</title>
<ellipse fill="none" stroke="#333333" cx="997.349" cy="-553" rx="38.961" ry="38.961"/>
<text text-anchor="middle" x="997.349" y="-550.8" font-family="Arial" font-size="9.00">PAUSE_SENT</text>
</g>
<!-- transition_7b52009b64fd0a2a49e6d8a939753077792b0554 -->
<g id="node33" class="node"><title>transition_7b52009b64fd0a2a49e6d8a939753077792b0554</title>
<polygon fill="none" stroke="#333333" points="1331.78,-619.5 1172.78,-619.5 1172.78,-460.5 1331.78,-460.5 1331.78,-619.5"/>
<text text-anchor="middle" x="1252.28" y="-537.8" font-family="Arial" font-size="9.00">MARK_TRANSACTION_REMOVED</text>
</g>
<!-- place_ead9028928ebb77be9947a639f024bb8b67c643a&#45;&gt;transition_7b52009b64fd0a2a49e6d8a939753077792b0554 -->
<g id="edge25" class="edge"><title>place_ead9028928ebb77be9947a639f024bb8b67c643a&#45;&gt;transition_7b52009b64fd0a2a49e6d8a939753077792b0554</title>
<path fill="none" stroke="#333333" d="M1036.22,-551.054C1070.78,-549.277 1123.1,-546.588 1167.47,-544.307"/>
<polygon fill="#333333" stroke="#333333" points="1167.66,-546.05 1172.57,-544.046 1167.48,-542.555 1167.66,-546.05"/>
</g>
<!-- place_cd5d07c90b5c8a0724fc18d8b9c909271052f2b5 -->
<g id="node13" class="node"><title>place_cd5d07c90b5c8a0724fc18d8b9c909271052f2b5</title>
<ellipse fill="none" stroke="#333333" cx="1460.21" cy="-465" rx="36" ry="36"/>
<text text-anchor="middle" x="1460.21" y="-462.8" font-family="Arial" font-size="9.00">PAUSED</text>
</g>
<!-- transition_bd307a3ec329e10a2cff8fb87480823da114f8f4 -->
<g id="node34" class="node"><title>transition_bd307a3ec329e10a2cff8fb87480823da114f8f4</title>
<polygon fill="none" stroke="#333333" points="2088.43,-479.5 1991.43,-479.5 1991.43,-382.5 2088.43,-382.5 2088.43,-479.5"/>
<text text-anchor="middle" x="2039.93" y="-428.8" font-family="Arial" font-size="9.00">INITIATE_RESTART</text>
</g>
<!-- place_cd5d07c90b5c8a0724fc18d8b9c909271052f2b5&#45;&gt;transition_bd307a3ec329e10a2cff8fb87480823da114f8f4 -->
<g id="edge27" class="edge"><title>place_cd5d07c90b5c8a0724fc18d8b9c909271052f2b5&#45;&gt;transition_bd307a3ec329e10a2cff8fb87480823da114f8f4</title>
<path fill="none" stroke="#333333" d="M1496.41,-464.691C1574.32,-463.761 1767.17,-460.103 1927.93,-446 1946.96,-444.33 1967.74,-441.732 1986.11,-439.165"/>
<polygon fill="#333333" stroke="#333333" points="1986.52,-440.874 1991.23,-438.442 1986.03,-437.409 1986.52,-440.874"/>
</g>
<!-- place_1d873f095061223ff3e5aa2923f8eed67b6a60f3 -->
<g id="node14" class="node"><title>place_1d873f095061223ff3e5aa2923f8eed67b6a60f3</title>
<ellipse fill="none" stroke="#333333" cx="1844.79" cy="-177" rx="83.2803" ry="83.2803"/>
<text text-anchor="middle" x="1844.79" y="-174.8" font-family="Arial" font-size="9.00">PAYER_NUMBER_CHANGE_SENT</text>
</g>
<!-- transition_472b07b9fcf2c2451e8781e944bf5f77cd8457c8 -->
<g id="node42" class="node"><title>transition_472b07b9fcf2c2451e8781e944bf5f77cd8457c8</title>
<polygon fill="none" stroke="#333333" points="2115.93,-289 1963.93,-289 1963.93,-137 2115.93,-137 2115.93,-289"/>
<text text-anchor="middle" x="2039.93" y="-210.8" font-family="Arial" font-size="9.00">MARK_MANDATE_REGISTERED</text>
</g>
<!-- place_1d873f095061223ff3e5aa2923f8eed67b6a60f3&#45;&gt;transition_472b07b9fcf2c2451e8781e944bf5f77cd8457c8 -->
<g id="edge43" class="edge"><title>place_1d873f095061223ff3e5aa2923f8eed67b6a60f3&#45;&gt;transition_472b07b9fcf2c2451e8781e944bf5f77cd8457c8</title>
<path fill="none" stroke="#333333" d="M1926.58,-192.059C1937.15,-194.029 1947.98,-196.048 1958.54,-198.017"/>
<polygon fill="#333333" stroke="#333333" points="1958.47,-199.783 1963.71,-198.979 1959.11,-196.343 1958.47,-199.783"/>
</g>
<!-- place_37caab4993715f768067bde3a516958dad5b68c4 -->
<g id="node15" class="node"><title>place_37caab4993715f768067bde3a516958dad5b68c4</title>
<ellipse fill="none" stroke="#333333" cx="997.349" cy="-177" rx="139.355" ry="139.355"/>
<text text-anchor="middle" x="997.349" y="-174.8" font-family="Arial" font-size="9.00">PAYER_NUMBER_CHANGE_TRANSACTION_UPDATE_SENT</text>
</g>
<!-- transition_b3f0c7f6bb763af1be91d9e74eabfeb199dc1f1f -->
<g id="node40" class="node"><title>transition_b3f0c7f6bb763af1be91d9e74eabfeb199dc1f1f</title>
<polygon fill="none" stroke="#333333" points="1331.78,-256.5 1172.78,-256.5 1172.78,-97.5 1331.78,-97.5 1331.78,-256.5"/>
<text text-anchor="middle" x="1252.28" y="-174.8" font-family="Arial" font-size="9.00">MARK_TRANSACTION_REMOVED</text>
</g>
<!-- place_37caab4993715f768067bde3a516958dad5b68c4&#45;&gt;transition_b3f0c7f6bb763af1be91d9e74eabfeb199dc1f1f -->
<g id="edge39" class="edge"><title>place_37caab4993715f768067bde3a516958dad5b68c4&#45;&gt;transition_b3f0c7f6bb763af1be91d9e74eabfeb199dc1f1f</title>
<path fill="none" stroke="#333333" d="M1137.02,-177C1147.41,-177 1157.68,-177 1167.56,-177"/>
<polygon fill="#333333" stroke="#333333" points="1167.69,-178.75 1172.69,-177 1167.69,-175.25 1167.69,-178.75"/>
</g>
<!-- place_4ab3919e3d5f33ebd977a1af7ba9fb5159a24b86 -->
<g id="node16" class="node"><title>place_4ab3919e3d5f33ebd977a1af7ba9fb5159a24b86</title>
<ellipse fill="none" stroke="#333333" cx="1844.79" cy="-803" rx="36" ry="36"/>
<text text-anchor="middle" x="1844.79" y="-800.8" font-family="Arial" font-size="9.00">REMOVED</text>
</g>
<!-- place_e6f4dd32e509fdb03fd79f1ac358ad70ffed3131 -->
<g id="node17" class="node"><title>place_e6f4dd32e509fdb03fd79f1ac358ad70ffed3131</title>
<ellipse fill="none" stroke="#333333" cx="997.349" cy="-706" rx="53.3786" ry="53.3786"/>
<text text-anchor="middle" x="997.349" y="-703.8" font-family="Arial" font-size="9.00">REVOCATION_SENT</text>
</g>
<!-- transition_fe5dbbcea5ce7e2988b8c69bcfdfde8904aabc1f -->
<g id="node29" class="node"><title>transition_fe5dbbcea5ce7e2988b8c69bcfdfde8904aabc1f</title>
<polygon fill="none" stroke="#333333" points="1320.78,-777.5 1183.78,-777.5 1183.78,-640.5 1320.78,-640.5 1320.78,-777.5"/>
<text text-anchor="middle" x="1252.28" y="-706.8" font-family="Arial" font-size="9.00">MARK_MANDATE_REVOKED</text>
</g>
<!-- place_e6f4dd32e509fdb03fd79f1ac358ad70ffed3131&#45;&gt;transition_fe5dbbcea5ce7e2988b8c69bcfdfde8904aabc1f -->
<g id="edge17" class="edge"><title>place_e6f4dd32e509fdb03fd79f1ac358ad70ffed3131&#45;&gt;transition_fe5dbbcea5ce7e2988b8c69bcfdfde8904aabc1f</title>
<path fill="none" stroke="#333333" d="M1050.76,-706.622C1087.59,-707.059 1137.37,-707.649 1178.11,-708.132"/>
<polygon fill="#333333" stroke="#333333" points="1178.52,-709.887 1183.54,-708.197 1178.56,-706.387 1178.52,-709.887"/>
</g>
<!-- place_cfd92d62c5a0f95de1ff12861b9eefedca756f7b -->
<g id="node18" class="node"><title>place_cfd92d62c5a0f95de1ff12861b9eefedca756f7b</title>
<ellipse fill="none" stroke="#333333" cx="1460.21" cy="-803" rx="36" ry="36"/>
<text text-anchor="middle" x="1460.21" y="-800.8" font-family="Arial" font-size="9.00">REVOKED</text>
</g>
<!-- transition_0ade7c2cf97f75d009975f4d720d1fa6c19f4897 -->
<g id="node30" class="node"><title>transition_0ade7c2cf97f75d009975f4d720d1fa6c19f4897</title>
<polygon fill="none" stroke="#333333" points="1725.65,-871.5 1588.65,-871.5 1588.65,-734.5 1725.65,-734.5 1725.65,-871.5"/>
<text text-anchor="middle" x="1657.15" y="-800.8" font-family="Arial" font-size="9.00">MARK_MANDATE_REMOVED</text>
</g>
<!-- place_cfd92d62c5a0f95de1ff12861b9eefedca756f7b&#45;&gt;transition_0ade7c2cf97f75d009975f4d720d1fa6c19f4897 -->
<g id="edge19" class="edge"><title>place_cfd92d62c5a0f95de1ff12861b9eefedca756f7b&#45;&gt;transition_0ade7c2cf97f75d009975f4d720d1fa6c19f4897</title>
<path fill="none" stroke="#333333" d="M1496.51,-803C1520.68,-803 1553.6,-803 1583.26,-803"/>
<polygon fill="#333333" stroke="#333333" points="1583.38,-804.75 1588.38,-803 1583.38,-801.25 1583.38,-804.75"/>
</g>
<!-- place_a341b9d56a2c3bfd653b2d5b01bddd97b7946ca1 -->
<g id="node19" class="node"><title>place_a341b9d56a2c3bfd653b2d5b01bddd97b7946ca1</title>
<ellipse fill="none" stroke="#333333" cx="2591.82" cy="-178" rx="92.3705" ry="92.3705"/>
<text text-anchor="middle" x="2591.82" y="-175.8" font-family="Arial" font-size="9.00">TRANSACTION_REGISTRATION_SENT</text>
</g>
<!-- transition_1b6453892473a467d07372d45eb05abc2031647a -->
<g id="node25" class="node"><title>transition_1b6453892473a467d07372d45eb05abc2031647a</title>
<polygon fill="none" stroke="#333333" points="2866.26,-162 2720.26,-162 2720.26,-16 2866.26,-16 2866.26,-162"/>
<text text-anchor="middle" x="2793.26" y="-86.8" font-family="Arial" font-size="9.00">MARK_TRANSACTION_ACTIVE</text>
</g>
<!-- place_a341b9d56a2c3bfd653b2d5b01bddd97b7946ca1&#45;&gt;transition_1b6453892473a467d07372d45eb05abc2031647a -->
<g id="edge9" class="edge"><title>place_a341b9d56a2c3bfd653b2d5b01bddd97b7946ca1&#45;&gt;transition_1b6453892473a467d07372d45eb05abc2031647a</title>
<path fill="none" stroke="#333333" d="M2676.53,-140.643C2689.45,-134.881 2702.73,-128.955 2715.48,-123.265"/>
<polygon fill="#333333" stroke="#333333" points="2716.29,-124.816 2720.15,-121.18 2714.87,-121.62 2716.29,-124.816"/>
</g>
<!-- place_dc5c141b4b017ab2c3c93372cd73211e591b3dea -->
<g id="node20" class="node"><title>place_dc5c141b4b017ab2c3c93372cd73211e591b3dea</title>
<ellipse fill="none" stroke="#333333" cx="1252.28" cy="-361" rx="76.8866" ry="76.8866"/>
<text text-anchor="middle" x="1252.28" y="-358.8" font-family="Arial" font-size="9.00">TRANSACTION_UPDATE_SENT</text>
</g>
<!-- transition_1574bddb75c78a6fd2251d61e2993b5146201319 -->
<g id="node37" class="node"><title>transition_1574bddb75c78a6fd2251d61e2993b5146201319</title>
<polygon fill="none" stroke="#333333" points="1924.29,-437.5 1765.29,-437.5 1765.29,-278.5 1924.29,-278.5 1924.29,-437.5"/>
<text text-anchor="middle" x="1844.79" y="-355.8" font-family="Arial" font-size="9.00">MARK_TRANSACTION_REMOVED</text>
</g>
<!-- place_dc5c141b4b017ab2c3c93372cd73211e591b3dea&#45;&gt;transition_1574bddb75c78a6fd2251d61e2993b5146201319 -->
<g id="edge33" class="edge"><title>place_dc5c141b4b017ab2c3c93372cd73211e591b3dea&#45;&gt;transition_1574bddb75c78a6fd2251d61e2993b5146201319</title>
<path fill="none" stroke="#333333" d="M1329.27,-360.614C1440.07,-360.051 1645.26,-359.009 1760.2,-358.425"/>
<polygon fill="#333333" stroke="#333333" points="1760.28,-360.174 1765.27,-358.399 1760.26,-356.674 1760.28,-360.174"/>
</g>
<!-- transition_b6589fc6ab0dc82cf12099d1c2d40ab994e8410c&#45;&gt;place_d2b9cb7f8fd77caeaa93cb6ecf9a2c6c01a8aa39 -->
<g id="edge2" class="edge"><title>transition_b6589fc6ab0dc82cf12099d1c2d40ab994e8410c&#45;&gt;place_d2b9cb7f8fd77caeaa93cb6ecf9a2c6c01a8aa39</title>
<path fill="none" stroke="#333333" d="M1693.5,-567.524C1722.16,-568.759 1762.87,-570.513 1794.69,-571.884"/>
<polygon fill="#333333" stroke="#333333" points="1794.65,-573.634 1799.72,-572.101 1794.8,-570.137 1794.65,-573.634"/>
</g>
<!-- transition_356a192b7913b04c54574d18c28d46e6395428ab&#45;&gt;place_d2b9cb7f8fd77caeaa93cb6ecf9a2c6c01a8aa39 -->
<g id="edge4" class="edge"><title>transition_356a192b7913b04c54574d18c28d46e6395428ab&#45;&gt;place_d2b9cb7f8fd77caeaa93cb6ecf9a2c6c01a8aa39</title>
<path fill="none" stroke="#333333" d="M1693.5,-648.479C1723.58,-633.572 1766.94,-612.086 1799.36,-596.019"/>
<polygon fill="#333333" stroke="#333333" points="1800.36,-597.477 1804.06,-593.689 1798.8,-594.341 1800.36,-597.477"/>
</g>
<!-- transition_da4b9237bacccdf19c0760cab7aec4a8359010b0&#45;&gt;place_9804773f9a8846d1ea1d0cde5eb01d893b382682 -->
<g id="edge6" class="edge"><title>transition_da4b9237bacccdf19c0760cab7aec4a8359010b0&#45;&gt;place_9804773f9a8846d1ea1d0cde5eb01d893b382682</title>
<path fill="none" stroke="#333333" d="M2114.09,-497.98C2134.99,-476.26 2157.78,-452.58 2178.73,-430.812"/>
<polygon fill="#333333" stroke="#333333" points="2180.14,-431.871 2182.35,-427.054 2177.62,-429.444 2180.14,-431.871"/>
</g>
<!-- transition_77de68daecd823babbb58edb1c8e14d7106e83bb&#45;&gt;place_a341b9d56a2c3bfd653b2d5b01bddd97b7946ca1 -->
<g id="edge8" class="edge"><title>transition_77de68daecd823babbb58edb1c8e14d7106e83bb&#45;&gt;place_a341b9d56a2c3bfd653b2d5b01bddd97b7946ca1</title>
<path fill="none" stroke="#333333" d="M2463.63,-269.613C2477.91,-259.328 2495.02,-247.007 2511.99,-234.786"/>
<polygon fill="#333333" stroke="#333333" points="2513.26,-236.024 2516.29,-231.682 2511.21,-233.184 2513.26,-236.024"/>
</g>
<!-- transition_1b6453892473a467d07372d45eb05abc2031647a&#45;&gt;place_c72633f673ef54769f56bbaf78d2baf4858bf7c3 -->
<g id="edge10" class="edge"><title>transition_1b6453892473a467d07372d45eb05abc2031647a&#45;&gt;place_c72633f673ef54769f56bbaf78d2baf4858bf7c3</title>
<path fill="none" stroke="#333333" d="M2720,-60.4726C2647.48,-34.4405 2531.95,-0 2428.39,-0 463.723,-0 463.723,-0 463.723,-0 292.315,-0 205.814,-8.24079 108,-149 73.8446,-198.152 50.4942,-373.537 41.331,-454.055"/>
<polygon fill="#333333" stroke="#333333" points="39.57,-454.054 40.7479,-459.219 43.0479,-454.447 39.57,-454.054"/>
</g>
<!-- transition_ac3478d69a3c81fa62e60f5c3696165a4e5e6ac4&#45;&gt;place_c72633f673ef54769f56bbaf78d2baf4858bf7c3 -->
<g id="edge12" class="edge"><title>transition_ac3478d69a3c81fa62e60f5c3696165a4e5e6ac4&#45;&gt;place_c72633f673ef54769f56bbaf78d2baf4858bf7c3</title>
<path fill="none" stroke="#333333" d="M120.833,-705.663C116.091,-699.677 111.73,-693.421 108,-687 76.162,-632.19 100.033,-605.85 72,-549 68.6569,-542.22 64.1934,-535.481 59.5755,-529.122"/>
<polygon fill="#333333" stroke="#333333" points="60.7467,-527.762 56.3656,-524.784 57.9332,-529.844 60.7467,-527.762"/>
</g>
<!-- transition_c1dfd96eea8cc2b62785275bca38ac261256e278&#45;&gt;place_9031bdf59fef50c79366e1e807bcd3165f1b86da -->
<g id="edge14" class="edge"><title>transition_c1dfd96eea8cc2b62785275bca38ac261256e278&#45;&gt;place_9031bdf59fef50c79366e1e807bcd3165f1b86da</title>
<path fill="none" stroke="#333333" d="M250.679,-631.855C294.288,-646.623 354.969,-667.172 400.42,-682.563"/>
<polygon fill="#333333" stroke="#333333" points="400.029,-684.278 405.326,-684.225 401.151,-680.963 400.029,-684.278"/>
</g>
<!-- transition_902ba3cda1883801594b6e1b452790cc53948fda&#45;&gt;place_e6f4dd32e509fdb03fd79f1ac358ad70ffed3131 -->
<g id="edge16" class="edge"><title>transition_902ba3cda1883801594b6e1b452790cc53948fda&#45;&gt;place_e6f4dd32e509fdb03fd79f1ac358ad70ffed3131</title>
<path fill="none" stroke="#333333" d="M771.703,-705.135C814.531,-705.3 887.623,-705.581 938.769,-705.778"/>
<polygon fill="#333333" stroke="#333333" points="938.952,-707.529 943.958,-705.798 938.965,-704.029 938.952,-707.529"/>
</g>
<!-- transition_fe5dbbcea5ce7e2988b8c69bcfdfde8904aabc1f&#45;&gt;place_cfd92d62c5a0f95de1ff12861b9eefedca756f7b -->
<g id="edge18" class="edge"><title>transition_fe5dbbcea5ce7e2988b8c69bcfdfde8904aabc1f&#45;&gt;place_cfd92d62c5a0f95de1ff12861b9eefedca756f7b</title>
<path fill="none" stroke="#333333" d="M1320.99,-739.909C1354.79,-755.337 1394.36,-773.396 1422.47,-786.231"/>
<polygon fill="#333333" stroke="#333333" points="1421.96,-787.92 1427.24,-788.404 1423.41,-784.736 1421.96,-787.92"/>
</g>
<!-- transition_0ade7c2cf97f75d009975f4d720d1fa6c19f4897&#45;&gt;place_4ab3919e3d5f33ebd977a1af7ba9fb5159a24b86 -->
<g id="edge20" class="edge"><title>transition_0ade7c2cf97f75d009975f4d720d1fa6c19f4897&#45;&gt;place_4ab3919e3d5f33ebd977a1af7ba9fb5159a24b86</title>
<path fill="none" stroke="#333333" d="M1725.69,-803C1751.81,-803 1780.82,-803 1803.55,-803"/>
<polygon fill="#333333" stroke="#333333" points="1803.6,-804.75 1808.6,-803 1803.6,-801.25 1803.6,-804.75"/>
</g>
<!-- transition_b1d5781111d84f7b3fe45a0852e59758cd7a87e5&#45;&gt;place_e6055c5a6ee8feda91cdd5be510d21cec274b4c8 -->
<g id="edge22" class="edge"><title>transition_b1d5781111d84f7b3fe45a0852e59758cd7a87e5&#45;&gt;place_e6055c5a6ee8feda91cdd5be510d21cec274b4c8</title>
<path fill="none" stroke="#333333" d="M237.284,-506.801C284.964,-520.109 362.454,-541.736 413.26,-555.916"/>
<polygon fill="#333333" stroke="#333333" points="412.805,-557.606 418.092,-557.265 413.746,-554.235 412.805,-557.606"/>
</g>
<!-- transition_17ba0791499db908433b80f37c5fbc89b870084b&#45;&gt;place_ead9028928ebb77be9947a639f024bb8b67c643a -->
<g id="edge24" class="edge"><title>transition_17ba0791499db908433b80f37c5fbc89b870084b&#45;&gt;place_ead9028928ebb77be9947a639f024bb8b67c643a</title>
<path fill="none" stroke="#333333" d="M771.703,-561.651C818.814,-559.837 902.544,-556.613 953.402,-554.654"/>
<polygon fill="#333333" stroke="#333333" points="953.593,-556.398 958.522,-554.457 953.459,-552.901 953.593,-556.398"/>
</g>
<!-- transition_7b52009b64fd0a2a49e6d8a939753077792b0554&#45;&gt;place_cd5d07c90b5c8a0724fc18d8b9c909271052f2b5 -->
<g id="edge26" class="edge"><title>transition_7b52009b64fd0a2a49e6d8a939753077792b0554&#45;&gt;place_cd5d07c90b5c8a0724fc18d8b9c909271052f2b5</title>
<path fill="none" stroke="#333333" d="M1332.01,-511.325C1362.67,-500.159 1396.37,-487.887 1421.37,-478.781"/>
<polygon fill="#333333" stroke="#333333" points="1422.15,-480.359 1426.25,-477.003 1420.96,-477.07 1422.15,-480.359"/>
</g>
<!-- transition_bd307a3ec329e10a2cff8fb87480823da114f8f4&#45;&gt;place_9804773f9a8846d1ea1d0cde5eb01d893b382682 -->
<g id="edge28" class="edge"><title>transition_bd307a3ec329e10a2cff8fb87480823da114f8f4&#45;&gt;place_9804773f9a8846d1ea1d0cde5eb01d893b382682</title>
<path fill="none" stroke="#333333" d="M2088.44,-413.72C2107.57,-406.765 2130.38,-398.467 2152.84,-390.302"/>
<polygon fill="#333333" stroke="#333333" points="2153.52,-391.915 2157.62,-388.562 2152.32,-388.626 2153.52,-391.915"/>
</g>
<!-- transition_fa35e192121eabf3dabf9f5ea6abdbcbc107ac3b&#45;&gt;place_a6d4df81ef896e3dae9187ed1a718a5abde20bcf -->
<g id="edge30" class="edge"><title>transition_fa35e192121eabf3dabf9f5ea6abdbcbc107ac3b&#45;&gt;place_a6d4df81ef896e3dae9187ed1a718a5abde20bcf</title>
<path fill="none" stroke="#333333" d="M544.965,-419.875C576.147,-418.252 612.125,-416.379 644.312,-414.704"/>
<polygon fill="#333333" stroke="#333333" points="644.542,-416.445 649.444,-414.437 644.36,-412.949 644.542,-416.445"/>
</g>
<!-- transition_f1abd670358e036c31296e66b3b66c382ac00812&#45;&gt;place_dc5c141b4b017ab2c3c93372cd73211e591b3dea -->
<g id="edge32" class="edge"><title>transition_f1abd670358e036c31296e66b3b66c382ac00812&#45;&gt;place_dc5c141b4b017ab2c3c93372cd73211e591b3dea</title>
<path fill="none" stroke="#333333" d="M1033.52,-379.941C1068.75,-376.877 1124.22,-372.052 1170.35,-368.039"/>
<polygon fill="#333333" stroke="#333333" points="1170.53,-369.78 1175.36,-367.604 1170.23,-366.293 1170.53,-369.78"/>
</g>
<!-- transition_1574bddb75c78a6fd2251d61e2993b5146201319&#45;&gt;place_9804773f9a8846d1ea1d0cde5eb01d893b382682 -->
<g id="edge34" class="edge"><title>transition_1574bddb75c78a6fd2251d61e2993b5146201319&#45;&gt;place_9804773f9a8846d1ea1d0cde5eb01d893b382682</title>
<path fill="none" stroke="#333333" d="M1924.72,-357.224C1987.89,-356.603 2077.1,-355.726 2146.53,-355.043"/>
<polygon fill="#333333" stroke="#333333" points="2146.93,-356.79 2151.91,-354.99 2146.89,-353.29 2146.93,-356.79"/>
</g>
<!-- transition_0716d9708d321ffb6a00818614779e779925365c&#45;&gt;place_664643489a68e9127ca5f29045b98aea46b3fffd -->
<g id="edge36" class="edge"><title>transition_0716d9708d321ffb6a00818614779e779925365c&#45;&gt;place_664643489a68e9127ca5f29045b98aea46b3fffd</title>
<path fill="none" stroke="#333333" d="M280.025,-222.801C291.327,-219.983 303.17,-217.03 315.165,-214.04"/>
<polygon fill="#333333" stroke="#333333" points="315.886,-215.664 320.314,-212.756 315.039,-212.267 315.886,-215.664"/>
</g>
<!-- transition_9e6a55b6b4563e652a23be9d623ca5055c356940&#45;&gt;place_37caab4993715f768067bde3a516958dad5b68c4 -->
<g id="edge38" class="edge"><title>transition_9e6a55b6b4563e652a23be9d623ca5055c356940&#45;&gt;place_37caab4993715f768067bde3a516958dad5b68c4</title>
<path fill="none" stroke="#333333" d="M771.703,-177C793.23,-177 822.403,-177 852.592,-177"/>
<polygon fill="#333333" stroke="#333333" points="852.841,-178.75 857.841,-177 852.841,-175.25 852.841,-178.75"/>
</g>
<!-- transition_b3f0c7f6bb763af1be91d9e74eabfeb199dc1f1f&#45;&gt;place_603ac2dac5e51a400b34e54cd8c3863177d9c01b -->
<g id="edge40" class="edge"><title>transition_b3f0c7f6bb763af1be91d9e74eabfeb199dc1f1f&#45;&gt;place_603ac2dac5e51a400b34e54cd8c3863177d9c01b</title>
<path fill="none" stroke="#333333" d="M1332.01,-177C1342.06,-177 1352.44,-177 1362.73,-177"/>
<polygon fill="#333333" stroke="#333333" points="1362.78,-178.75 1367.77,-177 1362.77,-175.25 1362.78,-178.75"/>
</g>
<!-- transition_91032ad7bbcb6cf72875e8e8207dcfba80173f7c&#45;&gt;place_1d873f095061223ff3e5aa2923f8eed67b6a60f3 -->
<g id="edge42" class="edge"><title>transition_91032ad7bbcb6cf72875e8e8207dcfba80173f7c&#45;&gt;place_1d873f095061223ff3e5aa2923f8eed67b6a60f3</title>
<path fill="none" stroke="#333333" d="M1693.5,-177C1711.5,-177 1734.24,-177 1756.56,-177"/>
<polygon fill="#333333" stroke="#333333" points="1756.61,-178.75 1761.61,-177 1756.61,-175.25 1756.61,-178.75"/>
</g>
<!-- transition_472b07b9fcf2c2451e8781e944bf5f77cd8457c8&#45;&gt;place_9804773f9a8846d1ea1d0cde5eb01d893b382682 -->
<g id="edge44" class="edge"><title>transition_472b07b9fcf2c2451e8781e944bf5f77cd8457c8&#45;&gt;place_9804773f9a8846d1ea1d0cde5eb01d893b382682</title>
<path fill="none" stroke="#333333" d="M2116.17,-263.108C2131.71,-273.455 2148.21,-284.442 2164.17,-295.069"/>
<polygon fill="#333333" stroke="#333333" points="2163.52,-296.741 2168.65,-298.056 2165.46,-293.828 2163.52,-296.741"/>
</g>
</g>
</svg>
