<?xml version="1.0" encoding="UTF-8" standalone="no"?>
<!DOCTYPE svg PUBLIC "-//W3C//DTD SVG 1.1//EN"
 "http://www.w3.org/Graphics/SVG/1.1/DTD/svg11.dtd">
<!-- Generated by graphviz version 2.38.0 (20140413.2041)
 -->
<!-- Title: workflow Pages: 1 -->
<svg width="2834pt" height="1000pt"
 viewBox="0.00 0.00 2833.50 1000.01" xmlns="http://www.w3.org/2000/svg" xmlns:xlink="http://www.w3.org/1999/xlink">
<g id="graph0" class="graph" transform="scale(1 1) rotate(0) translate(4 996.013)">
<title>workflow</title>
<polygon fill="white" stroke="none" points="-4,4 -4,-996.013 2829.5,-996.013 2829.5,4 -4,4"/>
<!-- place_c72633f673ef54769f56bbaf78d2baf4858bf7c3 -->
<g id="node1" class="node"><title>place_c72633f673ef54769f56bbaf78d2baf4858bf7c3</title>
<ellipse fill="lightblue" stroke="#333333" cx="36" cy="-572.013" rx="36" ry="36"/>
<text text-anchor="middle" x="36" y="-569.813" font-family="Arial" font-size="9.00">ACTIVE</text>
</g>
<!-- transition_ac3478d69a3c81fa62e60f5c3696165a4e5e6ac4 -->
<g id="node26" class="node"><title>transition_ac3478d69a3c81fa62e60f5c3696165a4e5e6ac4</title>
<polygon fill="none" stroke="#333333" points="278,-933.013 110,-933.013 110,-765.013 278,-765.013 278,-933.013"/>
<text text-anchor="middle" x="194" y="-846.813" font-family="Arial" font-size="9.00">IMPORT_TRANSACTION_REMOVED</text>
</g>
<!-- place_c72633f673ef54769f56bbaf78d2baf4858bf7c3&#45;&gt;transition_ac3478d69a3c81fa62e60f5c3696165a4e5e6ac4 -->
<g id="edge11" class="edge"><title>place_c72633f673ef54769f56bbaf78d2baf4858bf7c3&#45;&gt;transition_ac3478d69a3c81fa62e60f5c3696165a4e5e6ac4</title>
<path fill="none" stroke="#333333" d="M64.2722,-594.975C67.1489,-599.151 69.8153,-603.573 72,-608.013 100.173,-665.274 77.5756,-690.917 108,-747.013 110.464,-751.556 113.197,-756.052 116.128,-760.479"/>
<polygon fill="#333333" stroke="#333333" points="114.864,-761.732 119.123,-764.882 117.758,-759.763 114.864,-761.732"/>
</g>
<!-- transition_c1dfd96eea8cc2b62785275bca38ac261256e278 -->
<g id="node27" class="node"><title>transition_c1dfd96eea8cc2b62785275bca38ac261256e278</title>
<polygon fill="none" stroke="#333333" points="250.5,-746.513 137.5,-746.513 137.5,-633.513 250.5,-633.513 250.5,-746.513"/>
<text text-anchor="middle" x="194" y="-687.813" font-family="Arial" font-size="9.00">INITIATE_REVOCATION</text>
</g>
<!-- place_c72633f673ef54769f56bbaf78d2baf4858bf7c3&#45;&gt;transition_c1dfd96eea8cc2b62785275bca38ac261256e278 -->
<g id="edge13" class="edge"><title>place_c72633f673ef54769f56bbaf78d2baf4858bf7c3&#45;&gt;transition_c1dfd96eea8cc2b62785275bca38ac261256e278</title>
<path fill="none" stroke="#333333" d="M65.2504,-593.382C84.2576,-607.76 110.029,-627.253 133.447,-644.967"/>
<polygon fill="#333333" stroke="#333333" points="132.443,-646.402 137.486,-648.022 134.554,-643.61 132.443,-646.402"/>
</g>
<!-- transition_7b52009b64fd0a2a49e6d8a939753077792b0554 -->
<g id="node33" class="node"><title>transition_7b52009b64fd0a2a49e6d8a939753077792b0554</title>
<polygon fill="none" stroke="#333333" points="237,-615.013 151,-615.013 151,-529.013 237,-529.013 237,-615.013"/>
<text text-anchor="middle" x="194" y="-569.813" font-family="Arial" font-size="9.00">INITIATE_PAUSE</text>
</g>
<!-- place_c72633f673ef54769f56bbaf78d2baf4858bf7c3&#45;&gt;transition_7b52009b64fd0a2a49e6d8a939753077792b0554 -->
<g id="edge25" class="edge"><title>place_c72633f673ef54769f56bbaf78d2baf4858bf7c3&#45;&gt;transition_7b52009b64fd0a2a49e6d8a939753077792b0554</title>
<path fill="none" stroke="#333333" d="M72.0094,-572.013C93.7235,-572.013 121.902,-572.013 145.601,-572.013"/>
<polygon fill="#333333" stroke="#333333" points="145.897,-573.763 150.897,-572.013 145.897,-570.263 145.897,-573.763"/>
</g>
<!-- transition_1574bddb75c78a6fd2251d61e2993b5146201319 -->
<g id="node37" class="node"><title>transition_1574bddb75c78a6fd2251d61e2993b5146201319</title>
<polygon fill="none" stroke="#333333" points="274,-511.013 114,-511.013 114,-351.013 274,-351.013 274,-511.013"/>
<text text-anchor="middle" x="194" y="-428.813" font-family="Arial" font-size="9.00">INITIATE_TRANSACTION_UPDATE</text>
</g>
<!-- place_c72633f673ef54769f56bbaf78d2baf4858bf7c3&#45;&gt;transition_1574bddb75c78a6fd2251d61e2993b5146201319 -->
<g id="edge33" class="edge"><title>place_c72633f673ef54769f56bbaf78d2baf4858bf7c3&#45;&gt;transition_1574bddb75c78a6fd2251d61e2993b5146201319</title>
<path fill="none" stroke="#333333" d="M63.4633,-548.095C76.5555,-536.261 93.1542,-521.259 110.063,-505.975"/>
<polygon fill="#333333" stroke="#333333" points="111.368,-507.155 113.904,-502.504 109.021,-504.559 111.368,-507.155"/>
</g>
<!-- transition_b3f0c7f6bb763af1be91d9e74eabfeb199dc1f1f -->
<g id="node40" class="node"><title>transition_b3f0c7f6bb763af1be91d9e74eabfeb199dc1f1f</title>
<polygon fill="none" stroke="#333333" points="280,-299.013 108,-299.013 108,-127.013 280,-127.013 280,-299.013"/>
<text text-anchor="middle" x="194" y="-210.813" font-family="Arial" font-size="9.00">INITIATE_PAYER_NUMBER_CHANGE</text>
</g>
<!-- place_c72633f673ef54769f56bbaf78d2baf4858bf7c3&#45;&gt;transition_b3f0c7f6bb763af1be91d9e74eabfeb199dc1f1f -->
<g id="edge39" class="edge"><title>place_c72633f673ef54769f56bbaf78d2baf4858bf7c3&#45;&gt;transition_b3f0c7f6bb763af1be91d9e74eabfeb199dc1f1f</title>
<path fill="none" stroke="#333333" d="M44.5416,-536.974C55.1913,-490.868 76.8721,-407.959 108,-342.013 114.016,-329.268 121.143,-316.321 128.673,-303.79"/>
<polygon fill="#333333" stroke="#333333" points="130.364,-304.376 131.463,-299.194 127.373,-302.559 130.364,-304.376"/>
</g>
<!-- place_e6055c5a6ee8feda91cdd5be510d21cec274b4c8 -->
<g id="node2" class="node"><title>place_e6055c5a6ee8feda91cdd5be510d21cec274b4c8</title>
<ellipse fill="none" stroke="#333333" cx="464.723" cy="-583.013" rx="48.05" ry="48.05"/>
<text text-anchor="middle" x="464.723" y="-580.813" font-family="Arial" font-size="9.00">AWAITING_PAUSE</text>
</g>
<!-- transition_bd307a3ec329e10a2cff8fb87480823da114f8f4 -->
<g id="node34" class="node"><title>transition_bd307a3ec329e10a2cff8fb87480823da114f8f4</title>
<polygon fill="none" stroke="#333333" points="721.445,-608.013 649.445,-608.013 649.445,-536.013 721.445,-536.013 721.445,-608.013"/>
<text text-anchor="middle" x="685.445" y="-569.813" font-family="Arial" font-size="9.00">EXPORT</text>
</g>
<!-- place_e6055c5a6ee8feda91cdd5be510d21cec274b4c8&#45;&gt;transition_bd307a3ec329e10a2cff8fb87480823da114f8f4 -->
<g id="edge27" class="edge"><title>place_e6055c5a6ee8feda91cdd5be510d21cec274b4c8&#45;&gt;transition_bd307a3ec329e10a2cff8fb87480823da114f8f4</title>
<path fill="none" stroke="#333333" d="M512.913,-580.64C551.934,-578.678 606.768,-575.92 643.85,-574.055"/>
<polygon fill="#333333" stroke="#333333" points="644.283,-575.785 649.189,-573.786 644.107,-572.29 644.283,-575.785"/>
</g>
<!-- place_603ac2dac5e51a400b34e54cd8c3863177d9c01b -->
<g id="node3" class="node"><title>place_603ac2dac5e51a400b34e54cd8c3863177d9c01b</title>
<ellipse fill="none" stroke="#333333" cx="1368.74" cy="-178.013" rx="92.3705" ry="92.3705"/>
<text text-anchor="middle" x="1368.74" y="-175.813" font-family="Arial" font-size="9.00">AWAITING_PAYER_NUMBER_CHANGE</text>
</g>
<!-- transition_12c6fc06c99a462375eeb3f43dfd832b08ca9e17 -->
<g id="node43" class="node"><title>transition_12c6fc06c99a462375eeb3f43dfd832b08ca9e17</title>
<polygon fill="none" stroke="#333333" points="1617.17,-214.013 1545.17,-214.013 1545.17,-142.013 1617.17,-142.013 1617.17,-214.013"/>
<text text-anchor="middle" x="1581.17" y="-175.813" font-family="Arial" font-size="9.00">EXPORT</text>
</g>
<!-- place_603ac2dac5e51a400b34e54cd8c3863177d9c01b&#45;&gt;transition_12c6fc06c99a462375eeb3f43dfd832b08ca9e17 -->
<g id="edge45" class="edge"><title>place_603ac2dac5e51a400b34e54cd8c3863177d9c01b&#45;&gt;transition_12c6fc06c99a462375eeb3f43dfd832b08ca9e17</title>
<path fill="none" stroke="#333333" d="M1461.42,-178.013C1488.8,-178.013 1517.42,-178.013 1539.7,-178.013"/>
<polygon fill="#333333" stroke="#333333" points="1539.94,-179.763 1544.94,-178.013 1539.94,-176.263 1539.94,-179.763"/>
</g>
<!-- place_664643489a68e9127ca5f29045b98aea46b3fffd -->
<g id="node4" class="node"><title>place_664643489a68e9127ca5f29045b98aea46b3fffd</title>
<ellipse fill="none" stroke="#333333" cx="464.723" cy="-178.013" rx="148.945" ry="148.945"/>
<text text-anchor="middle" x="464.723" y="-175.813" font-family="Arial" font-size="9.00">AWAITING_PAYER_NUMBER_CHANGE_TRANSACTION_UPDATE</text>
</g>
<!-- transition_91032ad7bbcb6cf72875e8e8207dcfba80173f7c -->
<g id="node41" class="node"><title>transition_91032ad7bbcb6cf72875e8e8207dcfba80173f7c</title>
<polygon fill="none" stroke="#333333" points="721.445,-214.013 649.445,-214.013 649.445,-142.013 721.445,-142.013 721.445,-214.013"/>
<text text-anchor="middle" x="685.445" y="-175.813" font-family="Arial" font-size="9.00">EXPORT</text>
</g>
<!-- place_664643489a68e9127ca5f29045b98aea46b3fffd&#45;&gt;transition_91032ad7bbcb6cf72875e8e8207dcfba80173f7c -->
<g id="edge41" class="edge"><title>place_664643489a68e9127ca5f29045b98aea46b3fffd&#45;&gt;transition_91032ad7bbcb6cf72875e8e8207dcfba80173f7c</title>
<path fill="none" stroke="#333333" d="M613.734,-178.013C624.701,-178.013 635.073,-178.013 644.323,-178.013"/>
<polygon fill="#333333" stroke="#333333" points="644.342,-179.763 649.342,-178.013 644.342,-176.263 644.342,-179.763"/>
</g>
<!-- place_9031bdf59fef50c79366e1e807bcd3165f1b86da -->
<g id="node5" class="node"><title>place_9031bdf59fef50c79366e1e807bcd3165f1b86da</title>
<ellipse fill="none" stroke="#333333" cx="464.723" cy="-713.013" rx="62.4683" ry="62.4683"/>
<text text-anchor="middle" x="464.723" y="-710.813" font-family="Arial" font-size="9.00">AWAITING_REVOCATION</text>
</g>
<!-- transition_902ba3cda1883801594b6e1b452790cc53948fda -->
<g id="node28" class="node"><title>transition_902ba3cda1883801594b6e1b452790cc53948fda</title>
<polygon fill="none" stroke="#333333" points="721.445,-755.013 649.445,-755.013 649.445,-683.013 721.445,-683.013 721.445,-755.013"/>
<text text-anchor="middle" x="685.445" y="-716.813" font-family="Arial" font-size="9.00">EXPORT</text>
</g>
<!-- place_9031bdf59fef50c79366e1e807bcd3165f1b86da&#45;&gt;transition_902ba3cda1883801594b6e1b452790cc53948fda -->
<g id="edge15" class="edge"><title>place_9031bdf59fef50c79366e1e807bcd3165f1b86da&#45;&gt;transition_902ba3cda1883801594b6e1b452790cc53948fda</title>
<path fill="none" stroke="#333333" d="M527.231,-714.701C564.651,-715.727 611.382,-717.009 644.133,-717.908"/>
<polygon fill="#333333" stroke="#333333" points="644.219,-719.66 649.266,-718.048 644.316,-716.162 644.219,-719.66"/>
</g>
<!-- place_9804773f9a8846d1ea1d0cde5eb01d893b382682 -->
<g id="node6" class="node"><title>place_9804773f9a8846d1ea1d0cde5eb01d893b382682</title>
<ellipse fill="none" stroke="#333333" cx="2203.9" cy="-363.013" rx="101.961" ry="101.961"/>
<text text-anchor="middle" x="2203.9" y="-360.813" font-family="Arial" font-size="9.00">AWAITING_TRANSACTION_REGISTRATION</text>
</g>
<!-- transition_77de68daecd823babbb58edb1c8e14d7106e83bb -->
<g id="node24" class="node"><title>transition_77de68daecd823babbb58edb1c8e14d7106e83bb</title>
<polygon fill="none" stroke="#333333" points="2413.63,-338.013 2341.63,-338.013 2341.63,-266.013 2413.63,-266.013 2413.63,-338.013"/>
<text text-anchor="middle" x="2377.63" y="-299.813" font-family="Arial" font-size="9.00">EXPORT</text>
</g>
<!-- place_9804773f9a8846d1ea1d0cde5eb01d893b382682&#45;&gt;transition_77de68daecd823babbb58edb1c8e14d7106e83bb -->
<g id="edge7" class="edge"><title>place_9804773f9a8846d1ea1d0cde5eb01d893b382682&#45;&gt;transition_77de68daecd823babbb58edb1c8e14d7106e83bb</title>
<path fill="none" stroke="#333333" d="M2300.06,-329.213C2312.81,-324.684 2325.28,-320.253 2336.34,-316.326"/>
<polygon fill="#333333" stroke="#333333" points="2337.19,-317.881 2341.31,-314.559 2336.02,-314.583 2337.19,-317.881"/>
</g>
<!-- place_a6d4df81ef896e3dae9187ed1a718a5abde20bcf -->
<g id="node7" class="node"><title>place_a6d4df81ef896e3dae9187ed1a718a5abde20bcf</title>
<ellipse fill="none" stroke="#333333" cx="464.723" cy="-431.013" rx="86.4775" ry="86.4775"/>
<text text-anchor="middle" x="464.723" y="-428.813" font-family="Arial" font-size="9.00">AWAITING_TRANSACTION_UPDATE</text>
</g>
<!-- transition_0716d9708d321ffb6a00818614779e779925365c -->
<g id="node38" class="node"><title>transition_0716d9708d321ffb6a00818614779e779925365c</title>
<polygon fill="none" stroke="#333333" points="721.445,-462.013 649.445,-462.013 649.445,-390.013 721.445,-390.013 721.445,-462.013"/>
<text text-anchor="middle" x="685.445" y="-423.813" font-family="Arial" font-size="9.00">EXPORT</text>
</g>
<!-- place_a6d4df81ef896e3dae9187ed1a718a5abde20bcf&#45;&gt;transition_0716d9708d321ffb6a00818614779e779925365c -->
<g id="edge35" class="edge"><title>place_a6d4df81ef896e3dae9187ed1a718a5abde20bcf&#45;&gt;transition_0716d9708d321ffb6a00818614779e779925365c</title>
<path fill="none" stroke="#333333" d="M551.226,-429.059C583.239,-428.327 618.119,-427.53 644.156,-426.934"/>
<polygon fill="#333333" stroke="#333333" points="644.284,-428.682 649.242,-426.818 644.204,-425.183 644.284,-428.682"/>
</g>
<!-- place_0b99cebe565822c64ac5d84aecb00fe40e59cbd3 -->
<g id="node8" class="node"><title>place_0b99cebe565822c64ac5d84aecb00fe40e59cbd3</title>
<ellipse fill="none" stroke="#333333" cx="36" cy="-662.013" rx="36" ry="36"/>
<text text-anchor="middle" x="36" y="-659.813" font-family="Arial" font-size="9.00">ERROR</text>
</g>
<!-- place_d2b9cb7f8fd77caeaa93cb6ecf9a2c6c01a8aa39 -->
<g id="node9" class="node"><title>place_d2b9cb7f8fd77caeaa93cb6ecf9a2c6c01a8aa39</title>
<ellipse fill="none" stroke="#333333" cx="1785.17" cy="-590.013" rx="44.8533" ry="44.8533"/>
<text text-anchor="middle" x="1785.17" y="-587.813" font-family="Arial" font-size="9.00">MANDATE_SENT</text>
</g>
<!-- transition_da4b9237bacccdf19c0760cab7aec4a8359010b0 -->
<g id="node23" class="node"><title>transition_da4b9237bacccdf19c0760cab7aec4a8359010b0</title>
<polygon fill="none" stroke="#333333" points="2066.17,-669.513 1905.17,-669.513 1905.17,-508.513 2066.17,-508.513 2066.17,-669.513"/>
<text text-anchor="middle" x="1985.67" y="-586.813" font-family="Arial" font-size="9.00">IMPORT_MANDATE_REGISTERED</text>
</g>
<!-- place_d2b9cb7f8fd77caeaa93cb6ecf9a2c6c01a8aa39&#45;&gt;transition_da4b9237bacccdf19c0760cab7aec4a8359010b0 -->
<g id="edge5" class="edge"><title>place_d2b9cb7f8fd77caeaa93cb6ecf9a2c6c01a8aa39&#45;&gt;transition_da4b9237bacccdf19c0760cab7aec4a8359010b0</title>
<path fill="none" stroke="#333333" d="M1830.22,-589.791C1850.7,-589.688 1875.77,-589.562 1899.7,-589.441"/>
<polygon fill="#333333" stroke="#333333" points="1899.8,-591.191 1904.79,-589.416 1899.78,-587.691 1899.8,-591.191"/>
</g>
<!-- place_e1b6adc61c1e09203349001f5eeaf8573afcf571 -->
<g id="node10" class="node"><title>place_e1b6adc61c1e09203349001f5eeaf8573afcf571</title>
<ellipse fill="none" stroke="#333333" cx="1368.74" cy="-592.013" rx="63.0011" ry="63.0011"/>
<text text-anchor="middle" x="1368.74" y="-589.813" font-family="Arial" font-size="9.00">NEW_DIGITAL_MANDATE</text>
</g>
<!-- transition_356a192b7913b04c54574d18c28d46e6395428ab -->
<g id="node22" class="node"><title>transition_356a192b7913b04c54574d18c28d46e6395428ab</title>
<polygon fill="none" stroke="#333333" points="1617.17,-626.013 1545.17,-626.013 1545.17,-554.013 1617.17,-554.013 1617.17,-626.013"/>
<text text-anchor="middle" x="1581.17" y="-587.813" font-family="Arial" font-size="9.00">EXPORT</text>
</g>
<!-- place_e1b6adc61c1e09203349001f5eeaf8573afcf571&#45;&gt;transition_356a192b7913b04c54574d18c28d46e6395428ab -->
<g id="edge3" class="edge"><title>place_e1b6adc61c1e09203349001f5eeaf8573afcf571&#45;&gt;transition_356a192b7913b04c54574d18c28d46e6395428ab</title>
<path fill="none" stroke="#333333" d="M1431.73,-591.424C1466.69,-591.092 1509.35,-590.686 1539.95,-590.396"/>
<polygon fill="#333333" stroke="#333333" points="1540.15,-592.144 1545.13,-590.346 1540.12,-588.644 1540.15,-592.144"/>
</g>
<!-- place_818af3c4262f96a99ab981900e5a0e1c415b44df -->
<g id="node11" class="node"><title>place_818af3c4262f96a99ab981900e5a0e1c415b44df</title>
<ellipse fill="none" stroke="#333333" cx="1368.74" cy="-716.013" rx="43.2552" ry="43.2552"/>
<text text-anchor="middle" x="1368.74" y="-713.813" font-family="Arial" font-size="9.00">NEW_MANDATE</text>
</g>
<!-- transition_b6589fc6ab0dc82cf12099d1c2d40ab994e8410c -->
<g id="node21" class="node"><title>transition_b6589fc6ab0dc82cf12099d1c2d40ab994e8410c</title>
<polygon fill="none" stroke="#333333" points="1617.17,-716.013 1545.17,-716.013 1545.17,-644.013 1617.17,-644.013 1617.17,-716.013"/>
<text text-anchor="middle" x="1581.17" y="-677.813" font-family="Arial" font-size="9.00">EXPORT</text>
</g>
<!-- place_818af3c4262f96a99ab981900e5a0e1c415b44df&#45;&gt;transition_b6589fc6ab0dc82cf12099d1c2d40ab994e8410c -->
<g id="edge1" class="edge"><title>place_818af3c4262f96a99ab981900e5a0e1c415b44df&#45;&gt;transition_b6589fc6ab0dc82cf12099d1c2d40ab994e8410c</title>
<path fill="none" stroke="#333333" d="M1411.56,-708.858C1448.81,-702.487 1502.94,-693.225 1539.75,-686.928"/>
<polygon fill="#333333" stroke="#333333" points="1540.42,-688.589 1545.05,-686.021 1539.83,-685.139 1540.42,-688.589"/>
</g>
<!-- place_ead9028928ebb77be9947a639f024bb8b67c643a -->
<g id="node12" class="node"><title>place_ead9028928ebb77be9947a639f024bb8b67c643a</title>
<ellipse fill="none" stroke="#333333" cx="896.873" cy="-563.013" rx="38.961" ry="38.961"/>
<text text-anchor="middle" x="896.873" y="-560.813" font-family="Arial" font-size="9.00">PAUSE_SENT</text>
</g>
<!-- transition_fa35e192121eabf3dabf9f5ea6abdbcbc107ac3b -->
<g id="node35" class="node"><title>transition_fa35e192121eabf3dabf9f5ea6abdbcbc107ac3b</title>
<polygon fill="none" stroke="#333333" points="1240.3,-592.013 1072.3,-592.013 1072.3,-424.013 1240.3,-424.013 1240.3,-592.013"/>
<text text-anchor="middle" x="1156.3" y="-505.813" font-family="Arial" font-size="9.00">IMPORT_TRANSACTION_REMOVED</text>
</g>
<!-- place_ead9028928ebb77be9947a639f024bb8b67c643a&#45;&gt;transition_fa35e192121eabf3dabf9f5ea6abdbcbc107ac3b -->
<g id="edge29" class="edge"><title>place_ead9028928ebb77be9947a639f024bb8b67c643a&#45;&gt;transition_fa35e192121eabf3dabf9f5ea6abdbcbc107ac3b</title>
<path fill="none" stroke="#333333" d="M935.03,-555.075C969.489,-547.712 1022.1,-536.472 1067.26,-526.823"/>
<polygon fill="#333333" stroke="#333333" points="1067.64,-528.531 1072.17,-525.775 1066.91,-525.108 1067.64,-528.531"/>
</g>
<!-- place_cd5d07c90b5c8a0724fc18d8b9c909271052f2b5 -->
<g id="node13" class="node"><title>place_cd5d07c90b5c8a0724fc18d8b9c909271052f2b5</title>
<ellipse fill="none" stroke="#333333" cx="1368.74" cy="-475.013" rx="36" ry="36"/>
<text text-anchor="middle" x="1368.74" y="-472.813" font-family="Arial" font-size="9.00">PAUSED</text>
</g>
<!-- transition_f1abd670358e036c31296e66b3b66c382ac00812 -->
<g id="node36" class="node"><title>transition_f1abd670358e036c31296e66b3b66c382ac00812</title>
<polygon fill="none" stroke="#333333" points="2034.17,-489.513 1937.17,-489.513 1937.17,-392.513 2034.17,-392.513 2034.17,-489.513"/>
<text text-anchor="middle" x="1985.67" y="-438.813" font-family="Arial" font-size="9.00">INITIATE_RESTART</text>
</g>
<!-- place_cd5d07c90b5c8a0724fc18d8b9c909271052f2b5&#45;&gt;transition_f1abd670358e036c31296e66b3b66c382ac00812 -->
<g id="edge31" class="edge"><title>place_cd5d07c90b5c8a0724fc18d8b9c909271052f2b5&#45;&gt;transition_f1abd670358e036c31296e66b3b66c382ac00812</title>
<path fill="none" stroke="#333333" d="M1404.92,-474.776C1486.6,-473.983 1695.37,-470.574 1869.17,-456.013 1889.7,-454.293 1912.19,-451.566 1931.82,-448.906"/>
<polygon fill="#333333" stroke="#333333" points="1932.29,-450.607 1937.01,-448.195 1931.82,-447.14 1932.29,-450.607"/>
</g>
<!-- place_1d873f095061223ff3e5aa2923f8eed67b6a60f3 -->
<g id="node14" class="node"><title>place_1d873f095061223ff3e5aa2923f8eed67b6a60f3</title>
<ellipse fill="none" stroke="#333333" cx="1785.17" cy="-178.013" rx="83.2803" ry="83.2803"/>
<text text-anchor="middle" x="1785.17" y="-175.813" font-family="Arial" font-size="9.00">PAYER_NUMBER_CHANGE_SENT</text>
</g>
<!-- transition_d435a6cdd786300dff204ee7c2ef942d3e9034e2 -->
<g id="node44" class="node"><title>transition_d435a6cdd786300dff204ee7c2ef942d3e9034e2</title>
<polygon fill="none" stroke="#333333" points="2066.17,-296.513 1905.17,-296.513 1905.17,-135.513 2066.17,-135.513 2066.17,-296.513"/>
<text text-anchor="middle" x="1985.67" y="-213.813" font-family="Arial" font-size="9.00">IMPORT_MANDATE_REGISTERED</text>
</g>
<!-- place_1d873f095061223ff3e5aa2923f8eed67b6a60f3&#45;&gt;transition_d435a6cdd786300dff204ee7c2ef942d3e9034e2 -->
<g id="edge47" class="edge"><title>place_1d873f095061223ff3e5aa2923f8eed67b6a60f3&#45;&gt;transition_d435a6cdd786300dff204ee7c2ef942d3e9034e2</title>
<path fill="none" stroke="#333333" d="M1866.91,-193.469C1877.8,-195.554 1889,-197.698 1899.95,-199.796"/>
<polygon fill="#333333" stroke="#333333" points="1899.73,-201.534 1904.97,-200.756 1900.39,-198.097 1899.73,-201.534"/>
</g>
<!-- place_37caab4993715f768067bde3a516958dad5b68c4 -->
<g id="node15" class="node"><title>place_37caab4993715f768067bde3a516958dad5b68c4</title>
<ellipse fill="none" stroke="#333333" cx="896.873" cy="-178.013" rx="139.355" ry="139.355"/>
<text text-anchor="middle" x="896.873" y="-175.813" font-family="Arial" font-size="9.00">PAYER_NUMBER_CHANGE_TRANSACTION_UPDATE_SENT</text>
</g>
<!-- transition_472b07b9fcf2c2451e8781e944bf5f77cd8457c8 -->
<g id="node42" class="node"><title>transition_472b07b9fcf2c2451e8781e944bf5f77cd8457c8</title>
<polygon fill="none" stroke="#333333" points="1240.3,-262.013 1072.3,-262.013 1072.3,-94.0134 1240.3,-94.0134 1240.3,-262.013"/>
<text text-anchor="middle" x="1156.3" y="-175.813" font-family="Arial" font-size="9.00">IMPORT_TRANSACTION_REMOVED</text>
</g>
<!-- place_37caab4993715f768067bde3a516958dad5b68c4&#45;&gt;transition_472b07b9fcf2c2451e8781e944bf5f77cd8457c8 -->
<g id="edge43" class="edge"><title>place_37caab4993715f768067bde3a516958dad5b68c4&#45;&gt;transition_472b07b9fcf2c2451e8781e944bf5f77cd8457c8</title>
<path fill="none" stroke="#333333" d="M1036.38,-178.013C1046.72,-178.013 1056.97,-178.013 1066.87,-178.013"/>
<polygon fill="#333333" stroke="#333333" points="1067.01,-179.763 1072.01,-178.013 1067.01,-176.263 1067.01,-179.763"/>
</g>
<!-- place_4ab3919e3d5f33ebd977a1af7ba9fb5159a24b86 -->
<g id="node16" class="node"><title>place_4ab3919e3d5f33ebd977a1af7ba9fb5159a24b86</title>
<ellipse fill="none" stroke="#333333" cx="1785.17" cy="-770.013" rx="36" ry="36"/>
<text text-anchor="middle" x="1785.17" y="-767.813" font-family="Arial" font-size="9.00">REMOVED</text>
</g>
<!-- place_e6f4dd32e509fdb03fd79f1ac358ad70ffed3131 -->
<g id="node17" class="node"><title>place_e6f4dd32e509fdb03fd79f1ac358ad70ffed3131</title>
<ellipse fill="none" stroke="#333333" cx="896.873" cy="-730.013" rx="53.3786" ry="53.3786"/>
<text text-anchor="middle" x="896.873" y="-727.813" font-family="Arial" font-size="9.00">REVOCATION_SENT</text>
</g>
<!-- transition_fe5dbbcea5ce7e2988b8c69bcfdfde8904aabc1f -->
<g id="node29" class="node"><title>transition_fe5dbbcea5ce7e2988b8c69bcfdfde8904aabc1f</title>
<polygon fill="none" stroke="#333333" points="1229.3,-980.013 1083.3,-980.013 1083.3,-834.013 1229.3,-834.013 1229.3,-980.013"/>
<text text-anchor="middle" x="1156.3" y="-904.813" font-family="Arial" font-size="9.00">IMPORT_MANDATE_REVOKED</text>
</g>
<!-- place_e6f4dd32e509fdb03fd79f1ac358ad70ffed3131&#45;&gt;transition_fe5dbbcea5ce7e2988b8c69bcfdfde8904aabc1f -->
<g id="edge17" class="edge"><title>place_e6f4dd32e509fdb03fd79f1ac358ad70ffed3131&#45;&gt;transition_fe5dbbcea5ce7e2988b8c69bcfdfde8904aabc1f</title>
<path fill="none" stroke="#333333" d="M941.25,-759.839C978.799,-785.656 1033.98,-823.599 1078.91,-854.492"/>
<polygon fill="#333333" stroke="#333333" points="1078.12,-856.068 1083.23,-857.459 1080.1,-853.184 1078.12,-856.068"/>
</g>
<!-- transition_0ade7c2cf97f75d009975f4d720d1fa6c19f4897 -->
<g id="node30" class="node"><title>transition_0ade7c2cf97f75d009975f4d720d1fa6c19f4897</title>
<polygon fill="none" stroke="#333333" points="1240.3,-814.013 1072.3,-814.013 1072.3,-646.013 1240.3,-646.013 1240.3,-814.013"/>
<text text-anchor="middle" x="1156.3" y="-727.813" font-family="Arial" font-size="9.00">IMPORT_TRANSACTION_REMOVED</text>
</g>
<!-- place_e6f4dd32e509fdb03fd79f1ac358ad70ffed3131&#45;&gt;transition_0ade7c2cf97f75d009975f4d720d1fa6c19f4897 -->
<g id="edge19" class="edge"><title>place_e6f4dd32e509fdb03fd79f1ac358ad70ffed3131&#45;&gt;transition_0ade7c2cf97f75d009975f4d720d1fa6c19f4897</title>
<path fill="none" stroke="#333333" d="M949.967,-724.465C983.501,-723.261 1027.94,-722.962 1066.9,-723.567"/>
<polygon fill="#333333" stroke="#333333" points="1067.09,-725.32 1072.12,-723.654 1067.15,-721.82 1067.09,-725.32"/>
</g>
<!-- place_cfd92d62c5a0f95de1ff12861b9eefedca756f7b -->
<g id="node18" class="node"><title>place_cfd92d62c5a0f95de1ff12861b9eefedca756f7b</title>
<ellipse fill="none" stroke="#333333" cx="1368.74" cy="-908.013" rx="36" ry="36"/>
<text text-anchor="middle" x="1368.74" y="-905.813" font-family="Arial" font-size="9.00">REVOKED</text>
</g>
<!-- transition_b1d5781111d84f7b3fe45a0852e59758cd7a87e5 -->
<g id="node31" class="node"><title>transition_b1d5781111d84f7b3fe45a0852e59758cd7a87e5</title>
<polygon fill="none" stroke="#333333" points="1665.17,-992.013 1497.17,-992.013 1497.17,-824.013 1665.17,-824.013 1665.17,-992.013"/>
<text text-anchor="middle" x="1581.17" y="-905.813" font-family="Arial" font-size="9.00">IMPORT_TRANSACTION_REMOVED</text>
</g>
<!-- place_cfd92d62c5a0f95de1ff12861b9eefedca756f7b&#45;&gt;transition_b1d5781111d84f7b3fe45a0852e59758cd7a87e5 -->
<g id="edge21" class="edge"><title>place_cfd92d62c5a0f95de1ff12861b9eefedca756f7b&#45;&gt;transition_b1d5781111d84f7b3fe45a0852e59758cd7a87e5</title>
<path fill="none" stroke="#333333" d="M1404.48,-902.847C1428.21,-901.563 1460.78,-901.06 1491.44,-901.338"/>
<polygon fill="#333333" stroke="#333333" points="1491.72,-903.091 1496.74,-901.394 1491.76,-899.591 1491.72,-903.091"/>
</g>
<!-- transition_17ba0791499db908433b80f37c5fbc89b870084b -->
<g id="node32" class="node"><title>transition_17ba0791499db908433b80f37c5fbc89b870084b</title>
<polygon fill="none" stroke="#333333" points="1617.17,-806.013 1545.17,-806.013 1545.17,-734.013 1617.17,-734.013 1617.17,-806.013"/>
<text text-anchor="middle" x="1581.17" y="-767.813" font-family="Arial" font-size="9.00">REMOVE</text>
</g>
<!-- place_cfd92d62c5a0f95de1ff12861b9eefedca756f7b&#45;&gt;transition_17ba0791499db908433b80f37c5fbc89b870084b -->
<g id="edge23" class="edge"><title>place_cfd92d62c5a0f95de1ff12861b9eefedca756f7b&#45;&gt;transition_17ba0791499db908433b80f37c5fbc89b870084b</title>
<path fill="none" stroke="#333333" d="M1397.82,-885.836C1423.15,-866.248 1461.75,-837.401 1497.17,-815.013 1510.86,-806.359 1526.35,-797.68 1540.21,-790.285"/>
<polygon fill="#333333" stroke="#333333" points="1541.25,-791.717 1544.85,-787.829 1539.61,-788.625 1541.25,-791.717"/>
</g>
<!-- place_a341b9d56a2c3bfd653b2d5b01bddd97b7946ca1 -->
<g id="node19" class="node"><title>place_a341b9d56a2c3bfd653b2d5b01bddd97b7946ca1</title>
<ellipse fill="none" stroke="#333333" cx="2542.07" cy="-181.013" rx="92.3705" ry="92.3705"/>
<text text-anchor="middle" x="2542.07" y="-178.813" font-family="Arial" font-size="9.00">TRANSACTION_REGISTRATION_SENT</text>
</g>
<!-- transition_1b6453892473a467d07372d45eb05abc2031647a -->
<g id="node25" class="node"><title>transition_1b6453892473a467d07372d45eb05abc2031647a</title>
<polygon fill="none" stroke="#333333" points="2825.5,-168.513 2670.5,-168.513 2670.5,-13.5134 2825.5,-13.5134 2825.5,-168.513"/>
<text text-anchor="middle" x="2748" y="-88.8134" font-family="Arial" font-size="9.00">IMPORT_TRANSACTION_ACTIVE</text>
</g>
<!-- place_a341b9d56a2c3bfd653b2d5b01bddd97b7946ca1&#45;&gt;transition_1b6453892473a467d07372d45eb05abc2031647a -->
<g id="edge9" class="edge"><title>place_a341b9d56a2c3bfd653b2d5b01bddd97b7946ca1&#45;&gt;transition_1b6453892473a467d07372d45eb05abc2031647a</title>
<path fill="none" stroke="#333333" d="M2626.9,-144.017C2639.71,-138.361 2652.93,-132.53 2665.69,-126.898"/>
<polygon fill="#333333" stroke="#333333" points="2666.5,-128.452 2670.37,-124.832 2665.09,-125.25 2666.5,-128.452"/>
</g>
<!-- place_dc5c141b4b017ab2c3c93372cd73211e591b3dea -->
<g id="node20" class="node"><title>place_dc5c141b4b017ab2c3c93372cd73211e591b3dea</title>
<ellipse fill="none" stroke="#333333" cx="896.873" cy="-417.013" rx="76.8866" ry="76.8866"/>
<text text-anchor="middle" x="896.873" y="-414.813" font-family="Arial" font-size="9.00">TRANSACTION_UPDATE_SENT</text>
</g>
<!-- transition_9e6a55b6b4563e652a23be9d623ca5055c356940 -->
<g id="node39" class="node"><title>transition_9e6a55b6b4563e652a23be9d623ca5055c356940</title>
<polygon fill="none" stroke="#333333" points="1869.17,-447.013 1701.17,-447.013 1701.17,-279.013 1869.17,-279.013 1869.17,-447.013"/>
<text text-anchor="middle" x="1785.17" y="-360.813" font-family="Arial" font-size="9.00">IMPORT_TRANSACTION_REMOVED</text>
</g>
<!-- place_dc5c141b4b017ab2c3c93372cd73211e591b3dea&#45;&gt;transition_9e6a55b6b4563e652a23be9d623ca5055c356940 -->
<g id="edge37" class="edge"><title>place_dc5c141b4b017ab2c3c93372cd73211e591b3dea&#45;&gt;transition_9e6a55b6b4563e652a23be9d623ca5055c356940</title>
<path fill="none" stroke="#333333" d="M973.821,-412.386C1137.29,-402.426 1521.73,-379.003 1695.79,-368.398"/>
<polygon fill="#333333" stroke="#333333" points="1695.99,-370.139 1700.88,-368.088 1695.78,-366.646 1695.99,-370.139"/>
</g>
<!-- transition_b6589fc6ab0dc82cf12099d1c2d40ab994e8410c&#45;&gt;place_d2b9cb7f8fd77caeaa93cb6ecf9a2c6c01a8aa39 -->
<g id="edge2" class="edge"><title>transition_b6589fc6ab0dc82cf12099d1c2d40ab994e8410c&#45;&gt;place_d2b9cb7f8fd77caeaa93cb6ecf9a2c6c01a8aa39</title>
<path fill="none" stroke="#333333" d="M1617.36,-664.337C1651.11,-649.299 1702.23,-626.522 1738.98,-610.148"/>
<polygon fill="#333333" stroke="#333333" points="1739.98,-611.616 1743.84,-607.983 1738.56,-608.419 1739.98,-611.616"/>
</g>
<!-- transition_356a192b7913b04c54574d18c28d46e6395428ab&#45;&gt;place_d2b9cb7f8fd77caeaa93cb6ecf9a2c6c01a8aa39 -->
<g id="edge4" class="edge"><title>transition_356a192b7913b04c54574d18c28d46e6395428ab&#45;&gt;place_d2b9cb7f8fd77caeaa93cb6ecf9a2c6c01a8aa39</title>
<path fill="none" stroke="#333333" d="M1617.36,-590.013C1649.89,-590.013 1698.57,-590.013 1734.95,-590.013"/>
<polygon fill="#333333" stroke="#333333" points="1735.23,-591.763 1740.23,-590.013 1735.23,-588.263 1735.23,-591.763"/>
</g>
<!-- transition_da4b9237bacccdf19c0760cab7aec4a8359010b0&#45;&gt;place_9804773f9a8846d1ea1d0cde5eb01d893b382682 -->
<g id="edge6" class="edge"><title>transition_da4b9237bacccdf19c0760cab7aec4a8359010b0&#45;&gt;place_9804773f9a8846d1ea1d0cde5eb01d893b382682</title>
<path fill="none" stroke="#333333" d="M2063.82,-508.379C2085.14,-486.09 2108.23,-461.967 2129.34,-439.897"/>
<polygon fill="#333333" stroke="#333333" points="2130.79,-440.911 2132.99,-436.088 2128.26,-438.491 2130.79,-440.911"/>
</g>
<!-- transition_77de68daecd823babbb58edb1c8e14d7106e83bb&#45;&gt;place_a341b9d56a2c3bfd653b2d5b01bddd97b7946ca1 -->
<g id="edge8" class="edge"><title>transition_77de68daecd823babbb58edb1c8e14d7106e83bb&#45;&gt;place_a341b9d56a2c3bfd653b2d5b01bddd97b7946ca1</title>
<path fill="none" stroke="#333333" d="M2413.88,-275.758C2428.41,-264.929 2445.88,-251.918 2463.15,-239.055"/>
<polygon fill="#333333" stroke="#333333" points="2464.57,-240.18 2467.53,-235.79 2462.48,-237.373 2464.57,-240.18"/>
</g>
<!-- transition_1b6453892473a467d07372d45eb05abc2031647a&#45;&gt;place_c72633f673ef54769f56bbaf78d2baf4858bf7c3 -->
<g id="edge10" class="edge"><title>transition_1b6453892473a467d07372d45eb05abc2031647a&#45;&gt;place_c72633f673ef54769f56bbaf78d2baf4858bf7c3</title>
<path fill="none" stroke="#333333" d="M2670.36,-60.9195C2596.76,-34.7559 2481.83,-1.01335 2378.63,-1.01335 463.723,-1.01335 463.723,-1.01335 463.723,-1.01335 297.292,-1.01335 207.767,15.2003 108,-118.013 59.3738,-182.942 43.1992,-431.207 38.6034,-530.558"/>
<polygon fill="#333333" stroke="#333333" points="36.8465,-530.672 38.3677,-535.746 40.3429,-530.83 36.8465,-530.672"/>
</g>
<!-- transition_ac3478d69a3c81fa62e60f5c3696165a4e5e6ac4&#45;&gt;place_c72633f673ef54769f56bbaf78d2baf4858bf7c3 -->
<g id="edge12" class="edge"><title>transition_ac3478d69a3c81fa62e60f5c3696165a4e5e6ac4&#45;&gt;place_c72633f673ef54769f56bbaf78d2baf4858bf7c3</title>
<path fill="none" stroke="#333333" d="M109.928,-768.465C109.269,-767.318 108.626,-766.167 108,-765.013 77.5756,-708.917 100.173,-683.274 72,-626.013 68.6629,-619.231 64.2017,-612.49 59.5843,-606.131"/>
<polygon fill="#333333" stroke="#333333" points="60.7555,-604.771 56.3745,-601.793 57.942,-606.853 60.7555,-604.771"/>
</g>
<!-- transition_c1dfd96eea8cc2b62785275bca38ac261256e278&#45;&gt;place_9031bdf59fef50c79366e1e807bcd3165f1b86da -->
<g id="edge14" class="edge"><title>transition_c1dfd96eea8cc2b62785275bca38ac261256e278&#45;&gt;place_9031bdf59fef50c79366e1e807bcd3165f1b86da</title>
<path fill="none" stroke="#333333" d="M250.679,-694.779C293.163,-698.415 351.851,-703.438 396.874,-707.292"/>
<polygon fill="#333333" stroke="#333333" points="396.886,-709.049 402.017,-707.732 397.184,-705.562 396.886,-709.049"/>
</g>
<!-- transition_902ba3cda1883801594b6e1b452790cc53948fda&#45;&gt;place_e6f4dd32e509fdb03fd79f1ac358ad70ffed3131 -->
<g id="edge16" class="edge"><title>transition_902ba3cda1883801594b6e1b452790cc53948fda&#45;&gt;place_e6f4dd32e509fdb03fd79f1ac358ad70ffed3131</title>
<path fill="none" stroke="#333333" d="M721.499,-720.855C753.24,-722.522 800.611,-725.01 837.971,-726.972"/>
<polygon fill="#333333" stroke="#333333" points="838.322,-728.743 843.407,-727.258 838.506,-725.248 838.322,-728.743"/>
</g>
<!-- transition_fe5dbbcea5ce7e2988b8c69bcfdfde8904aabc1f&#45;&gt;place_cfd92d62c5a0f95de1ff12861b9eefedca756f7b -->
<g id="edge18" class="edge"><title>transition_fe5dbbcea5ce7e2988b8c69bcfdfde8904aabc1f&#45;&gt;place_cfd92d62c5a0f95de1ff12861b9eefedca756f7b</title>
<path fill="none" stroke="#333333" d="M1229.43,-907.356C1262.24,-907.512 1299.84,-907.691 1327.55,-907.822"/>
<polygon fill="#333333" stroke="#333333" points="1327.59,-909.573 1332.6,-907.846 1327.61,-906.073 1327.59,-909.573"/>
</g>
<!-- transition_0ade7c2cf97f75d009975f4d720d1fa6c19f4897&#45;&gt;place_e6f4dd32e509fdb03fd79f1ac358ad70ffed3131 -->
<g id="edge20" class="edge"><title>transition_0ade7c2cf97f75d009975f4d720d1fa6c19f4897&#45;&gt;place_e6f4dd32e509fdb03fd79f1ac358ad70ffed3131</title>
<path fill="none" stroke="#333333" d="M1072.12,-736.373C1033.84,-737.056 989.393,-736.843 954.971,-735.732"/>
<polygon fill="#333333" stroke="#333333" points="955.023,-733.983 949.967,-735.562 954.904,-737.481 955.023,-733.983"/>
</g>
<!-- transition_b1d5781111d84f7b3fe45a0852e59758cd7a87e5&#45;&gt;place_cfd92d62c5a0f95de1ff12861b9eefedca756f7b -->
<g id="edge22" class="edge"><title>transition_b1d5781111d84f7b3fe45a0852e59758cd7a87e5&#45;&gt;place_cfd92d62c5a0f95de1ff12861b9eefedca756f7b</title>
<path fill="none" stroke="#333333" d="M1496.74,-914.633C1466.72,-914.997 1434.22,-914.599 1409.61,-913.439"/>
<polygon fill="#333333" stroke="#333333" points="1409.57,-911.684 1404.48,-913.18 1409.39,-915.18 1409.57,-911.684"/>
</g>
<!-- transition_17ba0791499db908433b80f37c5fbc89b870084b&#45;&gt;place_4ab3919e3d5f33ebd977a1af7ba9fb5159a24b86 -->
<g id="edge24" class="edge"><title>transition_17ba0791499db908433b80f37c5fbc89b870084b&#45;&gt;place_4ab3919e3d5f33ebd977a1af7ba9fb5159a24b86</title>
<path fill="none" stroke="#333333" d="M1617.36,-770.013C1652.59,-770.013 1706.74,-770.013 1743.72,-770.013"/>
<polygon fill="#333333" stroke="#333333" points="1744.05,-771.763 1749.05,-770.013 1744.05,-768.263 1744.05,-771.763"/>
</g>
<!-- transition_7b52009b64fd0a2a49e6d8a939753077792b0554&#45;&gt;place_e6055c5a6ee8feda91cdd5be510d21cec274b4c8 -->
<g id="edge26" class="edge"><title>transition_7b52009b64fd0a2a49e6d8a939753077792b0554&#45;&gt;place_e6055c5a6ee8feda91cdd5be510d21cec274b4c8</title>
<path fill="none" stroke="#333333" d="M237.284,-573.744C284.44,-575.675 360.751,-578.798 411.573,-580.879"/>
<polygon fill="#333333" stroke="#333333" points="411.649,-582.633 416.717,-581.089 411.792,-579.136 411.649,-582.633"/>
</g>
<!-- transition_bd307a3ec329e10a2cff8fb87480823da114f8f4&#45;&gt;place_ead9028928ebb77be9947a639f024bb8b67c643a -->
<g id="edge28" class="edge"><title>transition_bd307a3ec329e10a2cff8fb87480823da114f8f4&#45;&gt;place_ead9028928ebb77be9947a639f024bb8b67c643a</title>
<path fill="none" stroke="#333333" d="M721.499,-570.507C757.605,-568.955 813.934,-566.535 852.748,-564.867"/>
<polygon fill="#333333" stroke="#333333" points="852.947,-566.61 857.867,-564.647 852.797,-563.113 852.947,-566.61"/>
</g>
<!-- transition_fa35e192121eabf3dabf9f5ea6abdbcbc107ac3b&#45;&gt;place_cd5d07c90b5c8a0724fc18d8b9c909271052f2b5 -->
<g id="edge30" class="edge"><title>transition_fa35e192121eabf3dabf9f5ea6abdbcbc107ac3b&#45;&gt;place_cd5d07c90b5c8a0724fc18d8b9c909271052f2b5</title>
<path fill="none" stroke="#333333" d="M1240.47,-494.971C1270.61,-490.245 1303.27,-485.122 1327.96,-481.25"/>
<polygon fill="#333333" stroke="#333333" points="1328.44,-482.947 1333.11,-480.444 1327.9,-479.489 1328.44,-482.947"/>
</g>
<!-- transition_f1abd670358e036c31296e66b3b66c382ac00812&#45;&gt;place_9804773f9a8846d1ea1d0cde5eb01d893b382682 -->
<g id="edge32" class="edge"><title>transition_f1abd670358e036c31296e66b3b66c382ac00812&#45;&gt;place_9804773f9a8846d1ea1d0cde5eb01d893b382682</title>
<path fill="none" stroke="#333333" d="M2034.39,-423.799C2054.68,-416.481 2079.14,-407.656 2103.07,-399.026"/>
<polygon fill="#333333" stroke="#333333" points="2103.73,-400.647 2107.84,-397.304 2102.54,-397.354 2103.73,-400.647"/>
</g>
<!-- transition_1574bddb75c78a6fd2251d61e2993b5146201319&#45;&gt;place_a6d4df81ef896e3dae9187ed1a718a5abde20bcf -->
<g id="edge34" class="edge"><title>transition_1574bddb75c78a6fd2251d61e2993b5146201319&#45;&gt;place_a6d4df81ef896e3dae9187ed1a718a5abde20bcf</title>
<path fill="none" stroke="#333333" d="M274.172,-431.013C305.18,-431.013 340.934,-431.013 372.976,-431.013"/>
<polygon fill="#333333" stroke="#333333" points="373.085,-432.763 378.085,-431.013 373.085,-429.263 373.085,-432.763"/>
</g>
<!-- transition_0716d9708d321ffb6a00818614779e779925365c&#45;&gt;place_dc5c141b4b017ab2c3c93372cd73211e591b3dea -->
<g id="edge36" class="edge"><title>transition_0716d9708d321ffb6a00818614779e779925365c&#45;&gt;place_dc5c141b4b017ab2c3c93372cd73211e591b3dea</title>
<path fill="none" stroke="#333333" d="M721.499,-424.507C746.92,-423.414 782.367,-421.891 814.668,-420.503"/>
<polygon fill="#333333" stroke="#333333" points="814.902,-422.245 819.822,-420.282 814.752,-418.748 814.902,-422.245"/>
</g>
<!-- transition_9e6a55b6b4563e652a23be9d623ca5055c356940&#45;&gt;place_9804773f9a8846d1ea1d0cde5eb01d893b382682 -->
<g id="edge38" class="edge"><title>transition_9e6a55b6b4563e652a23be9d623ca5055c356940&#45;&gt;place_9804773f9a8846d1ea1d0cde5eb01d893b382682</title>
<path fill="none" stroke="#333333" d="M1869.5,-363.013C1934.91,-363.013 2026.41,-363.013 2097.01,-363.013"/>
<polygon fill="#333333" stroke="#333333" points="2097.06,-364.763 2102.06,-363.013 2097.06,-361.263 2097.06,-364.763"/>
</g>
<!-- transition_b3f0c7f6bb763af1be91d9e74eabfeb199dc1f1f&#45;&gt;place_664643489a68e9127ca5f29045b98aea46b3fffd -->
<g id="edge40" class="edge"><title>transition_b3f0c7f6bb763af1be91d9e74eabfeb199dc1f1f&#45;&gt;place_664643489a68e9127ca5f29045b98aea46b3fffd</title>
<path fill="none" stroke="#333333" d="M280.025,-201.939C290.293,-200.602 301.007,-199.206 311.876,-197.791"/>
<polygon fill="#333333" stroke="#333333" points="312.147,-199.52 316.879,-197.139 311.695,-196.05 312.147,-199.52"/>
</g>
<!-- transition_91032ad7bbcb6cf72875e8e8207dcfba80173f7c&#45;&gt;place_37caab4993715f768067bde3a516958dad5b68c4 -->
<g id="edge42" class="edge"><title>transition_91032ad7bbcb6cf72875e8e8207dcfba80173f7c&#45;&gt;place_37caab4993715f768067bde3a516958dad5b68c4</title>
<path fill="none" stroke="#333333" d="M721.499,-178.013C730.587,-178.013 740.956,-178.013 752.004,-178.013"/>
<polygon fill="#333333" stroke="#333333" points="752.126,-179.763 757.126,-178.013 752.126,-176.263 752.126,-179.763"/>
</g>
<!-- transition_472b07b9fcf2c2451e8781e944bf5f77cd8457c8&#45;&gt;place_603ac2dac5e51a400b34e54cd8c3863177d9c01b -->
<g id="edge44" class="edge"><title>transition_472b07b9fcf2c2451e8781e944bf5f77cd8457c8&#45;&gt;place_603ac2dac5e51a400b34e54cd8c3863177d9c01b</title>
<path fill="none" stroke="#333333" d="M1240.47,-178.013C1250.54,-178.013 1260.89,-178.013 1271.13,-178.013"/>
<polygon fill="#333333" stroke="#333333" points="1271.15,-179.763 1276.15,-178.013 1271.15,-176.263 1271.15,-179.763"/>
</g>
<!-- transition_12c6fc06c99a462375eeb3f43dfd832b08ca9e17&#45;&gt;place_1d873f095061223ff3e5aa2923f8eed67b6a60f3 -->
<g id="edge46" class="edge"><title>transition_12c6fc06c99a462375eeb3f43dfd832b08ca9e17&#45;&gt;place_1d873f095061223ff3e5aa2923f8eed67b6a60f3</title>
<path fill="none" stroke="#333333" d="M1617.36,-178.013C1639.38,-178.013 1668.81,-178.013 1696.81,-178.013"/>
<polygon fill="#333333" stroke="#333333" points="1697.02,-179.763 1702.02,-178.013 1697.02,-176.263 1697.02,-179.763"/>
</g>
<!-- transition_d435a6cdd786300dff204ee7c2ef942d3e9034e2&#45;&gt;place_9804773f9a8846d1ea1d0cde5eb01d893b382682 -->
<g id="edge48" class="edge"><title>transition_d435a6cdd786300dff204ee7c2ef942d3e9034e2&#45;&gt;place_9804773f9a8846d1ea1d0cde5eb01d893b382682</title>
<path fill="none" stroke="#333333" d="M2066.27,-270.124C2082.01,-280.825 2098.61,-292.116 2114.62,-302.999"/>
<polygon fill="#333333" stroke="#333333" points="2114,-304.693 2119.12,-306.056 2115.97,-301.798 2114,-304.693"/>
</g>
</g>
</svg>
