<?xml version="1.0" encoding="UTF-8" standalone="no"?>
<!DOCTYPE svg PUBLIC "-//W3C//DTD SVG 1.1//EN"
 "http://www.w3.org/Graphics/SVG/1.1/DTD/svg11.dtd">
<!-- Generated by graphviz version 2.38.0 (20140413.2041)
 -->
<!-- Title: workflow Pages: 1 -->
<svg width="2796pt" height="1120pt"
 viewBox="0.00 0.00 2795.78 1120.30" xmlns="http://www.w3.org/2000/svg" xmlns:xlink="http://www.w3.org/1999/xlink">
<g id="graph0" class="graph" transform="scale(1 1) rotate(0) translate(4 1116.3)">
<title>workflow</title>
<polygon fill="white" stroke="none" points="-4,4 -4,-1116.3 2791.78,-1116.3 2791.78,4 -4,4"/>
<!-- place_c72633f673ef54769f56bbaf78d2baf4858bf7c3 -->
<g id="node1" class="node"><title>place_c72633f673ef54769f56bbaf78d2baf4858bf7c3</title>
<ellipse fill="lightblue" stroke="#333333" cx="36" cy="-430.797" rx="36" ry="36"/>
<text text-anchor="middle" x="36" y="-428.597" font-family="Arial" font-size="9.00">ACTIVE</text>
</g>
<!-- transition_ac3478d69a3c81fa62e60f5c3696165a4e5e6ac4 -->
<g id="node26" class="node"><title>transition_ac3478d69a3c81fa62e60f5c3696165a4e5e6ac4</title>
<polygon fill="none" stroke="#333333" points="250.5,-759.297 137.5,-759.297 137.5,-646.297 250.5,-646.297 250.5,-759.297"/>
<text text-anchor="middle" x="194" y="-700.597" font-family="Arial" font-size="9.00">INITIATE_REVOCATION</text>
</g>
<!-- place_c72633f673ef54769f56bbaf78d2baf4858bf7c3&#45;&gt;transition_ac3478d69a3c81fa62e60f5c3696165a4e5e6ac4 -->
<g id="edge11" class="edge"><title>place_c72633f673ef54769f56bbaf78d2baf4858bf7c3&#45;&gt;transition_ac3478d69a3c81fa62e60f5c3696165a4e5e6ac4</title>
<path fill="none" stroke="#333333" d="M60.8469,-457.645C65.0398,-463.35 69.0111,-469.547 72,-475.797 102.138,-538.818 71.9175,-568.98 108,-628.797 114.781,-640.037 123.845,-650.469 133.532,-659.744"/>
<polygon fill="#333333" stroke="#333333" points="132.57,-661.24 137.418,-663.375 134.959,-658.683 132.57,-661.24"/>
</g>
<!-- transition_17ba0791499db908433b80f37c5fbc89b870084b -->
<g id="node32" class="node"><title>transition_17ba0791499db908433b80f37c5fbc89b870084b</title>
<polygon fill="none" stroke="#333333" points="237,-619.797 151,-619.797 151,-533.797 237,-533.797 237,-619.797"/>
<text text-anchor="middle" x="194" y="-574.597" font-family="Arial" font-size="9.00">INITIATE_PAUSE</text>
</g>
<!-- place_c72633f673ef54769f56bbaf78d2baf4858bf7c3&#45;&gt;transition_17ba0791499db908433b80f37c5fbc89b870084b -->
<g id="edge23" class="edge"><title>place_c72633f673ef54769f56bbaf78d2baf4858bf7c3&#45;&gt;transition_17ba0791499db908433b80f37c5fbc89b870084b</title>
<path fill="none" stroke="#333333" d="M58.9854,-458.776C78.7557,-483.871 105.128,-517.153 108,-519.797 119.627,-530.5 133.435,-540.647 146.506,-549.332"/>
<polygon fill="#333333" stroke="#333333" points="145.766,-550.939 150.906,-552.22 147.686,-548.013 145.766,-550.939"/>
</g>
<!-- transition_f1abd670358e036c31296e66b3b66c382ac00812 -->
<g id="node36" class="node"><title>transition_f1abd670358e036c31296e66b3b66c382ac00812</title>
<polygon fill="none" stroke="#333333" points="274,-510.797 114,-510.797 114,-350.797 274,-350.797 274,-510.797"/>
<text text-anchor="middle" x="194" y="-428.597" font-family="Arial" font-size="9.00">INITIATE_TRANSACTION_UPDATE</text>
</g>
<!-- place_c72633f673ef54769f56bbaf78d2baf4858bf7c3&#45;&gt;transition_f1abd670358e036c31296e66b3b66c382ac00812 -->
<g id="edge31" class="edge"><title>place_c72633f673ef54769f56bbaf78d2baf4858bf7c3&#45;&gt;transition_f1abd670358e036c31296e66b3b66c382ac00812</title>
<path fill="none" stroke="#333333" d="M72.0094,-430.797C83.0328,-430.797 95.7221,-430.797 108.646,-430.797"/>
<polygon fill="#333333" stroke="#333333" points="108.801,-432.547 113.801,-430.797 108.801,-429.047 108.801,-432.547"/>
</g>
<!-- transition_9e6a55b6b4563e652a23be9d623ca5055c356940 -->
<g id="node39" class="node"><title>transition_9e6a55b6b4563e652a23be9d623ca5055c356940</title>
<polygon fill="none" stroke="#333333" points="280,-298.797 108,-298.797 108,-126.797 280,-126.797 280,-298.797"/>
<text text-anchor="middle" x="194" y="-210.597" font-family="Arial" font-size="9.00">INITIATE_PAYER_NUMBER_CHANGE</text>
</g>
<!-- place_c72633f673ef54769f56bbaf78d2baf4858bf7c3&#45;&gt;transition_9e6a55b6b4563e652a23be9d623ca5055c356940 -->
<g id="edge37" class="edge"><title>place_c72633f673ef54769f56bbaf78d2baf4858bf7c3&#45;&gt;transition_9e6a55b6b4563e652a23be9d623ca5055c356940</title>
<path fill="none" stroke="#333333" d="M57.7156,-401.848C75.7947,-376.584 103.024,-338.532 128.326,-303.174"/>
<polygon fill="#333333" stroke="#333333" points="129.915,-303.961 131.402,-298.877 127.069,-301.924 129.915,-303.961"/>
</g>
<!-- place_e6055c5a6ee8feda91cdd5be510d21cec274b4c8 -->
<g id="node2" class="node"><title>place_e6055c5a6ee8feda91cdd5be510d21cec274b4c8</title>
<ellipse fill="none" stroke="#333333" cx="464.723" cy="-582.797" rx="48.05" ry="48.05"/>
<text text-anchor="middle" x="464.723" y="-580.597" font-family="Arial" font-size="9.00">AWAITING_PAUSE</text>
</g>
<!-- transition_7b52009b64fd0a2a49e6d8a939753077792b0554 -->
<g id="node33" class="node"><title>transition_7b52009b64fd0a2a49e6d8a939753077792b0554</title>
<polygon fill="none" stroke="#333333" points="721.445,-613.797 649.445,-613.797 649.445,-541.797 721.445,-541.797 721.445,-613.797"/>
<text text-anchor="middle" x="685.445" y="-575.597" font-family="Arial" font-size="9.00">EXPORT</text>
</g>
<!-- place_e6055c5a6ee8feda91cdd5be510d21cec274b4c8&#45;&gt;transition_7b52009b64fd0a2a49e6d8a939753077792b0554 -->
<g id="edge25" class="edge"><title>place_e6055c5a6ee8feda91cdd5be510d21cec274b4c8&#45;&gt;transition_7b52009b64fd0a2a49e6d8a939753077792b0554</title>
<path fill="none" stroke="#333333" d="M512.913,-581.718C551.934,-580.826 606.768,-579.573 643.85,-578.725"/>
<polygon fill="#333333" stroke="#333333" points="644.23,-580.467 649.189,-578.603 644.15,-576.968 644.23,-580.467"/>
</g>
<!-- place_603ac2dac5e51a400b34e54cd8c3863177d9c01b -->
<g id="node3" class="node"><title>place_603ac2dac5e51a400b34e54cd8c3863177d9c01b</title>
<ellipse fill="none" stroke="#333333" cx="1359.74" cy="-212.797" rx="92.3705" ry="92.3705"/>
<text text-anchor="middle" x="1359.74" y="-210.597" font-family="Arial" font-size="9.00">AWAITING_PAYER_NUMBER_CHANGE</text>
</g>
<!-- transition_472b07b9fcf2c2451e8781e944bf5f77cd8457c8 -->
<g id="node42" class="node"><title>transition_472b07b9fcf2c2451e8781e944bf5f77cd8457c8</title>
<polygon fill="none" stroke="#333333" points="1603.67,-253.797 1531.67,-253.797 1531.67,-181.797 1603.67,-181.797 1603.67,-253.797"/>
<text text-anchor="middle" x="1567.67" y="-215.597" font-family="Arial" font-size="9.00">EXPORT</text>
</g>
<!-- place_603ac2dac5e51a400b34e54cd8c3863177d9c01b&#45;&gt;transition_472b07b9fcf2c2451e8781e944bf5f77cd8457c8 -->
<g id="edge43" class="edge"><title>place_603ac2dac5e51a400b34e54cd8c3863177d9c01b&#45;&gt;transition_472b07b9fcf2c2451e8781e944bf5f77cd8457c8</title>
<path fill="none" stroke="#333333" d="M1452.26,-215.019C1478.21,-215.649 1505.13,-216.303 1526.34,-216.818"/>
<polygon fill="#333333" stroke="#333333" points="1526.57,-218.574 1531.61,-216.945 1526.65,-215.075 1526.57,-218.574"/>
</g>
<!-- place_664643489a68e9127ca5f29045b98aea46b3fffd -->
<g id="node4" class="node"><title>place_664643489a68e9127ca5f29045b98aea46b3fffd</title>
<ellipse fill="none" stroke="#333333" cx="464.723" cy="-177.797" rx="148.945" ry="148.945"/>
<text text-anchor="middle" x="464.723" y="-175.597" font-family="Arial" font-size="9.00">AWAITING_PAYER_NUMBER_CHANGE_TRANSACTION_UPDATE</text>
</g>
<!-- transition_b3f0c7f6bb763af1be91d9e74eabfeb199dc1f1f -->
<g id="node40" class="node"><title>transition_b3f0c7f6bb763af1be91d9e74eabfeb199dc1f1f</title>
<polygon fill="none" stroke="#333333" points="721.445,-217.797 649.445,-217.797 649.445,-145.797 721.445,-145.797 721.445,-217.797"/>
<text text-anchor="middle" x="685.445" y="-179.597" font-family="Arial" font-size="9.00">EXPORT</text>
</g>
<!-- place_664643489a68e9127ca5f29045b98aea46b3fffd&#45;&gt;transition_b3f0c7f6bb763af1be91d9e74eabfeb199dc1f1f -->
<g id="edge39" class="edge"><title>place_664643489a68e9127ca5f29045b98aea46b3fffd&#45;&gt;transition_b3f0c7f6bb763af1be91d9e74eabfeb199dc1f1f</title>
<path fill="none" stroke="#333333" d="M613.432,-180.498C624.438,-180.699 634.851,-180.89 644.139,-181.06"/>
<polygon fill="#333333" stroke="#333333" points="644.149,-182.81 649.18,-181.152 644.213,-179.311 644.149,-182.81"/>
</g>
<!-- place_9031bdf59fef50c79366e1e807bcd3165f1b86da -->
<g id="node5" class="node"><title>place_9031bdf59fef50c79366e1e807bcd3165f1b86da</title>
<ellipse fill="none" stroke="#333333" cx="464.723" cy="-711.797" rx="62.4683" ry="62.4683"/>
<text text-anchor="middle" x="464.723" y="-709.597" font-family="Arial" font-size="9.00">AWAITING_REVOCATION</text>
</g>
<!-- transition_c1dfd96eea8cc2b62785275bca38ac261256e278 -->
<g id="node27" class="node"><title>transition_c1dfd96eea8cc2b62785275bca38ac261256e278</title>
<polygon fill="none" stroke="#333333" points="721.445,-747.797 649.445,-747.797 649.445,-675.797 721.445,-675.797 721.445,-747.797"/>
<text text-anchor="middle" x="685.445" y="-709.597" font-family="Arial" font-size="9.00">EXPORT</text>
</g>
<!-- place_9031bdf59fef50c79366e1e807bcd3165f1b86da&#45;&gt;transition_c1dfd96eea8cc2b62785275bca38ac261256e278 -->
<g id="edge13" class="edge"><title>place_9031bdf59fef50c79366e1e807bcd3165f1b86da&#45;&gt;transition_c1dfd96eea8cc2b62785275bca38ac261256e278</title>
<path fill="none" stroke="#333333" d="M527.231,-711.797C564.651,-711.797 611.382,-711.797 644.133,-711.797"/>
<polygon fill="#333333" stroke="#333333" points="644.266,-713.547 649.266,-711.797 644.266,-710.047 644.266,-713.547"/>
</g>
<!-- place_9804773f9a8846d1ea1d0cde5eb01d893b382682 -->
<g id="node6" class="node"><title>place_9804773f9a8846d1ea1d0cde5eb01d893b382682</title>
<ellipse fill="none" stroke="#333333" cx="2175.18" cy="-403.797" rx="101.961" ry="101.961"/>
<text text-anchor="middle" x="2175.18" y="-401.597" font-family="Arial" font-size="9.00">AWAITING_TRANSACTION_REGISTRATION</text>
</g>
<!-- transition_77de68daecd823babbb58edb1c8e14d7106e83bb -->
<g id="node24" class="node"><title>transition_77de68daecd823babbb58edb1c8e14d7106e83bb</title>
<polygon fill="none" stroke="#333333" points="2384.91,-368.797 2312.91,-368.797 2312.91,-296.797 2384.91,-296.797 2384.91,-368.797"/>
<text text-anchor="middle" x="2348.91" y="-330.597" font-family="Arial" font-size="9.00">EXPORT</text>
</g>
<!-- place_9804773f9a8846d1ea1d0cde5eb01d893b382682&#45;&gt;transition_77de68daecd823babbb58edb1c8e14d7106e83bb -->
<g id="edge7" class="edge"><title>place_9804773f9a8846d1ea1d0cde5eb01d893b382682&#45;&gt;transition_77de68daecd823babbb58edb1c8e14d7106e83bb</title>
<path fill="none" stroke="#333333" d="M2269.58,-365.18C2283.08,-359.602 2296.32,-354.128 2307.96,-349.313"/>
<polygon fill="#333333" stroke="#333333" points="2308.9,-350.819 2312.85,-347.292 2307.56,-347.585 2308.9,-350.819"/>
</g>
<!-- place_a6d4df81ef896e3dae9187ed1a718a5abde20bcf -->
<g id="node7" class="node"><title>place_a6d4df81ef896e3dae9187ed1a718a5abde20bcf</title>
<ellipse fill="none" stroke="#333333" cx="464.723" cy="-430.797" rx="86.4775" ry="86.4775"/>
<text text-anchor="middle" x="464.723" y="-428.597" font-family="Arial" font-size="9.00">AWAITING_TRANSACTION_UPDATE</text>
</g>
<!-- transition_1574bddb75c78a6fd2251d61e2993b5146201319 -->
<g id="node37" class="node"><title>transition_1574bddb75c78a6fd2251d61e2993b5146201319</title>
<polygon fill="none" stroke="#333333" points="721.445,-465.797 649.445,-465.797 649.445,-393.797 721.445,-393.797 721.445,-465.797"/>
<text text-anchor="middle" x="685.445" y="-427.597" font-family="Arial" font-size="9.00">EXPORT</text>
</g>
<!-- place_a6d4df81ef896e3dae9187ed1a718a5abde20bcf&#45;&gt;transition_1574bddb75c78a6fd2251d61e2993b5146201319 -->
<g id="edge33" class="edge"><title>place_a6d4df81ef896e3dae9187ed1a718a5abde20bcf&#45;&gt;transition_1574bddb75c78a6fd2251d61e2993b5146201319</title>
<path fill="none" stroke="#333333" d="M551.226,-430.406C583.239,-430.26 618.119,-430.1 644.156,-429.981"/>
<polygon fill="#333333" stroke="#333333" points="644.25,-431.731 649.242,-429.958 644.234,-428.231 644.25,-431.731"/>
</g>
<!-- place_0b99cebe565822c64ac5d84aecb00fe40e59cbd3 -->
<g id="node8" class="node"><title>place_0b99cebe565822c64ac5d84aecb00fe40e59cbd3</title>
<ellipse fill="none" stroke="#333333" cx="36" cy="-520.797" rx="36" ry="36"/>
<text text-anchor="middle" x="36" y="-518.597" font-family="Arial" font-size="9.00">ERROR</text>
</g>
<!-- place_d2b9cb7f8fd77caeaa93cb6ecf9a2c6c01a8aa39 -->
<g id="node9" class="node"><title>place_d2b9cb7f8fd77caeaa93cb6ecf9a2c6c01a8aa39</title>
<ellipse fill="none" stroke="#333333" cx="1766.31" cy="-627.797" rx="44.8533" ry="44.8533"/>
<text text-anchor="middle" x="1766.31" y="-625.597" font-family="Arial" font-size="9.00">MANDATE_SENT</text>
</g>
<!-- transition_da4b9237bacccdf19c0760cab7aec4a8359010b0 -->
<g id="node23" class="node"><title>transition_da4b9237bacccdf19c0760cab7aec4a8359010b0</title>
<polygon fill="none" stroke="#333333" points="2037.45,-702.797 1885.45,-702.797 1885.45,-550.797 2037.45,-550.797 2037.45,-702.797"/>
<text text-anchor="middle" x="1961.45" y="-624.597" font-family="Arial" font-size="9.00">MARK_MANDATE_REGISTERED</text>
</g>
<!-- place_d2b9cb7f8fd77caeaa93cb6ecf9a2c6c01a8aa39&#45;&gt;transition_da4b9237bacccdf19c0760cab7aec4a8359010b0 -->
<g id="edge5" class="edge"><title>place_d2b9cb7f8fd77caeaa93cb6ecf9a2c6c01a8aa39&#45;&gt;transition_da4b9237bacccdf19c0760cab7aec4a8359010b0</title>
<path fill="none" stroke="#333333" d="M1811.62,-627.567C1831.91,-627.462 1856.61,-627.334 1880.01,-627.213"/>
<polygon fill="#333333" stroke="#333333" points="1880.31,-628.962 1885.3,-627.186 1880.29,-625.462 1880.31,-628.962"/>
</g>
<!-- place_e1b6adc61c1e09203349001f5eeaf8573afcf571 -->
<g id="node10" class="node"><title>place_e1b6adc61c1e09203349001f5eeaf8573afcf571</title>
<ellipse fill="none" stroke="#333333" cx="1359.74" cy="-627.797" rx="63.0011" ry="63.0011"/>
<text text-anchor="middle" x="1359.74" y="-625.597" font-family="Arial" font-size="9.00">NEW_DIGITAL_MANDATE</text>
</g>
<!-- transition_356a192b7913b04c54574d18c28d46e6395428ab -->
<g id="node22" class="node"><title>transition_356a192b7913b04c54574d18c28d46e6395428ab</title>
<polygon fill="none" stroke="#333333" points="1603.67,-663.797 1531.67,-663.797 1531.67,-591.797 1603.67,-591.797 1603.67,-663.797"/>
<text text-anchor="middle" x="1567.67" y="-625.597" font-family="Arial" font-size="9.00">EXPORT</text>
</g>
<!-- place_e1b6adc61c1e09203349001f5eeaf8573afcf571&#45;&gt;transition_356a192b7913b04c54574d18c28d46e6395428ab -->
<g id="edge3" class="edge"><title>place_e1b6adc61c1e09203349001f5eeaf8573afcf571&#45;&gt;transition_356a192b7913b04c54574d18c28d46e6395428ab</title>
<path fill="none" stroke="#333333" d="M1422.8,-627.797C1456.5,-627.797 1497.18,-627.797 1526.67,-627.797"/>
<polygon fill="#333333" stroke="#333333" points="1526.67,-629.547 1531.67,-627.797 1526.67,-626.047 1526.67,-629.547"/>
</g>
<!-- place_818af3c4262f96a99ab981900e5a0e1c415b44df -->
<g id="node11" class="node"><title>place_818af3c4262f96a99ab981900e5a0e1c415b44df</title>
<ellipse fill="none" stroke="#333333" cx="1359.74" cy="-751.797" rx="43.2552" ry="43.2552"/>
<text text-anchor="middle" x="1359.74" y="-749.597" font-family="Arial" font-size="9.00">NEW_MANDATE</text>
</g>
<!-- transition_b6589fc6ab0dc82cf12099d1c2d40ab994e8410c -->
<g id="node21" class="node"><title>transition_b6589fc6ab0dc82cf12099d1c2d40ab994e8410c</title>
<polygon fill="none" stroke="#333333" points="1603.67,-766.797 1531.67,-766.797 1531.67,-694.797 1603.67,-694.797 1603.67,-766.797"/>
<text text-anchor="middle" x="1567.67" y="-728.597" font-family="Arial" font-size="9.00">EXPORT</text>
</g>
<!-- place_818af3c4262f96a99ab981900e5a0e1c415b44df&#45;&gt;transition_b6589fc6ab0dc82cf12099d1c2d40ab994e8410c -->
<g id="edge1" class="edge"><title>place_818af3c4262f96a99ab981900e5a0e1c415b44df&#45;&gt;transition_b6589fc6ab0dc82cf12099d1c2d40ab994e8410c</title>
<path fill="none" stroke="#333333" d="M1402.91,-747.496C1439.02,-743.814 1490.68,-738.546 1526.27,-734.916"/>
<polygon fill="#333333" stroke="#333333" points="1526.61,-736.641 1531.41,-734.393 1526.25,-733.159 1526.61,-736.641"/>
</g>
<!-- place_ead9028928ebb77be9947a639f024bb8b67c643a -->
<g id="node12" class="node"><title>place_ead9028928ebb77be9947a639f024bb8b67c643a</title>
<ellipse fill="none" stroke="#333333" cx="896.873" cy="-568.797" rx="38.961" ry="38.961"/>
<text text-anchor="middle" x="896.873" y="-566.597" font-family="Arial" font-size="9.00">PAUSE_SENT</text>
</g>
<!-- transition_bd307a3ec329e10a2cff8fb87480823da114f8f4 -->
<g id="node34" class="node"><title>transition_bd307a3ec329e10a2cff8fb87480823da114f8f4</title>
<polygon fill="none" stroke="#333333" points="1231.3,-606.297 1072.3,-606.297 1072.3,-447.297 1231.3,-447.297 1231.3,-606.297"/>
<text text-anchor="middle" x="1151.8" y="-524.597" font-family="Arial" font-size="9.00">MARK_TRANSACTION_REMOVED</text>
</g>
<!-- place_ead9028928ebb77be9947a639f024bb8b67c643a&#45;&gt;transition_bd307a3ec329e10a2cff8fb87480823da114f8f4 -->
<g id="edge27" class="edge"><title>place_ead9028928ebb77be9947a639f024bb8b67c643a&#45;&gt;transition_bd307a3ec329e10a2cff8fb87480823da114f8f4</title>
<path fill="none" stroke="#333333" d="M935.193,-562.6C969.793,-556.854 1022.51,-548.101 1067.15,-540.687"/>
<polygon fill="#333333" stroke="#333333" points="1067.63,-542.382 1072.27,-539.836 1067.06,-538.929 1067.63,-542.382"/>
</g>
<!-- place_cd5d07c90b5c8a0724fc18d8b9c909271052f2b5 -->
<g id="node13" class="node"><title>place_cd5d07c90b5c8a0724fc18d8b9c909271052f2b5</title>
<ellipse fill="none" stroke="#333333" cx="1359.74" cy="-510.797" rx="36" ry="36"/>
<text text-anchor="middle" x="1359.74" y="-508.597" font-family="Arial" font-size="9.00">PAUSED</text>
</g>
<!-- transition_fa35e192121eabf3dabf9f5ea6abdbcbc107ac3b -->
<g id="node35" class="node"><title>transition_fa35e192121eabf3dabf9f5ea6abdbcbc107ac3b</title>
<polygon fill="none" stroke="#333333" points="2009.95,-531.297 1912.95,-531.297 1912.95,-434.297 2009.95,-434.297 2009.95,-531.297"/>
<text text-anchor="middle" x="1961.45" y="-480.597" font-family="Arial" font-size="9.00">INITIATE_RESTART</text>
</g>
<!-- place_cd5d07c90b5c8a0724fc18d8b9c909271052f2b5&#45;&gt;transition_fa35e192121eabf3dabf9f5ea6abdbcbc107ac3b -->
<g id="edge29" class="edge"><title>place_cd5d07c90b5c8a0724fc18d8b9c909271052f2b5&#45;&gt;transition_fa35e192121eabf3dabf9f5ea6abdbcbc107ac3b</title>
<path fill="none" stroke="#333333" d="M1396.02,-509.934C1476.49,-507.854 1679.72,-501.972 1849.45,-491.797 1868.5,-490.655 1889.37,-489.055 1907.81,-487.521"/>
<polygon fill="#333333" stroke="#333333" points="1908.11,-489.252 1912.95,-487.09 1907.82,-485.764 1908.11,-489.252"/>
</g>
<!-- place_1d873f095061223ff3e5aa2923f8eed67b6a60f3 -->
<g id="node14" class="node"><title>place_1d873f095061223ff3e5aa2923f8eed67b6a60f3</title>
<ellipse fill="none" stroke="#333333" cx="1766.31" cy="-220.797" rx="83.2803" ry="83.2803"/>
<text text-anchor="middle" x="1766.31" y="-218.597" font-family="Arial" font-size="9.00">PAYER_NUMBER_CHANGE_SENT</text>
</g>
<!-- transition_12c6fc06c99a462375eeb3f43dfd832b08ca9e17 -->
<g id="node43" class="node"><title>transition_12c6fc06c99a462375eeb3f43dfd832b08ca9e17</title>
<polygon fill="none" stroke="#333333" points="2037.45,-335.797 1885.45,-335.797 1885.45,-183.797 2037.45,-183.797 2037.45,-335.797"/>
<text text-anchor="middle" x="1961.45" y="-257.597" font-family="Arial" font-size="9.00">MARK_MANDATE_REGISTERED</text>
</g>
<!-- place_1d873f095061223ff3e5aa2923f8eed67b6a60f3&#45;&gt;transition_12c6fc06c99a462375eeb3f43dfd832b08ca9e17 -->
<g id="edge45" class="edge"><title>place_1d873f095061223ff3e5aa2923f8eed67b6a60f3&#45;&gt;transition_12c6fc06c99a462375eeb3f43dfd832b08ca9e17</title>
<path fill="none" stroke="#333333" d="M1848.1,-237.11C1858.67,-239.245 1869.5,-241.432 1880.07,-243.565"/>
<polygon fill="#333333" stroke="#333333" points="1879.98,-245.333 1885.23,-244.608 1880.67,-241.902 1879.98,-245.333"/>
</g>
<!-- place_37caab4993715f768067bde3a516958dad5b68c4 -->
<g id="node15" class="node"><title>place_37caab4993715f768067bde3a516958dad5b68c4</title>
<ellipse fill="none" stroke="#333333" cx="896.873" cy="-185.797" rx="139.355" ry="139.355"/>
<text text-anchor="middle" x="896.873" y="-183.597" font-family="Arial" font-size="9.00">PAYER_NUMBER_CHANGE_TRANSACTION_UPDATE_SENT</text>
</g>
<!-- transition_91032ad7bbcb6cf72875e8e8207dcfba80173f7c -->
<g id="node41" class="node"><title>transition_91032ad7bbcb6cf72875e8e8207dcfba80173f7c</title>
<polygon fill="none" stroke="#333333" points="1231.3,-283.297 1072.3,-283.297 1072.3,-124.297 1231.3,-124.297 1231.3,-283.297"/>
<text text-anchor="middle" x="1151.8" y="-201.597" font-family="Arial" font-size="9.00">MARK_TRANSACTION_REMOVED</text>
</g>
<!-- place_37caab4993715f768067bde3a516958dad5b68c4&#45;&gt;transition_91032ad7bbcb6cf72875e8e8207dcfba80173f7c -->
<g id="edge41" class="edge"><title>place_37caab4993715f768067bde3a516958dad5b68c4&#45;&gt;transition_91032ad7bbcb6cf72875e8e8207dcfba80173f7c</title>
<path fill="none" stroke="#333333" d="M1036.18,-195.639C1046.69,-196.387 1057.08,-197.127 1067.08,-197.839"/>
<polygon fill="#333333" stroke="#333333" points="1067.15,-199.598 1072.27,-198.208 1067.4,-196.107 1067.15,-199.598"/>
</g>
<!-- place_4ab3919e3d5f33ebd977a1af7ba9fb5159a24b86 -->
<g id="node16" class="node"><title>place_4ab3919e3d5f33ebd977a1af7ba9fb5159a24b86</title>
<ellipse fill="none" stroke="#333333" cx="1766.31" cy="-1043.8" rx="36" ry="36"/>
<text text-anchor="middle" x="1766.31" y="-1041.6" font-family="Arial" font-size="9.00">REMOVED</text>
</g>
<!-- place_e6f4dd32e509fdb03fd79f1ac358ad70ffed3131 -->
<g id="node17" class="node"><title>place_e6f4dd32e509fdb03fd79f1ac358ad70ffed3131</title>
<ellipse fill="none" stroke="#333333" cx="896.873" cy="-711.797" rx="53.3786" ry="53.3786"/>
<text text-anchor="middle" x="896.873" y="-709.597" font-family="Arial" font-size="9.00">REVOCATION_SENT</text>
</g>
<!-- transition_902ba3cda1883801594b6e1b452790cc53948fda -->
<g id="node28" class="node"><title>transition_902ba3cda1883801594b6e1b452790cc53948fda</title>
<polygon fill="none" stroke="#333333" points="1220.3,-946.297 1083.3,-946.297 1083.3,-809.297 1220.3,-809.297 1220.3,-946.297"/>
<text text-anchor="middle" x="1151.8" y="-875.597" font-family="Arial" font-size="9.00">MARK_MANDATE_REVOKED</text>
</g>
<!-- place_e6f4dd32e509fdb03fd79f1ac358ad70ffed3131&#45;&gt;transition_902ba3cda1883801594b6e1b452790cc53948fda -->
<g id="edge15" class="edge"><title>place_e6f4dd32e509fdb03fd79f1ac358ad70ffed3131&#45;&gt;transition_902ba3cda1883801594b6e1b452790cc53948fda</title>
<path fill="none" stroke="#333333" d="M941.64,-740.522C979.307,-765.244 1034.4,-801.404 1078.59,-830.407"/>
<polygon fill="#333333" stroke="#333333" points="1077.69,-831.91 1082.83,-833.19 1079.61,-828.984 1077.69,-831.91"/>
</g>
<!-- transition_0ade7c2cf97f75d009975f4d720d1fa6c19f4897 -->
<g id="node30" class="node"><title>transition_0ade7c2cf97f75d009975f4d720d1fa6c19f4897</title>
<polygon fill="none" stroke="#333333" points="1231.3,-791.297 1072.3,-791.297 1072.3,-632.297 1231.3,-632.297 1231.3,-791.297"/>
<text text-anchor="middle" x="1151.8" y="-709.597" font-family="Arial" font-size="9.00">MARK_TRANSACTION_REMOVED</text>
</g>
<!-- place_e6f4dd32e509fdb03fd79f1ac358ad70ffed3131&#45;&gt;transition_0ade7c2cf97f75d009975f4d720d1fa6c19f4897 -->
<g id="edge19" class="edge"><title>place_e6f4dd32e509fdb03fd79f1ac358ad70ffed3131&#45;&gt;transition_0ade7c2cf97f75d009975f4d720d1fa6c19f4897</title>
<path fill="none" stroke="#333333" d="M949.973,-706.215C983.603,-705.011 1028.12,-704.738 1066.69,-705.395"/>
<polygon fill="#333333" stroke="#333333" points="1066.81,-707.148 1071.84,-705.489 1066.88,-703.648 1066.81,-707.148"/>
</g>
<!-- place_cfd92d62c5a0f95de1ff12861b9eefedca756f7b -->
<g id="node18" class="node"><title>place_cfd92d62c5a0f95de1ff12861b9eefedca756f7b</title>
<ellipse fill="none" stroke="#333333" cx="1359.74" cy="-877.797" rx="36" ry="36"/>
<text text-anchor="middle" x="1359.74" y="-875.597" font-family="Arial" font-size="9.00">REVOKED</text>
</g>
<!-- transition_fe5dbbcea5ce7e2988b8c69bcfdfde8904aabc1f -->
<g id="node29" class="node"><title>transition_fe5dbbcea5ce7e2988b8c69bcfdfde8904aabc1f</title>
<polygon fill="none" stroke="#333333" points="1636.17,-1112.3 1499.17,-1112.3 1499.17,-975.297 1636.17,-975.297 1636.17,-1112.3"/>
<text text-anchor="middle" x="1567.67" y="-1041.6" font-family="Arial" font-size="9.00">MARK_MANDATE_REMOVED</text>
</g>
<!-- place_cfd92d62c5a0f95de1ff12861b9eefedca756f7b&#45;&gt;transition_fe5dbbcea5ce7e2988b8c69bcfdfde8904aabc1f -->
<g id="edge17" class="edge"><title>place_cfd92d62c5a0f95de1ff12861b9eefedca756f7b&#45;&gt;transition_fe5dbbcea5ce7e2988b8c69bcfdfde8904aabc1f</title>
<path fill="none" stroke="#333333" d="M1388.51,-900.184C1415.73,-922.129 1458.37,-956.502 1495.12,-986.119"/>
<polygon fill="#333333" stroke="#333333" points="1494.12,-987.561 1499.11,-989.336 1496.31,-984.836 1494.12,-987.561"/>
</g>
<!-- transition_b1d5781111d84f7b3fe45a0852e59758cd7a87e5 -->
<g id="node31" class="node"><title>transition_b1d5781111d84f7b3fe45a0852e59758cd7a87e5</title>
<polygon fill="none" stroke="#333333" points="1647.17,-957.297 1488.17,-957.297 1488.17,-798.297 1647.17,-798.297 1647.17,-957.297"/>
<text text-anchor="middle" x="1567.67" y="-875.597" font-family="Arial" font-size="9.00">MARK_TRANSACTION_REMOVED</text>
</g>
<!-- place_cfd92d62c5a0f95de1ff12861b9eefedca756f7b&#45;&gt;transition_b1d5781111d84f7b3fe45a0852e59758cd7a87e5 -->
<g id="edge21" class="edge"><title>place_cfd92d62c5a0f95de1ff12861b9eefedca756f7b&#45;&gt;transition_b1d5781111d84f7b3fe45a0852e59758cd7a87e5</title>
<path fill="none" stroke="#333333" d="M1395.67,-872.58C1419.53,-871.294 1452.23,-870.817 1482.64,-871.149"/>
<polygon fill="#333333" stroke="#333333" points="1482.87,-872.902 1487.89,-871.215 1482.91,-869.402 1482.87,-872.902"/>
</g>
<!-- place_a341b9d56a2c3bfd653b2d5b01bddd97b7946ca1 -->
<g id="node19" class="node"><title>place_a341b9d56a2c3bfd653b2d5b01bddd97b7946ca1</title>
<ellipse fill="none" stroke="#333333" cx="2513.35" cy="-191.797" rx="92.3705" ry="92.3705"/>
<text text-anchor="middle" x="2513.35" y="-189.597" font-family="Arial" font-size="9.00">TRANSACTION_REGISTRATION_SENT</text>
</g>
<!-- transition_1b6453892473a467d07372d45eb05abc2031647a -->
<g id="node25" class="node"><title>transition_1b6453892473a467d07372d45eb05abc2031647a</title>
<polygon fill="none" stroke="#333333" points="2787.78,-168.797 2641.78,-168.797 2641.78,-22.7968 2787.78,-22.7968 2787.78,-168.797"/>
<text text-anchor="middle" x="2714.78" y="-93.5968" font-family="Arial" font-size="9.00">MARK_TRANSACTION_ACTIVE</text>
</g>
<!-- place_a341b9d56a2c3bfd653b2d5b01bddd97b7946ca1&#45;&gt;transition_1b6453892473a467d07372d45eb05abc2031647a -->
<g id="edge9" class="edge"><title>place_a341b9d56a2c3bfd653b2d5b01bddd97b7946ca1&#45;&gt;transition_1b6453892473a467d07372d45eb05abc2031647a</title>
<path fill="none" stroke="#333333" d="M2596.9,-152.057C2610.07,-145.717 2623.66,-139.179 2636.69,-132.903"/>
<polygon fill="#333333" stroke="#333333" points="2637.73,-134.35 2641.47,-130.604 2636.21,-131.196 2637.73,-134.35"/>
</g>
<!-- place_dc5c141b4b017ab2c3c93372cd73211e591b3dea -->
<g id="node20" class="node"><title>place_dc5c141b4b017ab2c3c93372cd73211e591b3dea</title>
<ellipse fill="none" stroke="#333333" cx="896.873" cy="-428.797" rx="76.8866" ry="76.8866"/>
<text text-anchor="middle" x="896.873" y="-426.597" font-family="Arial" font-size="9.00">TRANSACTION_UPDATE_SENT</text>
</g>
<!-- transition_0716d9708d321ffb6a00818614779e779925365c -->
<g id="node38" class="node"><title>transition_0716d9708d321ffb6a00818614779e779925365c</title>
<polygon fill="none" stroke="#333333" points="1845.81,-483.297 1686.81,-483.297 1686.81,-324.297 1845.81,-324.297 1845.81,-483.297"/>
<text text-anchor="middle" x="1766.31" y="-401.597" font-family="Arial" font-size="9.00">MARK_TRANSACTION_REMOVED</text>
</g>
<!-- place_dc5c141b4b017ab2c3c93372cd73211e591b3dea&#45;&gt;transition_0716d9708d321ffb6a00818614779e779925365c -->
<g id="edge35" class="edge"><title>place_dc5c141b4b017ab2c3c93372cd73211e591b3dea&#45;&gt;transition_0716d9708d321ffb6a00818614779e779925365c</title>
<path fill="none" stroke="#333333" d="M974.092,-426.6C1135.94,-421.935 1512.89,-411.072 1681.36,-406.216"/>
<polygon fill="#333333" stroke="#333333" points="1681.82,-407.954 1686.77,-406.06 1681.72,-404.455 1681.82,-407.954"/>
</g>
<!-- transition_b6589fc6ab0dc82cf12099d1c2d40ab994e8410c&#45;&gt;place_d2b9cb7f8fd77caeaa93cb6ecf9a2c6c01a8aa39 -->
<g id="edge2" class="edge"><title>transition_b6589fc6ab0dc82cf12099d1c2d40ab994e8410c&#45;&gt;place_d2b9cb7f8fd77caeaa93cb6ecf9a2c6c01a8aa39</title>
<path fill="none" stroke="#333333" d="M1603.83,-712.382C1636.71,-695.16 1685.93,-669.377 1721.38,-650.806"/>
<polygon fill="#333333" stroke="#333333" points="1722.46,-652.22 1726.07,-648.349 1720.83,-649.119 1722.46,-652.22"/>
</g>
<!-- transition_356a192b7913b04c54574d18c28d46e6395428ab&#45;&gt;place_d2b9cb7f8fd77caeaa93cb6ecf9a2c6c01a8aa39 -->
<g id="edge4" class="edge"><title>transition_356a192b7913b04c54574d18c28d46e6395428ab&#45;&gt;place_d2b9cb7f8fd77caeaa93cb6ecf9a2c6c01a8aa39</title>
<path fill="none" stroke="#333333" d="M1603.83,-627.797C1635.1,-627.797 1681.15,-627.797 1716.09,-627.797"/>
<polygon fill="#333333" stroke="#333333" points="1716.16,-629.547 1721.16,-627.797 1716.16,-626.047 1716.16,-629.547"/>
</g>
<!-- transition_da4b9237bacccdf19c0760cab7aec4a8359010b0&#45;&gt;place_9804773f9a8846d1ea1d0cde5eb01d893b382682 -->
<g id="edge6" class="edge"><title>transition_da4b9237bacccdf19c0760cab7aec4a8359010b0&#45;&gt;place_9804773f9a8846d1ea1d0cde5eb01d893b382682</title>
<path fill="none" stroke="#333333" d="M2034.72,-550.677C2056.01,-528.253 2079.33,-503.7 2100.69,-481.197"/>
<polygon fill="#333333" stroke="#333333" points="2102.21,-482.144 2104.38,-477.313 2099.67,-479.734 2102.21,-482.144"/>
</g>
<!-- transition_77de68daecd823babbb58edb1c8e14d7106e83bb&#45;&gt;place_a341b9d56a2c3bfd653b2d5b01bddd97b7946ca1 -->
<g id="edge8" class="edge"><title>transition_77de68daecd823babbb58edb1c8e14d7106e83bb&#45;&gt;place_a341b9d56a2c3bfd653b2d5b01bddd97b7946ca1</title>
<path fill="none" stroke="#333333" d="M2385.16,-302.202C2400.95,-288.497 2420.19,-271.793 2438.88,-255.568"/>
<polygon fill="#333333" stroke="#333333" points="2440.48,-256.496 2443.11,-251.897 2438.19,-253.853 2440.48,-256.496"/>
</g>
<!-- transition_1b6453892473a467d07372d45eb05abc2031647a&#45;&gt;place_c72633f673ef54769f56bbaf78d2baf4858bf7c3 -->
<g id="edge10" class="edge"><title>transition_1b6453892473a467d07372d45eb05abc2031647a&#45;&gt;place_c72633f673ef54769f56bbaf78d2baf4858bf7c3</title>
<path fill="none" stroke="#333333" d="M2641.7,-65.3462C2569.31,-37.5591 2453.88,-0.796803 2349.91,-0.796803 463.723,-0.796803 463.723,-0.796803 463.723,-0.796803 297.292,-0.796803 212.233,11.952 108,-117.797 74.4747,-159.529 51.2785,-314.935 41.7917,-389.872"/>
<polygon fill="#333333" stroke="#333333" points="40.0187,-389.947 41.1324,-395.126 43.4915,-390.383 40.0187,-389.947"/>
</g>
<!-- transition_ac3478d69a3c81fa62e60f5c3696165a4e5e6ac4&#45;&gt;place_9031bdf59fef50c79366e1e807bcd3165f1b86da -->
<g id="edge12" class="edge"><title>transition_ac3478d69a3c81fa62e60f5c3696165a4e5e6ac4&#45;&gt;place_9031bdf59fef50c79366e1e807bcd3165f1b86da</title>
<path fill="none" stroke="#333333" d="M250.679,-704.662C293.163,-706.084 351.851,-708.05 396.874,-709.558"/>
<polygon fill="#333333" stroke="#333333" points="396.961,-711.312 402.017,-709.73 397.078,-707.814 396.961,-711.312"/>
</g>
<!-- transition_c1dfd96eea8cc2b62785275bca38ac261256e278&#45;&gt;place_e6f4dd32e509fdb03fd79f1ac358ad70ffed3131 -->
<g id="edge14" class="edge"><title>transition_c1dfd96eea8cc2b62785275bca38ac261256e278&#45;&gt;place_e6f4dd32e509fdb03fd79f1ac358ad70ffed3131</title>
<path fill="none" stroke="#333333" d="M721.499,-711.797C753.24,-711.797 800.611,-711.797 837.971,-711.797"/>
<polygon fill="#333333" stroke="#333333" points="838.407,-713.547 843.407,-711.797 838.407,-710.047 838.407,-713.547"/>
</g>
<!-- transition_902ba3cda1883801594b6e1b452790cc53948fda&#45;&gt;place_cfd92d62c5a0f95de1ff12861b9eefedca756f7b -->
<g id="edge16" class="edge"><title>transition_902ba3cda1883801594b6e1b452790cc53948fda&#45;&gt;place_cfd92d62c5a0f95de1ff12861b9eefedca756f7b</title>
<path fill="none" stroke="#333333" d="M1220.52,-877.797C1252.96,-877.797 1290.72,-877.797 1318.56,-877.797"/>
<polygon fill="#333333" stroke="#333333" points="1318.65,-879.547 1323.65,-877.797 1318.65,-876.047 1318.65,-879.547"/>
</g>
<!-- transition_fe5dbbcea5ce7e2988b8c69bcfdfde8904aabc1f&#45;&gt;place_4ab3919e3d5f33ebd977a1af7ba9fb5159a24b86 -->
<g id="edge18" class="edge"><title>transition_fe5dbbcea5ce7e2988b8c69bcfdfde8904aabc1f&#45;&gt;place_4ab3919e3d5f33ebd977a1af7ba9fb5159a24b86</title>
<path fill="none" stroke="#333333" d="M1636.34,-1043.8C1665.8,-1043.8 1699.33,-1043.8 1724.82,-1043.8"/>
<polygon fill="#333333" stroke="#333333" points="1725.13,-1045.55 1730.13,-1043.8 1725.13,-1042.05 1725.13,-1045.55"/>
</g>
<!-- transition_0ade7c2cf97f75d009975f4d720d1fa6c19f4897&#45;&gt;place_e6f4dd32e509fdb03fd79f1ac358ad70ffed3131 -->
<g id="edge20" class="edge"><title>transition_0ade7c2cf97f75d009975f4d720d1fa6c19f4897&#45;&gt;place_e6f4dd32e509fdb03fd79f1ac358ad70ffed3131</title>
<path fill="none" stroke="#333333" d="M1071.84,-718.104C1034,-718.842 989.505,-718.657 954.991,-717.549"/>
<polygon fill="#333333" stroke="#333333" points="955.029,-715.799 949.973,-717.379 954.91,-719.297 955.029,-715.799"/>
</g>
<!-- transition_b1d5781111d84f7b3fe45a0852e59758cd7a87e5&#45;&gt;place_cfd92d62c5a0f95de1ff12861b9eefedca756f7b -->
<g id="edge22" class="edge"><title>transition_b1d5781111d84f7b3fe45a0852e59758cd7a87e5&#45;&gt;place_cfd92d62c5a0f95de1ff12861b9eefedca756f7b</title>
<path fill="none" stroke="#333333" d="M1487.89,-884.379C1458.15,-884.799 1425.57,-884.431 1400.83,-883.273"/>
<polygon fill="#333333" stroke="#333333" points="1400.75,-881.517 1395.67,-883.014 1400.58,-885.013 1400.75,-881.517"/>
</g>
<!-- transition_17ba0791499db908433b80f37c5fbc89b870084b&#45;&gt;place_e6055c5a6ee8feda91cdd5be510d21cec274b4c8 -->
<g id="edge24" class="edge"><title>transition_17ba0791499db908433b80f37c5fbc89b870084b&#45;&gt;place_e6055c5a6ee8feda91cdd5be510d21cec274b4c8</title>
<path fill="none" stroke="#333333" d="M237.284,-577.741C284.297,-578.791 360.289,-580.487 411.11,-581.622"/>
<polygon fill="#333333" stroke="#333333" points="411.217,-583.375 416.255,-581.737 411.295,-579.876 411.217,-583.375"/>
</g>
<!-- transition_7b52009b64fd0a2a49e6d8a939753077792b0554&#45;&gt;place_ead9028928ebb77be9947a639f024bb8b67c643a -->
<g id="edge26" class="edge"><title>transition_7b52009b64fd0a2a49e6d8a939753077792b0554&#45;&gt;place_ead9028928ebb77be9947a639f024bb8b67c643a</title>
<path fill="none" stroke="#333333" d="M721.499,-576.29C757.605,-574.739 813.934,-572.318 852.748,-570.65"/>
<polygon fill="#333333" stroke="#333333" points="852.947,-572.393 857.867,-570.43 852.797,-568.896 852.947,-572.393"/>
</g>
<!-- transition_bd307a3ec329e10a2cff8fb87480823da114f8f4&#45;&gt;place_cd5d07c90b5c8a0724fc18d8b9c909271052f2b5 -->
<g id="edge28" class="edge"><title>transition_bd307a3ec329e10a2cff8fb87480823da114f8f4&#45;&gt;place_cd5d07c90b5c8a0724fc18d8b9c909271052f2b5</title>
<path fill="none" stroke="#333333" d="M1231.54,-520.679C1261.22,-518.373 1293.75,-515.846 1318.48,-513.924"/>
<polygon fill="#333333" stroke="#333333" points="1318.79,-515.656 1323.64,-513.524 1318.52,-512.166 1318.79,-515.656"/>
</g>
<!-- transition_fa35e192121eabf3dabf9f5ea6abdbcbc107ac3b&#45;&gt;place_9804773f9a8846d1ea1d0cde5eb01d893b382682 -->
<g id="edge30" class="edge"><title>transition_fa35e192121eabf3dabf9f5ea6abdbcbc107ac3b&#45;&gt;place_9804773f9a8846d1ea1d0cde5eb01d893b382682</title>
<path fill="none" stroke="#333333" d="M2009.97,-465.068C2029.2,-457.89 2052.18,-449.318 2074.76,-440.892"/>
<polygon fill="#333333" stroke="#333333" points="2075.5,-442.484 2079.57,-439.097 2074.28,-439.205 2075.5,-442.484"/>
</g>
<!-- transition_f1abd670358e036c31296e66b3b66c382ac00812&#45;&gt;place_a6d4df81ef896e3dae9187ed1a718a5abde20bcf -->
<g id="edge32" class="edge"><title>transition_f1abd670358e036c31296e66b3b66c382ac00812&#45;&gt;place_a6d4df81ef896e3dae9187ed1a718a5abde20bcf</title>
<path fill="none" stroke="#333333" d="M274.172,-430.797C305.18,-430.797 340.934,-430.797 372.976,-430.797"/>
<polygon fill="#333333" stroke="#333333" points="373.085,-432.547 378.085,-430.797 373.085,-429.047 373.085,-432.547"/>
</g>
<!-- transition_1574bddb75c78a6fd2251d61e2993b5146201319&#45;&gt;place_dc5c141b4b017ab2c3c93372cd73211e591b3dea -->
<g id="edge34" class="edge"><title>transition_1574bddb75c78a6fd2251d61e2993b5146201319&#45;&gt;place_dc5c141b4b017ab2c3c93372cd73211e591b3dea</title>
<path fill="none" stroke="#333333" d="M721.499,-429.629C746.92,-429.508 782.367,-429.339 814.668,-429.185"/>
<polygon fill="#333333" stroke="#333333" points="814.831,-430.934 819.822,-429.16 814.814,-427.434 814.831,-430.934"/>
</g>
<!-- transition_0716d9708d321ffb6a00818614779e779925365c&#45;&gt;place_9804773f9a8846d1ea1d0cde5eb01d893b382682 -->
<g id="edge36" class="edge"><title>transition_0716d9708d321ffb6a00818614779e779925365c&#45;&gt;place_9804773f9a8846d1ea1d0cde5eb01d893b382682</title>
<path fill="none" stroke="#333333" d="M1846.24,-403.797C1909.42,-403.797 1998.62,-403.797 2068.05,-403.797"/>
<polygon fill="#333333" stroke="#333333" points="2068.43,-405.547 2073.43,-403.797 2068.43,-402.047 2068.43,-405.547"/>
</g>
<!-- transition_9e6a55b6b4563e652a23be9d623ca5055c356940&#45;&gt;place_664643489a68e9127ca5f29045b98aea46b3fffd -->
<g id="edge38" class="edge"><title>transition_9e6a55b6b4563e652a23be9d623ca5055c356940&#45;&gt;place_664643489a68e9127ca5f29045b98aea46b3fffd</title>
<path fill="none" stroke="#333333" d="M280.025,-201.723C290.293,-200.385 301.007,-198.99 311.876,-197.574"/>
<polygon fill="#333333" stroke="#333333" points="312.147,-199.304 316.879,-196.923 311.695,-195.833 312.147,-199.304"/>
</g>
<!-- transition_b3f0c7f6bb763af1be91d9e74eabfeb199dc1f1f&#45;&gt;place_37caab4993715f768067bde3a516958dad5b68c4 -->
<g id="edge40" class="edge"><title>transition_b3f0c7f6bb763af1be91d9e74eabfeb199dc1f1f&#45;&gt;place_37caab4993715f768067bde3a516958dad5b68c4</title>
<path fill="none" stroke="#333333" d="M721.499,-182.466C730.587,-182.64 740.956,-182.838 752.004,-183.049"/>
<polygon fill="#333333" stroke="#333333" points="752.094,-184.801 757.126,-183.147 752.161,-181.302 752.094,-184.801"/>
</g>
<!-- transition_91032ad7bbcb6cf72875e8e8207dcfba80173f7c&#45;&gt;place_603ac2dac5e51a400b34e54cd8c3863177d9c01b -->
<g id="edge42" class="edge"><title>transition_91032ad7bbcb6cf72875e8e8207dcfba80173f7c&#45;&gt;place_603ac2dac5e51a400b34e54cd8c3863177d9c01b</title>
<path fill="none" stroke="#333333" d="M1231.54,-207.238C1241.59,-207.677 1251.96,-208.131 1262.26,-208.58"/>
<polygon fill="#333333" stroke="#333333" points="1262.23,-210.331 1267.3,-208.801 1262.38,-206.834 1262.23,-210.331"/>
</g>
<!-- transition_472b07b9fcf2c2451e8781e944bf5f77cd8457c8&#45;&gt;place_1d873f095061223ff3e5aa2923f8eed67b6a60f3 -->
<g id="edge44" class="edge"><title>transition_472b07b9fcf2c2451e8781e944bf5f77cd8457c8&#45;&gt;place_1d873f095061223ff3e5aa2923f8eed67b6a60f3</title>
<path fill="none" stroke="#333333" d="M1603.83,-218.333C1624.54,-218.649 1651.74,-219.064 1677.89,-219.463"/>
<polygon fill="#333333" stroke="#333333" points="1678.08,-221.216 1683.11,-219.543 1678.14,-217.717 1678.08,-221.216"/>
</g>
<!-- transition_12c6fc06c99a462375eeb3f43dfd832b08ca9e17&#45;&gt;place_9804773f9a8846d1ea1d0cde5eb01d893b382682 -->
<g id="edge46" class="edge"><title>transition_12c6fc06c99a462375eeb3f43dfd832b08ca9e17&#45;&gt;place_9804773f9a8846d1ea1d0cde5eb01d893b382682</title>
<path fill="none" stroke="#333333" d="M2037.69,-310.971C2053.34,-321.612 2069.96,-332.916 2086.02,-343.84"/>
<polygon fill="#333333" stroke="#333333" points="2085.42,-345.545 2090.54,-346.91 2087.39,-342.651 2085.42,-345.545"/>
</g>
</g>
</svg>
