<?xml version="1.0" encoding="UTF-8" standalone="no"?>
<!DOCTYPE svg PUBLIC "-//W3C//DTD SVG 1.1//EN"
 "http://www.w3.org/Graphics/SVG/1.1/DTD/svg11.dtd">
<!-- Generated by graphviz version 2.38.0 (20140413.2041)
 -->
<!-- Title: workflow Pages: 1 -->
<svg width="2834pt" height="1170pt"
 viewBox="0.00 0.00 2833.50 1170.01" xmlns="http://www.w3.org/2000/svg" xmlns:xlink="http://www.w3.org/1999/xlink">
<g id="graph0" class="graph" transform="scale(1 1) rotate(0) translate(4 1166.01)">
<title>workflow</title>
<polygon fill="white" stroke="none" points="-4,4 -4,-1166.01 2829.5,-1166.01 2829.5,4 -4,4"/>
<!-- place_c72633f673ef54769f56bbaf78d2baf4858bf7c3 -->
<g id="node1" class="node"><title>place_c72633f673ef54769f56bbaf78d2baf4858bf7c3</title>
<ellipse fill="lightblue" stroke="#333333" cx="36" cy="-572.013" rx="36" ry="36"/>
<text text-anchor="middle" x="36" y="-569.813" font-family="Arial" font-size="9.00">ACTIVE</text>
</g>
<!-- transition_902ba3cda1883801594b6e1b452790cc53948fda -->
<g id="node29" class="node"><title>transition_902ba3cda1883801594b6e1b452790cc53948fda</title>
<polygon fill="none" stroke="#333333" points="278,-933.013 110,-933.013 110,-765.013 278,-765.013 278,-933.013"/>
<text text-anchor="middle" x="194" y="-846.813" font-family="Arial" font-size="9.00">IMPORT_TRANSACTION_REMOVED</text>
</g>
<!-- place_c72633f673ef54769f56bbaf78d2baf4858bf7c3&#45;&gt;transition_902ba3cda1883801594b6e1b452790cc53948fda -->
<g id="edge15" class="edge"><title>place_c72633f673ef54769f56bbaf78d2baf4858bf7c3&#45;&gt;transition_902ba3cda1883801594b6e1b452790cc53948fda</title>
<path fill="none" stroke="#333333" d="M64.2646,-594.979C67.1426,-599.154 69.8114,-603.575 72,-608.013 100.033,-664.863 77.8801,-690.241 108,-746.013 110.642,-750.905 113.59,-755.746 116.758,-760.508"/>
<polygon fill="#333333" stroke="#333333" points="115.463,-761.716 119.727,-764.859 118.354,-759.743 115.463,-761.716"/>
</g>
<!-- transition_fe5dbbcea5ce7e2988b8c69bcfdfde8904aabc1f -->
<g id="node30" class="node"><title>transition_fe5dbbcea5ce7e2988b8c69bcfdfde8904aabc1f</title>
<polygon fill="none" stroke="#333333" points="250.5,-746.513 137.5,-746.513 137.5,-633.513 250.5,-633.513 250.5,-746.513"/>
<text text-anchor="middle" x="194" y="-687.813" font-family="Arial" font-size="9.00">INITIATE_REVOCATION</text>
</g>
<!-- place_c72633f673ef54769f56bbaf78d2baf4858bf7c3&#45;&gt;transition_fe5dbbcea5ce7e2988b8c69bcfdfde8904aabc1f -->
<g id="edge17" class="edge"><title>place_c72633f673ef54769f56bbaf78d2baf4858bf7c3&#45;&gt;transition_fe5dbbcea5ce7e2988b8c69bcfdfde8904aabc1f</title>
<path fill="none" stroke="#333333" d="M65.2504,-593.382C84.2576,-607.76 110.029,-627.253 133.447,-644.967"/>
<polygon fill="#333333" stroke="#333333" points="132.443,-646.402 137.486,-648.022 134.554,-643.61 132.443,-646.402"/>
</g>
<!-- transition_fa35e192121eabf3dabf9f5ea6abdbcbc107ac3b -->
<g id="node36" class="node"><title>transition_fa35e192121eabf3dabf9f5ea6abdbcbc107ac3b</title>
<polygon fill="none" stroke="#333333" points="237,-615.013 151,-615.013 151,-529.013 237,-529.013 237,-615.013"/>
<text text-anchor="middle" x="194" y="-569.813" font-family="Arial" font-size="9.00">INITIATE_PAUSE</text>
</g>
<!-- place_c72633f673ef54769f56bbaf78d2baf4858bf7c3&#45;&gt;transition_fa35e192121eabf3dabf9f5ea6abdbcbc107ac3b -->
<g id="edge29" class="edge"><title>place_c72633f673ef54769f56bbaf78d2baf4858bf7c3&#45;&gt;transition_fa35e192121eabf3dabf9f5ea6abdbcbc107ac3b</title>
<path fill="none" stroke="#333333" d="M72.0094,-572.013C93.7235,-572.013 121.902,-572.013 145.601,-572.013"/>
<polygon fill="#333333" stroke="#333333" points="145.897,-573.763 150.897,-572.013 145.897,-570.263 145.897,-573.763"/>
</g>
<!-- transition_9e6a55b6b4563e652a23be9d623ca5055c356940 -->
<g id="node40" class="node"><title>transition_9e6a55b6b4563e652a23be9d623ca5055c356940</title>
<polygon fill="none" stroke="#333333" points="274,-511.013 114,-511.013 114,-351.013 274,-351.013 274,-511.013"/>
<text text-anchor="middle" x="194" y="-428.813" font-family="Arial" font-size="9.00">INITIATE_TRANSACTION_UPDATE</text>
</g>
<!-- place_c72633f673ef54769f56bbaf78d2baf4858bf7c3&#45;&gt;transition_9e6a55b6b4563e652a23be9d623ca5055c356940 -->
<g id="edge37" class="edge"><title>place_c72633f673ef54769f56bbaf78d2baf4858bf7c3&#45;&gt;transition_9e6a55b6b4563e652a23be9d623ca5055c356940</title>
<path fill="none" stroke="#333333" d="M63.4633,-548.095C76.5555,-536.261 93.1542,-521.259 110.063,-505.975"/>
<polygon fill="#333333" stroke="#333333" points="111.368,-507.155 113.904,-502.504 109.021,-504.559 111.368,-507.155"/>
</g>
<!-- transition_472b07b9fcf2c2451e8781e944bf5f77cd8457c8 -->
<g id="node43" class="node"><title>transition_472b07b9fcf2c2451e8781e944bf5f77cd8457c8</title>
<polygon fill="none" stroke="#333333" points="280,-299.013 108,-299.013 108,-127.013 280,-127.013 280,-299.013"/>
<text text-anchor="middle" x="194" y="-210.813" font-family="Arial" font-size="9.00">INITIATE_PAYER_NUMBER_CHANGE</text>
</g>
<!-- place_c72633f673ef54769f56bbaf78d2baf4858bf7c3&#45;&gt;transition_472b07b9fcf2c2451e8781e944bf5f77cd8457c8 -->
<g id="edge43" class="edge"><title>place_c72633f673ef54769f56bbaf78d2baf4858bf7c3&#45;&gt;transition_472b07b9fcf2c2451e8781e944bf5f77cd8457c8</title>
<path fill="none" stroke="#333333" d="M44.5416,-536.974C55.1913,-490.868 76.8721,-407.959 108,-342.013 114.016,-329.268 121.143,-316.321 128.673,-303.79"/>
<polygon fill="#333333" stroke="#333333" points="130.364,-304.376 131.463,-299.194 127.373,-302.559 130.364,-304.376"/>
</g>
<!-- place_e6055c5a6ee8feda91cdd5be510d21cec274b4c8 -->
<g id="node2" class="node"><title>place_e6055c5a6ee8feda91cdd5be510d21cec274b4c8</title>
<ellipse fill="none" stroke="#333333" cx="464.723" cy="-583.013" rx="48.05" ry="48.05"/>
<text text-anchor="middle" x="464.723" y="-580.813" font-family="Arial" font-size="9.00">AWAITING_PAUSE</text>
</g>
<!-- transition_f1abd670358e036c31296e66b3b66c382ac00812 -->
<g id="node37" class="node"><title>transition_f1abd670358e036c31296e66b3b66c382ac00812</title>
<polygon fill="none" stroke="#333333" points="721.445,-608.013 649.445,-608.013 649.445,-536.013 721.445,-536.013 721.445,-608.013"/>
<text text-anchor="middle" x="685.445" y="-569.813" font-family="Arial" font-size="9.00">EXPORT</text>
</g>
<!-- place_e6055c5a6ee8feda91cdd5be510d21cec274b4c8&#45;&gt;transition_f1abd670358e036c31296e66b3b66c382ac00812 -->
<g id="edge31" class="edge"><title>place_e6055c5a6ee8feda91cdd5be510d21cec274b4c8&#45;&gt;transition_f1abd670358e036c31296e66b3b66c382ac00812</title>
<path fill="none" stroke="#333333" d="M512.913,-580.64C551.934,-578.678 606.768,-575.92 643.85,-574.055"/>
<polygon fill="#333333" stroke="#333333" points="644.283,-575.785 649.189,-573.786 644.107,-572.29 644.283,-575.785"/>
</g>
<!-- place_603ac2dac5e51a400b34e54cd8c3863177d9c01b -->
<g id="node3" class="node"><title>place_603ac2dac5e51a400b34e54cd8c3863177d9c01b</title>
<ellipse fill="none" stroke="#333333" cx="1368.74" cy="-178.013" rx="92.3705" ry="92.3705"/>
<text text-anchor="middle" x="1368.74" y="-175.813" font-family="Arial" font-size="9.00">AWAITING_PAYER_NUMBER_CHANGE</text>
</g>
<!-- transition_4d134bc072212ace2df385dae143139da74ec0ef -->
<g id="node46" class="node"><title>transition_4d134bc072212ace2df385dae143139da74ec0ef</title>
<polygon fill="none" stroke="#333333" points="1617.17,-214.013 1545.17,-214.013 1545.17,-142.013 1617.17,-142.013 1617.17,-214.013"/>
<text text-anchor="middle" x="1581.17" y="-175.813" font-family="Arial" font-size="9.00">EXPORT</text>
</g>
<!-- place_603ac2dac5e51a400b34e54cd8c3863177d9c01b&#45;&gt;transition_4d134bc072212ace2df385dae143139da74ec0ef -->
<g id="edge49" class="edge"><title>place_603ac2dac5e51a400b34e54cd8c3863177d9c01b&#45;&gt;transition_4d134bc072212ace2df385dae143139da74ec0ef</title>
<path fill="none" stroke="#333333" d="M1461.42,-178.013C1488.8,-178.013 1517.42,-178.013 1539.7,-178.013"/>
<polygon fill="#333333" stroke="#333333" points="1539.94,-179.763 1544.94,-178.013 1539.94,-176.263 1539.94,-179.763"/>
</g>
<!-- place_664643489a68e9127ca5f29045b98aea46b3fffd -->
<g id="node4" class="node"><title>place_664643489a68e9127ca5f29045b98aea46b3fffd</title>
<ellipse fill="none" stroke="#333333" cx="464.723" cy="-178.013" rx="148.945" ry="148.945"/>
<text text-anchor="middle" x="464.723" y="-175.813" font-family="Arial" font-size="9.00">AWAITING_PAYER_NUMBER_CHANGE_TRANSACTION_UPDATE</text>
</g>
<!-- transition_12c6fc06c99a462375eeb3f43dfd832b08ca9e17 -->
<g id="node44" class="node"><title>transition_12c6fc06c99a462375eeb3f43dfd832b08ca9e17</title>
<polygon fill="none" stroke="#333333" points="721.445,-214.013 649.445,-214.013 649.445,-142.013 721.445,-142.013 721.445,-214.013"/>
<text text-anchor="middle" x="685.445" y="-175.813" font-family="Arial" font-size="9.00">EXPORT</text>
</g>
<!-- place_664643489a68e9127ca5f29045b98aea46b3fffd&#45;&gt;transition_12c6fc06c99a462375eeb3f43dfd832b08ca9e17 -->
<g id="edge45" class="edge"><title>place_664643489a68e9127ca5f29045b98aea46b3fffd&#45;&gt;transition_12c6fc06c99a462375eeb3f43dfd832b08ca9e17</title>
<path fill="none" stroke="#333333" d="M613.734,-178.013C624.701,-178.013 635.073,-178.013 644.323,-178.013"/>
<polygon fill="#333333" stroke="#333333" points="644.342,-179.763 649.342,-178.013 644.342,-176.263 644.342,-179.763"/>
</g>
<!-- place_9031bdf59fef50c79366e1e807bcd3165f1b86da -->
<g id="node5" class="node"><title>place_9031bdf59fef50c79366e1e807bcd3165f1b86da</title>
<ellipse fill="none" stroke="#333333" cx="464.723" cy="-807.013" rx="62.4683" ry="62.4683"/>
<text text-anchor="middle" x="464.723" y="-804.813" font-family="Arial" font-size="9.00">AWAITING_REVOCATION</text>
</g>
<!-- transition_0ade7c2cf97f75d009975f4d720d1fa6c19f4897 -->
<g id="node31" class="node"><title>transition_0ade7c2cf97f75d009975f4d720d1fa6c19f4897</title>
<polygon fill="none" stroke="#333333" points="721.445,-891.013 649.445,-891.013 649.445,-819.013 721.445,-819.013 721.445,-891.013"/>
<text text-anchor="middle" x="685.445" y="-852.813" font-family="Arial" font-size="9.00">EXPORT</text>
</g>
<!-- place_9031bdf59fef50c79366e1e807bcd3165f1b86da&#45;&gt;transition_0ade7c2cf97f75d009975f4d720d1fa6c19f4897 -->
<g id="edge19" class="edge"><title>place_9031bdf59fef50c79366e1e807bcd3165f1b86da&#45;&gt;transition_0ade7c2cf97f75d009975f4d720d1fa6c19f4897</title>
<path fill="none" stroke="#333333" d="M526.068,-820.257C563.636,-828.501 610.934,-838.881 644.02,-846.142"/>
<polygon fill="#333333" stroke="#333333" points="643.945,-847.917 649.204,-847.279 644.695,-844.498 643.945,-847.917"/>
</g>
<!-- place_9804773f9a8846d1ea1d0cde5eb01d893b382682 -->
<g id="node6" class="node"><title>place_9804773f9a8846d1ea1d0cde5eb01d893b382682</title>
<ellipse fill="none" stroke="#333333" cx="2203.9" cy="-363.013" rx="101.961" ry="101.961"/>
<text text-anchor="middle" x="2203.9" y="-360.813" font-family="Arial" font-size="9.00">AWAITING_TRANSACTION_REGISTRATION</text>
</g>
<!-- transition_ac3478d69a3c81fa62e60f5c3696165a4e5e6ac4 -->
<g id="node27" class="node"><title>transition_ac3478d69a3c81fa62e60f5c3696165a4e5e6ac4</title>
<polygon fill="none" stroke="#333333" points="2413.63,-338.013 2341.63,-338.013 2341.63,-266.013 2413.63,-266.013 2413.63,-338.013"/>
<text text-anchor="middle" x="2377.63" y="-299.813" font-family="Arial" font-size="9.00">EXPORT</text>
</g>
<!-- place_9804773f9a8846d1ea1d0cde5eb01d893b382682&#45;&gt;transition_ac3478d69a3c81fa62e60f5c3696165a4e5e6ac4 -->
<g id="edge11" class="edge"><title>place_9804773f9a8846d1ea1d0cde5eb01d893b382682&#45;&gt;transition_ac3478d69a3c81fa62e60f5c3696165a4e5e6ac4</title>
<path fill="none" stroke="#333333" d="M2300.06,-329.213C2312.81,-324.684 2325.28,-320.253 2336.34,-316.326"/>
<polygon fill="#333333" stroke="#333333" points="2337.19,-317.881 2341.31,-314.559 2336.02,-314.583 2337.19,-317.881"/>
</g>
<!-- place_a6d4df81ef896e3dae9187ed1a718a5abde20bcf -->
<g id="node7" class="node"><title>place_a6d4df81ef896e3dae9187ed1a718a5abde20bcf</title>
<ellipse fill="none" stroke="#333333" cx="464.723" cy="-431.013" rx="86.4775" ry="86.4775"/>
<text text-anchor="middle" x="464.723" y="-428.813" font-family="Arial" font-size="9.00">AWAITING_TRANSACTION_UPDATE</text>
</g>
<!-- transition_b3f0c7f6bb763af1be91d9e74eabfeb199dc1f1f -->
<g id="node41" class="node"><title>transition_b3f0c7f6bb763af1be91d9e74eabfeb199dc1f1f</title>
<polygon fill="none" stroke="#333333" points="721.445,-462.013 649.445,-462.013 649.445,-390.013 721.445,-390.013 721.445,-462.013"/>
<text text-anchor="middle" x="685.445" y="-423.813" font-family="Arial" font-size="9.00">EXPORT</text>
</g>
<!-- place_a6d4df81ef896e3dae9187ed1a718a5abde20bcf&#45;&gt;transition_b3f0c7f6bb763af1be91d9e74eabfeb199dc1f1f -->
<g id="edge39" class="edge"><title>place_a6d4df81ef896e3dae9187ed1a718a5abde20bcf&#45;&gt;transition_b3f0c7f6bb763af1be91d9e74eabfeb199dc1f1f</title>
<path fill="none" stroke="#333333" d="M551.226,-429.059C583.239,-428.327 618.119,-427.53 644.156,-426.934"/>
<polygon fill="#333333" stroke="#333333" points="644.284,-428.682 649.242,-426.818 644.204,-425.183 644.284,-428.682"/>
</g>
<!-- place_0b99cebe565822c64ac5d84aecb00fe40e59cbd3 -->
<g id="node8" class="node"><title>place_0b99cebe565822c64ac5d84aecb00fe40e59cbd3</title>
<ellipse fill="none" stroke="#333333" cx="36" cy="-662.013" rx="36" ry="36"/>
<text text-anchor="middle" x="36" y="-659.813" font-family="Arial" font-size="9.00">ERROR</text>
</g>
<!-- place_3388f49bc4e810669b0ff5de095fa852c1e9ea7e -->
<g id="node9" class="node"><title>place_3388f49bc4e810669b0ff5de095fa852c1e9ea7e</title>
<ellipse fill="none" stroke="#333333" cx="896.873" cy="-722.013" rx="54.4444" ry="54.4444"/>
<text text-anchor="middle" x="896.873" y="-719.813" font-family="Arial" font-size="9.00">MANDATE_CREATED</text>
</g>
<!-- transition_b6589fc6ab0dc82cf12099d1c2d40ab994e8410c -->
<g id="node22" class="node"><title>transition_b6589fc6ab0dc82cf12099d1c2d40ab994e8410c</title>
<polygon fill="none" stroke="#333333" points="1198.3,-801.013 1114.3,-801.013 1114.3,-717.013 1198.3,-717.013 1198.3,-801.013"/>
<text text-anchor="middle" x="1156.3" y="-756.813" font-family="Arial" font-size="9.00">NEW_MANDATE</text>
</g>
<!-- place_3388f49bc4e810669b0ff5de095fa852c1e9ea7e&#45;&gt;transition_b6589fc6ab0dc82cf12099d1c2d40ab994e8410c -->
<g id="edge1" class="edge"><title>place_3388f49bc4e810669b0ff5de095fa852c1e9ea7e&#45;&gt;transition_b6589fc6ab0dc82cf12099d1c2d40ab994e8410c</title>
<path fill="none" stroke="#333333" d="M950.588,-729.59C997.187,-736.288 1064.49,-745.961 1109.04,-752.364"/>
<polygon fill="#333333" stroke="#333333" points="1108.89,-754.11 1114.09,-753.09 1109.39,-750.646 1108.89,-754.11"/>
</g>
<!-- transition_356a192b7913b04c54574d18c28d46e6395428ab -->
<g id="node23" class="node"><title>transition_356a192b7913b04c54574d18c28d46e6395428ab</title>
<polygon fill="none" stroke="#333333" points="1217.3,-699.013 1095.3,-699.013 1095.3,-577.013 1217.3,-577.013 1217.3,-699.013"/>
<text text-anchor="middle" x="1156.3" y="-635.813" font-family="Arial" font-size="9.00">NEW_DIGITAL_MANDATE</text>
</g>
<!-- place_3388f49bc4e810669b0ff5de095fa852c1e9ea7e&#45;&gt;transition_356a192b7913b04c54574d18c28d46e6395428ab -->
<g id="edge3" class="edge"><title>place_3388f49bc4e810669b0ff5de095fa852c1e9ea7e&#45;&gt;transition_356a192b7913b04c54574d18c28d46e6395428ab</title>
<path fill="none" stroke="#333333" d="M948.732,-705.418C989.225,-692.205 1046.18,-673.618 1090.04,-659.309"/>
<polygon fill="#333333" stroke="#333333" points="1090.84,-660.888 1095.05,-657.674 1089.75,-657.561 1090.84,-660.888"/>
</g>
<!-- place_d2b9cb7f8fd77caeaa93cb6ecf9a2c6c01a8aa39 -->
<g id="node10" class="node"><title>place_d2b9cb7f8fd77caeaa93cb6ecf9a2c6c01a8aa39</title>
<ellipse fill="none" stroke="#333333" cx="1785.17" cy="-635.013" rx="44.8533" ry="44.8533"/>
<text text-anchor="middle" x="1785.17" y="-632.813" font-family="Arial" font-size="9.00">MANDATE_SENT</text>
</g>
<!-- transition_1b6453892473a467d07372d45eb05abc2031647a -->
<g id="node26" class="node"><title>transition_1b6453892473a467d07372d45eb05abc2031647a</title>
<polygon fill="none" stroke="#333333" points="2066.17,-699.513 1905.17,-699.513 1905.17,-538.513 2066.17,-538.513 2066.17,-699.513"/>
<text text-anchor="middle" x="1985.67" y="-616.813" font-family="Arial" font-size="9.00">IMPORT_MANDATE_REGISTERED</text>
</g>
<!-- place_d2b9cb7f8fd77caeaa93cb6ecf9a2c6c01a8aa39&#45;&gt;transition_1b6453892473a467d07372d45eb05abc2031647a -->
<g id="edge9" class="edge"><title>place_d2b9cb7f8fd77caeaa93cb6ecf9a2c6c01a8aa39&#45;&gt;transition_1b6453892473a467d07372d45eb05abc2031647a</title>
<path fill="none" stroke="#333333" d="M1830.22,-631.462C1850.7,-629.812 1875.77,-627.792 1899.7,-625.862"/>
<polygon fill="#333333" stroke="#333333" points="1899.95,-627.598 1904.79,-625.452 1899.67,-624.109 1899.95,-627.598"/>
</g>
<!-- place_e1b6adc61c1e09203349001f5eeaf8573afcf571 -->
<g id="node11" class="node"><title>place_e1b6adc61c1e09203349001f5eeaf8573afcf571</title>
<ellipse fill="none" stroke="#333333" cx="1368.74" cy="-635.013" rx="63.0011" ry="63.0011"/>
<text text-anchor="middle" x="1368.74" y="-632.813" font-family="Arial" font-size="9.00">NEW_DIGITAL_MANDATE</text>
</g>
<!-- transition_77de68daecd823babbb58edb1c8e14d7106e83bb -->
<g id="node25" class="node"><title>transition_77de68daecd823babbb58edb1c8e14d7106e83bb</title>
<polygon fill="none" stroke="#333333" points="1617.17,-671.013 1545.17,-671.013 1545.17,-599.013 1617.17,-599.013 1617.17,-671.013"/>
<text text-anchor="middle" x="1581.17" y="-632.813" font-family="Arial" font-size="9.00">EXPORT</text>
</g>
<!-- place_e1b6adc61c1e09203349001f5eeaf8573afcf571&#45;&gt;transition_77de68daecd823babbb58edb1c8e14d7106e83bb -->
<g id="edge7" class="edge"><title>place_e1b6adc61c1e09203349001f5eeaf8573afcf571&#45;&gt;transition_77de68daecd823babbb58edb1c8e14d7106e83bb</title>
<path fill="none" stroke="#333333" d="M1432.02,-635.013C1466.85,-635.013 1509.25,-635.013 1539.76,-635.013"/>
<polygon fill="#333333" stroke="#333333" points="1539.93,-636.763 1544.93,-635.013 1539.93,-633.263 1539.93,-636.763"/>
</g>
<!-- place_818af3c4262f96a99ab981900e5a0e1c415b44df -->
<g id="node12" class="node"><title>place_818af3c4262f96a99ab981900e5a0e1c415b44df</title>
<ellipse fill="none" stroke="#333333" cx="1368.74" cy="-759.013" rx="43.2552" ry="43.2552"/>
<text text-anchor="middle" x="1368.74" y="-756.813" font-family="Arial" font-size="9.00">NEW_MANDATE</text>
</g>
<!-- transition_da4b9237bacccdf19c0760cab7aec4a8359010b0 -->
<g id="node24" class="node"><title>transition_da4b9237bacccdf19c0760cab7aec4a8359010b0</title>
<polygon fill="none" stroke="#333333" points="1617.17,-778.013 1545.17,-778.013 1545.17,-706.013 1617.17,-706.013 1617.17,-778.013"/>
<text text-anchor="middle" x="1581.17" y="-739.813" font-family="Arial" font-size="9.00">EXPORT</text>
</g>
<!-- place_818af3c4262f96a99ab981900e5a0e1c415b44df&#45;&gt;transition_da4b9237bacccdf19c0760cab7aec4a8359010b0 -->
<g id="edge5" class="edge"><title>place_818af3c4262f96a99ab981900e5a0e1c415b44df&#45;&gt;transition_da4b9237bacccdf19c0760cab7aec4a8359010b0</title>
<path fill="none" stroke="#333333" d="M1412.07,-755.594C1449.24,-752.59 1502.97,-748.25 1539.61,-745.29"/>
<polygon fill="#333333" stroke="#333333" points="1540.04,-747.011 1544.89,-744.864 1539.76,-743.522 1540.04,-747.011"/>
</g>
<!-- place_ead9028928ebb77be9947a639f024bb8b67c643a -->
<g id="node13" class="node"><title>place_ead9028928ebb77be9947a639f024bb8b67c643a</title>
<ellipse fill="none" stroke="#333333" cx="896.873" cy="-563.013" rx="38.961" ry="38.961"/>
<text text-anchor="middle" x="896.873" y="-560.813" font-family="Arial" font-size="9.00">PAUSE_SENT</text>
</g>
<!-- transition_1574bddb75c78a6fd2251d61e2993b5146201319 -->
<g id="node38" class="node"><title>transition_1574bddb75c78a6fd2251d61e2993b5146201319</title>
<polygon fill="none" stroke="#333333" points="1240.3,-559.013 1072.3,-559.013 1072.3,-391.013 1240.3,-391.013 1240.3,-559.013"/>
<text text-anchor="middle" x="1156.3" y="-472.813" font-family="Arial" font-size="9.00">IMPORT_TRANSACTION_REMOVED</text>
</g>
<!-- place_ead9028928ebb77be9947a639f024bb8b67c643a&#45;&gt;transition_1574bddb75c78a6fd2251d61e2993b5146201319 -->
<g id="edge33" class="edge"><title>place_ead9028928ebb77be9947a639f024bb8b67c643a&#45;&gt;transition_1574bddb75c78a6fd2251d61e2993b5146201319</title>
<path fill="none" stroke="#333333" d="M933.667,-550.777C968.057,-539.021 1021.4,-520.787 1067.13,-505.153"/>
<polygon fill="#333333" stroke="#333333" points="1067.93,-506.729 1072.1,-503.455 1066.8,-503.417 1067.93,-506.729"/>
</g>
<!-- place_cd5d07c90b5c8a0724fc18d8b9c909271052f2b5 -->
<g id="node14" class="node"><title>place_cd5d07c90b5c8a0724fc18d8b9c909271052f2b5</title>
<ellipse fill="none" stroke="#333333" cx="1368.74" cy="-475.013" rx="36" ry="36"/>
<text text-anchor="middle" x="1368.74" y="-472.813" font-family="Arial" font-size="9.00">PAUSED</text>
</g>
<!-- transition_0716d9708d321ffb6a00818614779e779925365c -->
<g id="node39" class="node"><title>transition_0716d9708d321ffb6a00818614779e779925365c</title>
<polygon fill="none" stroke="#333333" points="2034.17,-505.513 1937.17,-505.513 1937.17,-408.513 2034.17,-408.513 2034.17,-505.513"/>
<text text-anchor="middle" x="1985.67" y="-454.813" font-family="Arial" font-size="9.00">INITIATE_RESTART</text>
</g>
<!-- place_cd5d07c90b5c8a0724fc18d8b9c909271052f2b5&#45;&gt;transition_0716d9708d321ffb6a00818614779e779925365c -->
<g id="edge35" class="edge"><title>place_cd5d07c90b5c8a0724fc18d8b9c909271052f2b5&#45;&gt;transition_0716d9708d321ffb6a00818614779e779925365c</title>
<path fill="none" stroke="#333333" d="M1405.01,-473.981C1507.98,-470.967 1808.67,-462.165 1931.48,-458.57"/>
<polygon fill="#333333" stroke="#333333" points="1931.9,-460.309 1936.84,-458.413 1931.79,-456.81 1931.9,-460.309"/>
</g>
<!-- place_1d873f095061223ff3e5aa2923f8eed67b6a60f3 -->
<g id="node15" class="node"><title>place_1d873f095061223ff3e5aa2923f8eed67b6a60f3</title>
<ellipse fill="none" stroke="#333333" cx="1785.17" cy="-178.013" rx="83.2803" ry="83.2803"/>
<text text-anchor="middle" x="1785.17" y="-175.813" font-family="Arial" font-size="9.00">PAYER_NUMBER_CHANGE_SENT</text>
</g>
<!-- transition_f6e1126cedebf23e1463aee73f9df08783640400 -->
<g id="node47" class="node"><title>transition_f6e1126cedebf23e1463aee73f9df08783640400</title>
<polygon fill="none" stroke="#333333" points="2066.17,-296.513 1905.17,-296.513 1905.17,-135.513 2066.17,-135.513 2066.17,-296.513"/>
<text text-anchor="middle" x="1985.67" y="-213.813" font-family="Arial" font-size="9.00">IMPORT_MANDATE_REGISTERED</text>
</g>
<!-- place_1d873f095061223ff3e5aa2923f8eed67b6a60f3&#45;&gt;transition_f6e1126cedebf23e1463aee73f9df08783640400 -->
<g id="edge51" class="edge"><title>place_1d873f095061223ff3e5aa2923f8eed67b6a60f3&#45;&gt;transition_f6e1126cedebf23e1463aee73f9df08783640400</title>
<path fill="none" stroke="#333333" d="M1866.91,-193.469C1877.8,-195.554 1889,-197.698 1899.95,-199.796"/>
<polygon fill="#333333" stroke="#333333" points="1899.73,-201.534 1904.97,-200.756 1900.39,-198.097 1899.73,-201.534"/>
</g>
<!-- place_37caab4993715f768067bde3a516958dad5b68c4 -->
<g id="node16" class="node"><title>place_37caab4993715f768067bde3a516958dad5b68c4</title>
<ellipse fill="none" stroke="#333333" cx="896.873" cy="-178.013" rx="139.355" ry="139.355"/>
<text text-anchor="middle" x="896.873" y="-175.813" font-family="Arial" font-size="9.00">PAYER_NUMBER_CHANGE_TRANSACTION_UPDATE_SENT</text>
</g>
<!-- transition_d435a6cdd786300dff204ee7c2ef942d3e9034e2 -->
<g id="node45" class="node"><title>transition_d435a6cdd786300dff204ee7c2ef942d3e9034e2</title>
<polygon fill="none" stroke="#333333" points="1240.3,-262.013 1072.3,-262.013 1072.3,-94.0134 1240.3,-94.0134 1240.3,-262.013"/>
<text text-anchor="middle" x="1156.3" y="-175.813" font-family="Arial" font-size="9.00">IMPORT_TRANSACTION_REMOVED</text>
</g>
<!-- place_37caab4993715f768067bde3a516958dad5b68c4&#45;&gt;transition_d435a6cdd786300dff204ee7c2ef942d3e9034e2 -->
<g id="edge47" class="edge"><title>place_37caab4993715f768067bde3a516958dad5b68c4&#45;&gt;transition_d435a6cdd786300dff204ee7c2ef942d3e9034e2</title>
<path fill="none" stroke="#333333" d="M1036.38,-178.013C1046.72,-178.013 1056.97,-178.013 1066.87,-178.013"/>
<polygon fill="#333333" stroke="#333333" points="1067.01,-179.763 1072.01,-178.013 1067.01,-176.263 1067.01,-179.763"/>
</g>
<!-- place_4ab3919e3d5f33ebd977a1af7ba9fb5159a24b86 -->
<g id="node17" class="node"><title>place_4ab3919e3d5f33ebd977a1af7ba9fb5159a24b86</title>
<ellipse fill="none" stroke="#333333" cx="1785.17" cy="-940.013" rx="36" ry="36"/>
<text text-anchor="middle" x="1785.17" y="-937.813" font-family="Arial" font-size="9.00">REMOVED</text>
</g>
<!-- place_e6f4dd32e509fdb03fd79f1ac358ad70ffed3131 -->
<g id="node18" class="node"><title>place_e6f4dd32e509fdb03fd79f1ac358ad70ffed3131</title>
<ellipse fill="none" stroke="#333333" cx="896.873" cy="-903.013" rx="53.3786" ry="53.3786"/>
<text text-anchor="middle" x="896.873" y="-900.813" font-family="Arial" font-size="9.00">REVOCATION_SENT</text>
</g>
<!-- transition_b1d5781111d84f7b3fe45a0852e59758cd7a87e5 -->
<g id="node32" class="node"><title>transition_b1d5781111d84f7b3fe45a0852e59758cd7a87e5</title>
<polygon fill="none" stroke="#333333" points="1229.3,-1151.01 1083.3,-1151.01 1083.3,-1005.01 1229.3,-1005.01 1229.3,-1151.01"/>
<text text-anchor="middle" x="1156.3" y="-1075.81" font-family="Arial" font-size="9.00">IMPORT_MANDATE_REVOKED</text>
</g>
<!-- place_e6f4dd32e509fdb03fd79f1ac358ad70ffed3131&#45;&gt;transition_b1d5781111d84f7b3fe45a0852e59758cd7a87e5 -->
<g id="edge21" class="edge"><title>place_e6f4dd32e509fdb03fd79f1ac358ad70ffed3131&#45;&gt;transition_b1d5781111d84f7b3fe45a0852e59758cd7a87e5</title>
<path fill="none" stroke="#333333" d="M941.25,-932.502C978.799,-958.028 1033.98,-995.541 1078.91,-1026.09"/>
<polygon fill="#333333" stroke="#333333" points="1078.11,-1027.66 1083.23,-1029.02 1080.08,-1024.76 1078.11,-1027.66"/>
</g>
<!-- transition_17ba0791499db908433b80f37c5fbc89b870084b -->
<g id="node33" class="node"><title>transition_17ba0791499db908433b80f37c5fbc89b870084b</title>
<polygon fill="none" stroke="#333333" points="1240.3,-987.013 1072.3,-987.013 1072.3,-819.013 1240.3,-819.013 1240.3,-987.013"/>
<text text-anchor="middle" x="1156.3" y="-900.813" font-family="Arial" font-size="9.00">IMPORT_TRANSACTION_REMOVED</text>
</g>
<!-- place_e6f4dd32e509fdb03fd79f1ac358ad70ffed3131&#45;&gt;transition_17ba0791499db908433b80f37c5fbc89b870084b -->
<g id="edge23" class="edge"><title>place_e6f4dd32e509fdb03fd79f1ac358ad70ffed3131&#45;&gt;transition_17ba0791499db908433b80f37c5fbc89b870084b</title>
<path fill="none" stroke="#333333" d="M949.967,-897.465C983.501,-896.261 1027.94,-895.962 1066.9,-896.567"/>
<polygon fill="#333333" stroke="#333333" points="1067.09,-898.32 1072.12,-896.654 1067.15,-894.82 1067.09,-898.32"/>
</g>
<!-- place_cfd92d62c5a0f95de1ff12861b9eefedca756f7b -->
<g id="node19" class="node"><title>place_cfd92d62c5a0f95de1ff12861b9eefedca756f7b</title>
<ellipse fill="none" stroke="#333333" cx="1368.74" cy="-1078.01" rx="36" ry="36"/>
<text text-anchor="middle" x="1368.74" y="-1075.81" font-family="Arial" font-size="9.00">REVOKED</text>
</g>
<!-- transition_7b52009b64fd0a2a49e6d8a939753077792b0554 -->
<g id="node34" class="node"><title>transition_7b52009b64fd0a2a49e6d8a939753077792b0554</title>
<polygon fill="none" stroke="#333333" points="1665.17,-1162.01 1497.17,-1162.01 1497.17,-994.013 1665.17,-994.013 1665.17,-1162.01"/>
<text text-anchor="middle" x="1581.17" y="-1075.81" font-family="Arial" font-size="9.00">IMPORT_TRANSACTION_REMOVED</text>
</g>
<!-- place_cfd92d62c5a0f95de1ff12861b9eefedca756f7b&#45;&gt;transition_7b52009b64fd0a2a49e6d8a939753077792b0554 -->
<g id="edge25" class="edge"><title>place_cfd92d62c5a0f95de1ff12861b9eefedca756f7b&#45;&gt;transition_7b52009b64fd0a2a49e6d8a939753077792b0554</title>
<path fill="none" stroke="#333333" d="M1404.48,-1072.85C1428.21,-1071.56 1460.78,-1071.06 1491.44,-1071.34"/>
<polygon fill="#333333" stroke="#333333" points="1491.72,-1073.09 1496.74,-1071.39 1491.76,-1069.59 1491.72,-1073.09"/>
</g>
<!-- transition_bd307a3ec329e10a2cff8fb87480823da114f8f4 -->
<g id="node35" class="node"><title>transition_bd307a3ec329e10a2cff8fb87480823da114f8f4</title>
<polygon fill="none" stroke="#333333" points="1617.17,-976.013 1545.17,-976.013 1545.17,-904.013 1617.17,-904.013 1617.17,-976.013"/>
<text text-anchor="middle" x="1581.17" y="-937.813" font-family="Arial" font-size="9.00">REMOVE</text>
</g>
<!-- place_cfd92d62c5a0f95de1ff12861b9eefedca756f7b&#45;&gt;transition_bd307a3ec329e10a2cff8fb87480823da114f8f4 -->
<g id="edge27" class="edge"><title>place_cfd92d62c5a0f95de1ff12861b9eefedca756f7b&#45;&gt;transition_bd307a3ec329e10a2cff8fb87480823da114f8f4</title>
<path fill="none" stroke="#333333" d="M1397.82,-1055.84C1423.15,-1036.25 1461.75,-1007.4 1497.17,-985.013 1510.86,-976.359 1526.35,-967.68 1540.21,-960.285"/>
<polygon fill="#333333" stroke="#333333" points="1541.25,-961.717 1544.85,-957.829 1539.61,-958.625 1541.25,-961.717"/>
</g>
<!-- place_a341b9d56a2c3bfd653b2d5b01bddd97b7946ca1 -->
<g id="node20" class="node"><title>place_a341b9d56a2c3bfd653b2d5b01bddd97b7946ca1</title>
<ellipse fill="none" stroke="#333333" cx="2542.07" cy="-181.013" rx="92.3705" ry="92.3705"/>
<text text-anchor="middle" x="2542.07" y="-178.813" font-family="Arial" font-size="9.00">TRANSACTION_REGISTRATION_SENT</text>
</g>
<!-- transition_c1dfd96eea8cc2b62785275bca38ac261256e278 -->
<g id="node28" class="node"><title>transition_c1dfd96eea8cc2b62785275bca38ac261256e278</title>
<polygon fill="none" stroke="#333333" points="2825.5,-168.513 2670.5,-168.513 2670.5,-13.5134 2825.5,-13.5134 2825.5,-168.513"/>
<text text-anchor="middle" x="2748" y="-88.8134" font-family="Arial" font-size="9.00">IMPORT_TRANSACTION_ACTIVE</text>
</g>
<!-- place_a341b9d56a2c3bfd653b2d5b01bddd97b7946ca1&#45;&gt;transition_c1dfd96eea8cc2b62785275bca38ac261256e278 -->
<g id="edge13" class="edge"><title>place_a341b9d56a2c3bfd653b2d5b01bddd97b7946ca1&#45;&gt;transition_c1dfd96eea8cc2b62785275bca38ac261256e278</title>
<path fill="none" stroke="#333333" d="M2626.9,-144.017C2639.71,-138.361 2652.93,-132.53 2665.69,-126.898"/>
<polygon fill="#333333" stroke="#333333" points="2666.5,-128.452 2670.37,-124.832 2665.09,-125.25 2666.5,-128.452"/>
</g>
<!-- place_dc5c141b4b017ab2c3c93372cd73211e591b3dea -->
<g id="node21" class="node"><title>place_dc5c141b4b017ab2c3c93372cd73211e591b3dea</title>
<ellipse fill="none" stroke="#333333" cx="896.873" cy="-417.013" rx="76.8866" ry="76.8866"/>
<text text-anchor="middle" x="896.873" y="-414.813" font-family="Arial" font-size="9.00">TRANSACTION_UPDATE_SENT</text>
</g>
<!-- transition_91032ad7bbcb6cf72875e8e8207dcfba80173f7c -->
<g id="node42" class="node"><title>transition_91032ad7bbcb6cf72875e8e8207dcfba80173f7c</title>
<polygon fill="none" stroke="#333333" points="1869.17,-447.013 1701.17,-447.013 1701.17,-279.013 1869.17,-279.013 1869.17,-447.013"/>
<text text-anchor="middle" x="1785.17" y="-360.813" font-family="Arial" font-size="9.00">IMPORT_TRANSACTION_REMOVED</text>
</g>
<!-- place_dc5c141b4b017ab2c3c93372cd73211e591b3dea&#45;&gt;transition_91032ad7bbcb6cf72875e8e8207dcfba80173f7c -->
<g id="edge41" class="edge"><title>place_dc5c141b4b017ab2c3c93372cd73211e591b3dea&#45;&gt;transition_91032ad7bbcb6cf72875e8e8207dcfba80173f7c</title>
<path fill="none" stroke="#333333" d="M972.125,-399.195C1002.93,-392.567 1039.15,-385.753 1072.3,-382.013 1295.78,-356.798 1561.11,-357.824 1695.96,-360.53"/>
<polygon fill="#333333" stroke="#333333" points="1696.07,-362.283 1701.1,-360.636 1696.14,-358.783 1696.07,-362.283"/>
</g>
<!-- transition_b6589fc6ab0dc82cf12099d1c2d40ab994e8410c&#45;&gt;place_818af3c4262f96a99ab981900e5a0e1c415b44df -->
<g id="edge2" class="edge"><title>transition_b6589fc6ab0dc82cf12099d1c2d40ab994e8410c&#45;&gt;place_818af3c4262f96a99ab981900e5a0e1c415b44df</title>
<path fill="none" stroke="#333333" d="M1198.37,-759.013C1233.26,-759.013 1283.36,-759.013 1320.01,-759.013"/>
<polygon fill="#333333" stroke="#333333" points="1320.32,-760.763 1325.32,-759.013 1320.32,-757.263 1320.32,-760.763"/>
</g>
<!-- transition_356a192b7913b04c54574d18c28d46e6395428ab&#45;&gt;place_e1b6adc61c1e09203349001f5eeaf8573afcf571 -->
<g id="edge4" class="edge"><title>transition_356a192b7913b04c54574d18c28d46e6395428ab&#45;&gt;place_e1b6adc61c1e09203349001f5eeaf8573afcf571</title>
<path fill="none" stroke="#333333" d="M1217.32,-637.158C1243.17,-636.789 1273.52,-636.356 1300.16,-635.977"/>
<polygon fill="#333333" stroke="#333333" points="1300.46,-637.723 1305.44,-635.901 1300.41,-634.223 1300.46,-637.723"/>
</g>
<!-- transition_da4b9237bacccdf19c0760cab7aec4a8359010b0&#45;&gt;place_d2b9cb7f8fd77caeaa93cb6ecf9a2c6c01a8aa39 -->
<g id="edge6" class="edge"><title>transition_da4b9237bacccdf19c0760cab7aec4a8359010b0&#45;&gt;place_d2b9cb7f8fd77caeaa93cb6ecf9a2c6c01a8aa39</title>
<path fill="none" stroke="#333333" d="M1617.36,-723.375C1651.43,-705.325 1703.21,-677.897 1740.03,-658.392"/>
<polygon fill="#333333" stroke="#333333" points="1741.3,-659.702 1744.9,-655.815 1739.66,-656.609 1741.3,-659.702"/>
</g>
<!-- transition_77de68daecd823babbb58edb1c8e14d7106e83bb&#45;&gt;place_d2b9cb7f8fd77caeaa93cb6ecf9a2c6c01a8aa39 -->
<g id="edge8" class="edge"><title>transition_77de68daecd823babbb58edb1c8e14d7106e83bb&#45;&gt;place_d2b9cb7f8fd77caeaa93cb6ecf9a2c6c01a8aa39</title>
<path fill="none" stroke="#333333" d="M1617.36,-635.013C1649.89,-635.013 1698.57,-635.013 1734.95,-635.013"/>
<polygon fill="#333333" stroke="#333333" points="1735.23,-636.763 1740.23,-635.013 1735.23,-633.263 1735.23,-636.763"/>
</g>
<!-- transition_1b6453892473a467d07372d45eb05abc2031647a&#45;&gt;place_9804773f9a8846d1ea1d0cde5eb01d893b382682 -->
<g id="edge10" class="edge"><title>transition_1b6453892473a467d07372d45eb05abc2031647a&#45;&gt;place_9804773f9a8846d1ea1d0cde5eb01d893b382682</title>
<path fill="none" stroke="#333333" d="M2054.79,-538.365C2080.02,-508.489 2108.64,-474.607 2133.95,-444.644"/>
<polygon fill="#333333" stroke="#333333" points="2135.45,-445.582 2137.34,-440.633 2132.78,-443.323 2135.45,-445.582"/>
</g>
<!-- transition_ac3478d69a3c81fa62e60f5c3696165a4e5e6ac4&#45;&gt;place_a341b9d56a2c3bfd653b2d5b01bddd97b7946ca1 -->
<g id="edge12" class="edge"><title>transition_ac3478d69a3c81fa62e60f5c3696165a4e5e6ac4&#45;&gt;place_a341b9d56a2c3bfd653b2d5b01bddd97b7946ca1</title>
<path fill="none" stroke="#333333" d="M2413.88,-275.758C2428.41,-264.929 2445.88,-251.918 2463.15,-239.055"/>
<polygon fill="#333333" stroke="#333333" points="2464.57,-240.18 2467.53,-235.79 2462.48,-237.373 2464.57,-240.18"/>
</g>
<!-- transition_c1dfd96eea8cc2b62785275bca38ac261256e278&#45;&gt;place_c72633f673ef54769f56bbaf78d2baf4858bf7c3 -->
<g id="edge14" class="edge"><title>transition_c1dfd96eea8cc2b62785275bca38ac261256e278&#45;&gt;place_c72633f673ef54769f56bbaf78d2baf4858bf7c3</title>
<path fill="none" stroke="#333333" d="M2670.36,-60.9195C2596.76,-34.7559 2481.83,-1.01335 2378.63,-1.01335 463.723,-1.01335 463.723,-1.01335 463.723,-1.01335 297.292,-1.01335 207.767,15.2003 108,-118.013 59.3738,-182.942 43.1992,-431.207 38.6034,-530.558"/>
<polygon fill="#333333" stroke="#333333" points="36.8465,-530.672 38.3677,-535.746 40.3429,-530.83 36.8465,-530.672"/>
</g>
<!-- transition_902ba3cda1883801594b6e1b452790cc53948fda&#45;&gt;place_c72633f673ef54769f56bbaf78d2baf4858bf7c3 -->
<g id="edge16" class="edge"><title>transition_902ba3cda1883801594b6e1b452790cc53948fda&#45;&gt;place_c72633f673ef54769f56bbaf78d2baf4858bf7c3</title>
<path fill="none" stroke="#333333" d="M109.933,-767.489C109.272,-766.334 108.627,-765.175 108,-764.013 77.8801,-708.241 100.033,-682.863 72,-626.013 68.6569,-619.234 64.1934,-612.494 59.5755,-606.135"/>
<polygon fill="#333333" stroke="#333333" points="60.7467,-604.776 56.3656,-601.797 57.9332,-606.858 60.7467,-604.776"/>
</g>
<!-- transition_fe5dbbcea5ce7e2988b8c69bcfdfde8904aabc1f&#45;&gt;place_9031bdf59fef50c79366e1e807bcd3165f1b86da -->
<g id="edge18" class="edge"><title>transition_fe5dbbcea5ce7e2988b8c69bcfdfde8904aabc1f&#45;&gt;place_9031bdf59fef50c79366e1e807bcd3165f1b86da</title>
<path fill="none" stroke="#333333" d="M250.679,-714.256C294.97,-733.54 356.873,-760.492 402.543,-780.376"/>
<polygon fill="#333333" stroke="#333333" points="401.907,-782.008 407.19,-782.399 403.304,-778.799 401.907,-782.008"/>
</g>
<!-- transition_0ade7c2cf97f75d009975f4d720d1fa6c19f4897&#45;&gt;place_e6f4dd32e509fdb03fd79f1ac358ad70ffed3131 -->
<g id="edge20" class="edge"><title>transition_0ade7c2cf97f75d009975f4d720d1fa6c19f4897&#45;&gt;place_e6f4dd32e509fdb03fd79f1ac358ad70ffed3131</title>
<path fill="none" stroke="#333333" d="M721.499,-863.047C753.705,-870.429 802,-881.498 839.604,-890.117"/>
<polygon fill="#333333" stroke="#333333" points="839.337,-891.851 844.602,-891.262 840.119,-888.439 839.337,-891.851"/>
</g>
<!-- transition_b1d5781111d84f7b3fe45a0852e59758cd7a87e5&#45;&gt;place_cfd92d62c5a0f95de1ff12861b9eefedca756f7b -->
<g id="edge22" class="edge"><title>transition_b1d5781111d84f7b3fe45a0852e59758cd7a87e5&#45;&gt;place_cfd92d62c5a0f95de1ff12861b9eefedca756f7b</title>
<path fill="none" stroke="#333333" d="M1229.43,-1078.01C1262.24,-1078.01 1299.84,-1078.01 1327.55,-1078.01"/>
<polygon fill="#333333" stroke="#333333" points="1327.6,-1079.76 1332.6,-1078.01 1327.6,-1076.26 1327.6,-1079.76"/>
</g>
<!-- transition_17ba0791499db908433b80f37c5fbc89b870084b&#45;&gt;place_e6f4dd32e509fdb03fd79f1ac358ad70ffed3131 -->
<g id="edge24" class="edge"><title>transition_17ba0791499db908433b80f37c5fbc89b870084b&#45;&gt;place_e6f4dd32e509fdb03fd79f1ac358ad70ffed3131</title>
<path fill="none" stroke="#333333" d="M1072.12,-909.373C1033.84,-910.056 989.393,-909.843 954.971,-908.732"/>
<polygon fill="#333333" stroke="#333333" points="955.023,-906.983 949.967,-908.562 954.904,-910.481 955.023,-906.983"/>
</g>
<!-- transition_7b52009b64fd0a2a49e6d8a939753077792b0554&#45;&gt;place_cfd92d62c5a0f95de1ff12861b9eefedca756f7b -->
<g id="edge26" class="edge"><title>transition_7b52009b64fd0a2a49e6d8a939753077792b0554&#45;&gt;place_cfd92d62c5a0f95de1ff12861b9eefedca756f7b</title>
<path fill="none" stroke="#333333" d="M1496.74,-1084.63C1466.72,-1085 1434.22,-1084.6 1409.61,-1083.44"/>
<polygon fill="#333333" stroke="#333333" points="1409.57,-1081.68 1404.48,-1083.18 1409.39,-1085.18 1409.57,-1081.68"/>
</g>
<!-- transition_bd307a3ec329e10a2cff8fb87480823da114f8f4&#45;&gt;place_4ab3919e3d5f33ebd977a1af7ba9fb5159a24b86 -->
<g id="edge28" class="edge"><title>transition_bd307a3ec329e10a2cff8fb87480823da114f8f4&#45;&gt;place_4ab3919e3d5f33ebd977a1af7ba9fb5159a24b86</title>
<path fill="none" stroke="#333333" d="M1617.36,-940.013C1652.59,-940.013 1706.74,-940.013 1743.72,-940.013"/>
<polygon fill="#333333" stroke="#333333" points="1744.05,-941.763 1749.05,-940.013 1744.05,-938.263 1744.05,-941.763"/>
</g>
<!-- transition_fa35e192121eabf3dabf9f5ea6abdbcbc107ac3b&#45;&gt;place_e6055c5a6ee8feda91cdd5be510d21cec274b4c8 -->
<g id="edge30" class="edge"><title>transition_fa35e192121eabf3dabf9f5ea6abdbcbc107ac3b&#45;&gt;place_e6055c5a6ee8feda91cdd5be510d21cec274b4c8</title>
<path fill="none" stroke="#333333" d="M237.284,-573.744C284.44,-575.675 360.751,-578.798 411.573,-580.879"/>
<polygon fill="#333333" stroke="#333333" points="411.649,-582.633 416.717,-581.089 411.792,-579.136 411.649,-582.633"/>
</g>
<!-- transition_f1abd670358e036c31296e66b3b66c382ac00812&#45;&gt;place_ead9028928ebb77be9947a639f024bb8b67c643a -->
<g id="edge32" class="edge"><title>transition_f1abd670358e036c31296e66b3b66c382ac00812&#45;&gt;place_ead9028928ebb77be9947a639f024bb8b67c643a</title>
<path fill="none" stroke="#333333" d="M721.499,-570.507C757.605,-568.955 813.934,-566.535 852.748,-564.867"/>
<polygon fill="#333333" stroke="#333333" points="852.947,-566.61 857.867,-564.647 852.797,-563.113 852.947,-566.61"/>
</g>
<!-- transition_1574bddb75c78a6fd2251d61e2993b5146201319&#45;&gt;place_cd5d07c90b5c8a0724fc18d8b9c909271052f2b5 -->
<g id="edge34" class="edge"><title>transition_1574bddb75c78a6fd2251d61e2993b5146201319&#45;&gt;place_cd5d07c90b5c8a0724fc18d8b9c909271052f2b5</title>
<path fill="none" stroke="#333333" d="M1240.47,-475.013C1270.39,-475.013 1302.81,-475.013 1327.44,-475.013"/>
<polygon fill="#333333" stroke="#333333" points="1327.57,-476.763 1332.57,-475.013 1327.57,-473.263 1327.57,-476.763"/>
</g>
<!-- transition_0716d9708d321ffb6a00818614779e779925365c&#45;&gt;place_9804773f9a8846d1ea1d0cde5eb01d893b382682 -->
<g id="edge36" class="edge"><title>transition_0716d9708d321ffb6a00818614779e779925365c&#45;&gt;place_9804773f9a8846d1ea1d0cde5eb01d893b382682</title>
<path fill="none" stroke="#333333" d="M2034.39,-436.268C2055.35,-427.157 2080.76,-416.109 2105.43,-405.384"/>
<polygon fill="#333333" stroke="#333333" points="2106.14,-406.985 2110.03,-403.386 2104.75,-403.775 2106.14,-406.985"/>
</g>
<!-- transition_9e6a55b6b4563e652a23be9d623ca5055c356940&#45;&gt;place_a6d4df81ef896e3dae9187ed1a718a5abde20bcf -->
<g id="edge38" class="edge"><title>transition_9e6a55b6b4563e652a23be9d623ca5055c356940&#45;&gt;place_a6d4df81ef896e3dae9187ed1a718a5abde20bcf</title>
<path fill="none" stroke="#333333" d="M274.172,-431.013C305.18,-431.013 340.934,-431.013 372.976,-431.013"/>
<polygon fill="#333333" stroke="#333333" points="373.085,-432.763 378.085,-431.013 373.085,-429.263 373.085,-432.763"/>
</g>
<!-- transition_b3f0c7f6bb763af1be91d9e74eabfeb199dc1f1f&#45;&gt;place_dc5c141b4b017ab2c3c93372cd73211e591b3dea -->
<g id="edge40" class="edge"><title>transition_b3f0c7f6bb763af1be91d9e74eabfeb199dc1f1f&#45;&gt;place_dc5c141b4b017ab2c3c93372cd73211e591b3dea</title>
<path fill="none" stroke="#333333" d="M721.499,-424.507C746.92,-423.414 782.367,-421.891 814.668,-420.503"/>
<polygon fill="#333333" stroke="#333333" points="814.902,-422.245 819.822,-420.282 814.752,-418.748 814.902,-422.245"/>
</g>
<!-- transition_91032ad7bbcb6cf72875e8e8207dcfba80173f7c&#45;&gt;place_9804773f9a8846d1ea1d0cde5eb01d893b382682 -->
<g id="edge42" class="edge"><title>transition_91032ad7bbcb6cf72875e8e8207dcfba80173f7c&#45;&gt;place_9804773f9a8846d1ea1d0cde5eb01d893b382682</title>
<path fill="none" stroke="#333333" d="M1869.5,-363.013C1934.91,-363.013 2026.41,-363.013 2097.01,-363.013"/>
<polygon fill="#333333" stroke="#333333" points="2097.06,-364.763 2102.06,-363.013 2097.06,-361.263 2097.06,-364.763"/>
</g>
<!-- transition_472b07b9fcf2c2451e8781e944bf5f77cd8457c8&#45;&gt;place_664643489a68e9127ca5f29045b98aea46b3fffd -->
<g id="edge44" class="edge"><title>transition_472b07b9fcf2c2451e8781e944bf5f77cd8457c8&#45;&gt;place_664643489a68e9127ca5f29045b98aea46b3fffd</title>
<path fill="none" stroke="#333333" d="M280.025,-201.939C290.293,-200.602 301.007,-199.206 311.876,-197.791"/>
<polygon fill="#333333" stroke="#333333" points="312.147,-199.52 316.879,-197.139 311.695,-196.05 312.147,-199.52"/>
</g>
<!-- transition_12c6fc06c99a462375eeb3f43dfd832b08ca9e17&#45;&gt;place_37caab4993715f768067bde3a516958dad5b68c4 -->
<g id="edge46" class="edge"><title>transition_12c6fc06c99a462375eeb3f43dfd832b08ca9e17&#45;&gt;place_37caab4993715f768067bde3a516958dad5b68c4</title>
<path fill="none" stroke="#333333" d="M721.499,-178.013C730.587,-178.013 740.956,-178.013 752.004,-178.013"/>
<polygon fill="#333333" stroke="#333333" points="752.126,-179.763 757.126,-178.013 752.126,-176.263 752.126,-179.763"/>
</g>
<!-- transition_d435a6cdd786300dff204ee7c2ef942d3e9034e2&#45;&gt;place_603ac2dac5e51a400b34e54cd8c3863177d9c01b -->
<g id="edge48" class="edge"><title>transition_d435a6cdd786300dff204ee7c2ef942d3e9034e2&#45;&gt;place_603ac2dac5e51a400b34e54cd8c3863177d9c01b</title>
<path fill="none" stroke="#333333" d="M1240.47,-178.013C1250.54,-178.013 1260.89,-178.013 1271.13,-178.013"/>
<polygon fill="#333333" stroke="#333333" points="1271.15,-179.763 1276.15,-178.013 1271.15,-176.263 1271.15,-179.763"/>
</g>
<!-- transition_4d134bc072212ace2df385dae143139da74ec0ef&#45;&gt;place_1d873f095061223ff3e5aa2923f8eed67b6a60f3 -->
<g id="edge50" class="edge"><title>transition_4d134bc072212ace2df385dae143139da74ec0ef&#45;&gt;place_1d873f095061223ff3e5aa2923f8eed67b6a60f3</title>
<path fill="none" stroke="#333333" d="M1617.36,-178.013C1639.38,-178.013 1668.81,-178.013 1696.81,-178.013"/>
<polygon fill="#333333" stroke="#333333" points="1697.02,-179.763 1702.02,-178.013 1697.02,-176.263 1697.02,-179.763"/>
</g>
<!-- transition_f6e1126cedebf23e1463aee73f9df08783640400&#45;&gt;place_9804773f9a8846d1ea1d0cde5eb01d893b382682 -->
<g id="edge52" class="edge"><title>transition_f6e1126cedebf23e1463aee73f9df08783640400&#45;&gt;place_9804773f9a8846d1ea1d0cde5eb01d893b382682</title>
<path fill="none" stroke="#333333" d="M2066.27,-270.124C2082.01,-280.825 2098.61,-292.116 2114.62,-302.999"/>
<polygon fill="#333333" stroke="#333333" points="2114,-304.693 2119.12,-306.056 2115.97,-301.798 2114,-304.693"/>
</g>
</g>
</svg>
